0
SECTION
2
ENTITIES
0
3DFACE
8
0
10
43.584053
20
-36.372234
30
-1552.0289
11
37.696472
21
0.6379452
31
-1561.3524
12
-23.320406
22
-41.066353
32
-1559.0283
13
-23.320307
23
-41.066254
33
-1559.0282
0
3DFACE
8
0
10
-23.320406
20
-41.066353
30
-1559.0283
11
37.696472
21
0.6379452
31
-1561.3524
12
-20.8087
22
-3.4668655
32
-1567.473
13
-20.808601
23
-3.4667656
33
-1567.4729
0
3DFACE
8
0
10
-23.320406
20
-41.066353
30
-1559.0283
11
-20.8087
21
-3.4668655
31
-1567.473
12
-76.564095
22
-21.704361
32
-1522.457
13
-76.563995
23
-21.704262
33
-1522.4569
0
3DFACE
8
0
10
-76.564095
20
-21.704361
30
-1522.457
11
-20.8087
21
-3.4668655
31
-1567.473
12
-67.368095
22
13.464394
32
-1535.493
13
-67.368
23
13.464494
33
-1535.4929
0
3DFACE
8
0
10
-76.564095
20
-21.704361
30
-1522.457
11
-67.368095
21
13.464394
31
-1535.493
12
-84.95758
22
10.371753
32
-1463.7382
13
-84.95748
23
10.371853
33
-1463.738
0
3DFACE
8
0
10
-84.95758
20
10.371753
30
-1463.7382
11
-67.368095
21
13.464394
31
-1535.493
12
-74.70785
22
41.51362
32
-1484.1459
13
-74.70775
23
41.513718
33
-1484.1458
0
3DFACE
8
0
10
-84.95758
20
10.371753
30
-1463.7382
11
-74.70785
21
41.51362
31
-1484.1459
12
-43.584076
22
36.372234
32
-1417.2684
13
-43.583977
23
36.372334
33
-1417.2683
0
3DFACE
8
0
10
-43.584076
20
36.372234
30
-1417.2684
11
-74.70785
21
41.51362
31
-1484.1459
12
-38.528435
22
64.24997
32
-1443.5099
13
-38.528336
23
64.25007
33
-1443.5098
0
3DFACE
8
0
10
-43.584076
20
36.372234
30
-1417.2684
11
-38.528435
21
64.24997
31
-1443.5099
12
23.320387
22
41.066353
32
-1410.269
13
23.320486
23
41.066452
33
-1410.2689
0
3DFACE
8
0
10
23.320387
20
41.066353
30
-1410.269
11
-38.528435
21
64.24997
31
-1443.5099
12
19.976742
22
68.354774
32
-1437.3893
13
19.976841
23
68.35487
33
-1437.3892
0
3DFACE
8
0
10
23.320387
20
41.066353
30
-1410.269
11
19.976742
21
68.354774
31
-1437.3893
12
76.564064
22
21.704363
32
-1446.8403
13
76.56416
23
21.704462
33
-1446.8402
0
3DFACE
8
0
10
76.564064
20
21.704363
30
-1446.8403
11
19.976742
21
68.354774
31
-1437.3893
12
66.536125
22
51.423515
32
-1469.3694
13
66.536224
23
51.423615
33
-1469.3693
0
3DFACE
8
0
10
76.564064
20
21.704363
30
-1446.8403
11
66.536125
21
51.423515
31
-1469.3694
12
84.95755
22
-10.371766
32
-1505.5592
13
84.95765
23
-10.371666
33
-1505.5591
0
3DFACE
8
0
10
84.95755
20
-10.371766
30
-1505.5592
11
66.536125
21
51.423515
31
-1469.3694
12
73.87587
22
23.374275
32
-1520.7166
13
73.87597
23
23.374374
33
-1520.7164
0
3DFACE
8
0
10
84.95755
20
-10.371766
30
-1505.5592
11
73.87587
21
23.374275
31
-1520.7166
12
43.584053
22
-36.372234
32
-1552.0289
13
43.584152
23
-36.372135
33
-1552.0288
0
3DFACE
8
0
10
43.584053
20
-36.372234
30
-1552.0289
11
73.87587
21
23.374275
31
-1520.7166
12
37.696472
22
0.6379452
32
-1561.3524
13
37.69657
23
0.6380452
33
-1561.3523
0
3DFACE
8
0
10
37.696472
20
0.6379452
30
-1561.3524
11
32.604553
21
36.984123
31
-1571.906
12
-20.8087
22
-3.4668655
32
-1567.473
13
-20.808601
23
-3.4667656
33
-1567.4729
0
3DFACE
8
0
10
-20.8087
20
-3.4668655
30
-1567.473
11
32.604553
21
36.984123
31
-1571.906
12
-18.722725
22
33.38292
32
-1577.2756
13
-18.722626
23
33.38302
33
-1577.2755
0
3DFACE
8
0
10
-20.8087
20
-3.4668655
30
-1567.473
11
-18.722725
21
33.38292
31
-1577.2756
12
-67.368095
22
13.464394
32
-1535.493
13
-67.368
23
13.464494
33
-1535.4929
0
3DFACE
8
0
10
-67.368095
20
13.464394
30
-1535.493
11
-18.722725
21
33.38292
31
-1577.2756
12
-59.56983
22
48.236916
32
-1549.2192
13
-59.569733
23
48.237015
33
-1549.2191
0
3DFACE
8
0
10
-67.368095
20
13.464394
30
-1535.493
11
-59.56983
21
48.236916
31
-1549.2192
12
-74.70785
22
41.51362
32
-1484.1459
13
-74.70775
23
41.513718
33
-1484.1458
0
3DFACE
8
0
10
-74.70785
20
41.51362
30
-1484.1459
11
-59.56983
21
48.236916
31
-1549.2192
12
-66.00908
22
72.84483
32
-1504.1718
13
-66.00898
23
72.84493
33
-1504.1716
0
3DFACE
8
0
10
-74.70785
20
41.51362
30
-1484.1459
11
-66.00908
21
72.84483
31
-1504.1718
12
-38.528435
22
64.24997
32
-1443.5099
13
-38.528336
23
64.25007
33
-1443.5098
0
3DFACE
8
0
10
-38.528435
20
64.24997
30
-1443.5099
11
-66.00908
21
72.84483
31
-1504.1718
12
-34.268463
22
92.791695
32
-1468.5214
13
-34.268364
23
92.791794
33
-1468.5212
0
3DFACE
8
0
10
-38.528435
20
64.24997
30
-1443.5099
11
-34.268463
21
92.791695
31
-1468.5214
12
19.976742
22
68.354774
32
-1437.3893
13
19.976841
23
68.35487
33
-1437.3892
0
3DFACE
8
0
10
19.976742
20
68.354774
30
-1437.3893
11
-34.268463
21
92.791695
31
-1468.5214
12
17.058819
22
96.3929
32
-1463.1516
13
17.058918
23
96.393
33
-1463.1515
0
3DFACE
8
0
10
19.976742
20
68.354774
30
-1437.3893
11
17.058819
21
96.3929
31
-1463.1516
12
66.536125
22
51.423515
32
-1469.3694
13
66.536224
23
51.423615
33
-1469.3693
0
3DFACE
8
0
10
66.536125
20
51.423515
30
-1469.3694
11
17.058819
21
96.3929
31
-1463.1516
12
57.905914
22
81.5389
32
-1491.2081
13
57.906013
23
81.539
33
-1491.208
0
3DFACE
8
0
10
66.536125
20
51.423515
30
-1469.3694
11
57.905914
21
81.5389
31
-1491.2081
12
73.87587
22
23.374275
32
-1520.7166
13
73.87597
23
23.374374
33
-1520.7164
0
3DFACE
8
0
10
73.87587
20
23.374275
30
-1520.7166
11
57.905914
21
81.5389
31
-1491.2081
12
64.34517
22
56.930973
32
-1536.2556
13
64.34527
23
56.931072
33
-1536.2555
0
3DFACE
8
0
10
73.87587
20
23.374275
30
-1520.7166
11
64.34517
21
56.930973
31
-1536.2556
12
37.696472
22
0.6379452
32
-1561.3524
13
37.69657
23
0.6380452
33
-1561.3523
0
3DFACE
8
0
10
37.696472
20
0.6379452
30
-1561.3524
11
64.34517
21
56.930973
31
-1536.2556
12
32.604553
22
36.984123
32
-1571.906
13
32.604652
23
36.984222
33
-1571.9059
0
3DFACE
8
0
10
32.604553
20
36.984123
30
-1571.906
11
28.635916
21
72.392876
31
-1584.196
12
-18.722725
22
33.38292
32
-1577.2756
13
-18.722626
23
33.38302
33
-1577.2755
0
3DFACE
8
0
10
-18.722725
20
33.38292
30
-1577.2756
11
28.635916
21
72.392876
31
-1584.196
12
-17.237785
22
69.1743
32
-1588.9952
13
-17.237686
23
69.1744
33
-1588.9951
0
3DFACE
8
0
10
-18.722725
20
33.38292
30
-1577.2756
11
-17.237785
21
69.1743
31
-1588.9952
12
-59.56983
22
48.236916
32
-1549.2192
13
-59.569733
23
48.237015
33
-1549.2191
0
3DFACE
8
0
10
-59.56983
20
48.236916
30
-1549.2192
11
-17.237785
21
69.1743
31
-1588.9952
12
-53.744843
22
82.45005
32
-1563.9198
13
-53.744743
23
82.45015
33
-1563.9197
0
3DFACE
8
0
10
-59.56983
20
48.236916
30
-1549.2192
11
-53.744843
21
82.45005
31
-1563.9198
12
-66.00908
22
72.84483
32
-1504.1718
13
-66.00898
23
72.84493
33
-1504.1716
0
3DFACE
8
0
10
-66.00908
20
72.84483
30
-1504.1718
11
-53.744843
21
82.45005
31
-1563.9198
12
-59.499924
22
104.44335
32
-1523.6587
13
-59.499825
23
104.44345
33
-1523.6586
0
3DFACE
8
0
10
-66.00908
20
72.84483
30
-1504.1718
11
-59.499924
21
104.44335
31
-1523.6587
12
-34.268463
22
92.791695
32
-1468.5214
13
-34.268364
23
92.791794
33
-1468.5212
0
3DFACE
8
0
10
-34.268463
20
92.791695
30
-1468.5214
11
-59.499924
21
104.44335
31
-1523.6587
12
-31.13177
22
122.270836
32
-1491.7961
13
-31.13167
23
122.270935
33
-1491.796
0
3DFACE
8
0
10
-34.268463
20
92.791695
30
-1468.5214
11
-31.13177
21
122.270836
31
-1491.7961
12
17.058819
22
96.3929
32
-1463.1516
13
17.058918
23
96.393
33
-1463.1515
0
3DFACE
8
0
10
17.058819
20
96.3929
30
-1463.1516
11
-31.13177
21
122.270836
31
-1491.7961
12
14.741936
22
125.48941
32
-1486.9971
13
14.742036
23
125.48951
33
-1486.997
0
3DFACE
8
0
10
17.058819
20
96.3929
30
-1463.1516
11
14.741936
21
125.48941
31
-1486.9971
12
57.905914
22
81.5389
32
-1491.2081
13
57.906013
23
81.539
33
-1491.208
0
3DFACE
8
0
10
57.905914
20
81.5389
30
-1491.2081
11
14.741936
21
125.48941
31
-1486.9971
12
51.248985
22
112.21367
32
-1512.0725
13
51.249084
23
112.21377
33
-1512.0724
0
3DFACE
8
0
10
57.905914
20
81.5389
30
-1491.2081
11
51.248985
21
112.21367
31
-1512.0725
12
64.34517
22
56.930973
32
-1536.2556
13
64.34527
23
56.931072
33
-1536.2555
0
3DFACE
8
0
10
64.34517
20
56.930973
30
-1536.2556
11
51.248985
21
112.21367
31
-1512.0725
12
57.00406
22
90.22035
32
-1552.3336
13
57.004158
23
90.22045
33
-1552.3335
0
3DFACE
8
0
10
64.34517
20
56.930973
30
-1536.2556
11
57.00406
21
90.22035
31
-1552.3336
12
32.604553
22
36.984123
32
-1571.906
13
32.604652
23
36.984222
33
-1571.9059
0
3DFACE
8
0
10
32.604553
20
36.984123
30
-1571.906
11
57.00406
21
90.22035
31
-1552.3336
12
28.635916
22
72.392876
32
-1584.196
13
28.636015
23
72.392975
33
-1584.1959
0
3DFACE
8
0
10
28.635916
20
72.392876
30
-1584.196
11
26.039497
21
106.65649
31
-1598.6077
12
-17.237785
22
69.1743
32
-1588.9952
13
-17.237686
23
69.1744
33
-1588.9951
0
3DFACE
8
0
10
-17.237785
20
69.1743
30
-1588.9952
11
26.039497
21
106.65649
31
-1598.6077
12
-16.48707
22
103.67276
32
-1603.0566
13
-16.48697
23
103.67286
33
-1603.0565
0
3DFACE
8
0
10
-17.237785
20
69.1743
30
-1588.9952
11
-16.48707
21
103.67276
31
-1603.0566
12
-53.744843
22
82.45005
32
-1563.9198
13
-53.744743
23
82.45015
33
-1563.9197
0
3DFACE
8
0
10
-53.744843
20
82.45005
30
-1563.9198
11
-16.48707
21
103.67276
31
-1603.0566
12
-50.33043
22
115.97984
32
-1579.8108
13
-50.33033
23
115.97994
33
-1579.8107
0
3DFACE
8
0
10
-53.744843
20
82.45005
30
-1563.9198
11
-50.33043
21
115.97984
31
-1579.8108
12
-59.499924
22
104.44335
32
-1523.6587
13
-59.499825
23
104.44345
33
-1523.6586
0
3DFACE
8
0
10
-59.499924
20
104.44335
30
-1523.6587
11
-50.33043
21
115.97984
31
-1579.8108
12
-55.66559
22
136.36842
32
-1542.4873
13
-55.66549
23
136.36853
33
-1542.4872
0
3DFACE
8
0
10
-59.499924
20
104.44335
30
-1523.6587
11
-55.66559
21
136.36842
31
-1542.4873
12
-31.13177
22
122.270836
32
-1491.7961
13
-31.13167
23
122.270935
33
-1491.796
0
3DFACE
8
0
10
-31.13177
20
122.270836
30
-1491.7961
11
-55.66559
21
136.36842
31
-1542.4873
12
-29.367294
22
152.89516
32
-1512.9496
13
-29.367195
23
152.89526
33
-1512.9495
0
3DFACE
8
0
10
-31.13177
20
122.270836
30
-1491.7961
11
-29.367294
21
152.89516
31
-1512.9496
12
14.741936
22
125.48941
32
-1486.9971
13
14.742036
23
125.48951
33
-1486.997
0
3DFACE
8
0
10
14.741936
20
125.48941
30
-1486.9971
11
-29.367294
21
152.89516
31
-1512.9496
12
13.159282
22
155.87888
32
-1508.5006
13
13.159382
23
155.87898
33
-1508.5005
0
3DFACE
8
0
10
14.741936
20
125.48941
30
-1486.9971
11
13.159282
21
155.87888
31
-1508.5006
12
51.248985
22
112.21367
32
-1512.0725
13
51.249084
23
112.21377
33
-1512.0724
0
3DFACE
8
0
10
51.248985
20
112.21367
30
-1512.0725
11
13.159282
21
155.87888
31
-1508.5006
12
47.002625
22
143.5718
32
-1531.7465
13
47.002724
23
143.5719
33
-1531.7463
0
3DFACE
8
0
10
51.248985
20
112.21367
30
-1512.0725
11
47.002625
21
143.5718
31
-1531.7465
12
57.00406
22
90.22035
32
-1552.3336
13
57.004158
23
90.22045
33
-1552.3335
0
3DFACE
8
0
10
57.00406
20
90.22035
30
-1552.3336
11
47.002625
21
143.5718
31
-1531.7465
12
52.33779
22
123.1832
32
-1569.0701
13
52.33789
23
123.1833
33
-1569.07
0
3DFACE
8
0
10
57.00406
20
90.22035
30
-1552.3336
11
52.33779
21
123.1832
31
-1569.0701
12
28.635916
22
72.392876
32
-1584.196
13
28.636015
23
72.392975
33
-1584.1959
0
3DFACE
8
0
10
28.635916
20
72.392876
30
-1584.196
11
52.33779
21
123.1832
31
-1569.0701
12
26.039497
22
106.65649
32
-1598.6077
13
26.039597
23
106.656586
33
-1598.6075
0
3DFACE
8
0
10
26.039497
20
106.65649
30
-1598.6077
11
24.968079
21
139.64743
31
-1615.3768
12
-16.48707
22
103.67276
32
-1603.0566
13
-16.48697
23
103.67286
33
-1603.0565
0
3DFACE
8
0
10
-16.48707
20
103.67276
30
-1603.0566
11
24.968079
21
139.64743
31
-1615.3768
12
-16.552332
22
136.7343
32
-1619.7206
13
-16.552233
23
136.7344
33
-1619.7205
0
3DFACE
8
0
10
-16.48707
20
103.67276
30
-1603.0566
11
-16.552332
21
136.7343
31
-1619.7206
12
-50.33043
22
115.97984
32
-1579.8108
13
-50.33033
23
115.97994
33
-1579.8107
0
3DFACE
8
0
10
-50.33043
20
115.97984
30
-1579.8108
11
-16.552332
21
136.7343
31
-1619.7206
12
-49.59497
22
148.75021
32
-1597.0247
13
-49.59487
23
148.75032
33
-1597.0245
0
3DFACE
8
0
10
-50.33043
20
115.97984
30
-1579.8108
11
-49.59497
21
148.75021
31
-1597.0247
12
-55.66559
22
136.36842
32
-1542.4873
13
-55.66549
23
136.36853
33
-1542.4872
0
3DFACE
8
0
10
-55.66559
20
136.36842
30
-1542.4873
11
-49.59497
21
148.75021
31
-1597.0247
12
-54.80391
22
168.6564
32
-1560.5842
13
-54.80381
23
168.65651
33
-1560.5841
0
3DFACE
8
0
10
-55.66559
20
136.36842
30
-1542.4873
11
-54.80391
21
168.6564
31
-1560.5842
12
-29.367294
22
152.89516
32
-1512.9496
13
-29.367195
23
152.89526
33
-1512.9495
0
3DFACE
8
0
10
-29.367294
20
152.89516
30
-1512.9496
11
-54.80391
21
168.6564
31
-1560.5842
12
-29.127815
22
184.79211
32
-1531.7455
13
-29.127716
23
184.79222
33
-1531.7454
0
3DFACE
8
0
10
-29.367294
20
152.89516
30
-1512.9496
11
-29.127815
21
184.79211
31
-1531.7455
12
13.159282
22
155.87888
32
-1508.5006
13
13.159382
23
155.87898
33
-1508.5005
0
3DFACE
8
0
10
13.159282
20
155.87888
30
-1508.5006
11
-29.127815
21
184.79211
31
-1531.7455
12
12.392599
22
187.70525
32
-1527.4017
13
12.392699
23
187.70535
33
-1527.4016
0
3DFACE
8
0
10
13.159282
20
155.87888
30
-1508.5006
11
12.392599
21
187.70525
31
-1527.4017
12
47.002625
22
143.5718
32
-1531.7465
13
47.002724
23
143.5719
33
-1531.7463
0
3DFACE
8
0
10
47.002625
20
143.5718
30
-1531.7465
11
12.392599
21
187.70525
31
-1527.4017
12
45.435234
22
175.68933
32
-1550.0975
13
45.435333
23
175.68944
33
-1550.0974
0
3DFACE
8
0
10
47.002625
20
143.5718
30
-1531.7465
11
45.435234
21
175.68933
31
-1550.0975
12
52.33779
22
123.1832
32
-1569.0701
13
52.33789
23
123.1833
33
-1569.07
0
3DFACE
8
0
10
52.33779
20
123.1832
30
-1569.0701
11
45.435234
21
175.68933
31
-1550.0975
12
50.644157
22
155.78313
32
-1586.5381
13
50.644257
23
155.78323
33
-1586.538
0
3DFACE
8
0
10
52.33779
20
123.1832
30
-1569.0701
11
50.644157
21
155.78313
31
-1586.5381
12
26.039497
22
106.65649
32
-1598.6077
13
26.039597
23
106.656586
33
-1598.6075
0
3DFACE
8
0
10
26.039497
20
106.65649
30
-1598.6077
11
50.644157
21
155.78313
31
-1586.5381
12
24.968079
22
139.64743
32
-1615.3768
13
24.968178
23
139.64754
33
-1615.3767
0
3DFACE
8
0
10
24.968079
20
139.64743
30
-1615.3768
11
25.467585
21
171.32738
31
-1634.5746
12
-16.552332
22
136.7343
32
-1619.7206
13
-16.552233
23
136.7344
33
-1619.7205
0
3DFACE
8
0
10
-16.552332
20
136.7343
30
-1619.7206
11
25.467585
21
171.32738
31
-1634.5746
12
-17.458143
22
168.31564
32
-1639.0654
13
-17.458044
23
168.31575
33
-1639.0653
0
3DFACE
8
0
10
-16.552332
20
136.7343
30
-1619.7206
11
-17.458143
21
168.31564
31
-1639.0654
12
-49.59497
22
148.75021
32
-1597.0247
13
-49.59487
23
148.75032
33
-1597.0245
0
3DFACE
8
0
10
-49.59497
20
148.75021
30
-1597.0247
11
-17.458143
21
168.31564
31
-1639.0654
12
-51.619156
22
180.73825
32
-1615.6013
13
-51.619057
23
180.73836
33
-1615.6012
0
3DFACE
8
0
10
-49.59497
20
148.75021
30
-1597.0247
11
-51.619156
21
180.73825
31
-1615.6013
12
-54.80391
22
168.6564
32
-1560.5842
13
-54.80381
23
168.65651
33
-1560.5841
0
3DFACE
8
0
10
-54.80391
20
168.6564
30
-1560.5842
11
-51.619156
21
180.73825
31
-1615.6013
12
-57.004402
22
201.3182
32
-1577.9275
13
-57.004303
23
201.31831
33
-1577.9274
0
3DFACE
8
0
10
-54.80391
20
168.6564
30
-1560.5842
11
-57.004402
21
201.3182
31
-1577.9275
12
-29.127815
22
184.79211
32
-1531.7455
13
-29.127716
23
184.79222
33
-1531.7454
0
3DFACE
8
0
10
-29.127815
20
184.79211
30
-1531.7455
11
-57.004402
21
201.3182
31
-1577.9275
12
-30.459265
22
218.00005
32
-1548.1125
13
-30.459166
23
218.00015
33
-1548.1124
0
3DFACE
8
0
10
-29.127815
20
184.79211
30
-1531.7455
11
-30.459265
21
218.00005
31
-1548.1125
12
12.392599
22
187.70525
32
-1527.4017
13
12.392699
23
187.70535
33
-1527.4016
0
3DFACE
8
0
10
12.392599
20
187.70525
30
-1527.4017
11
-30.459265
21
218.00005
31
-1548.1125
12
12.46647
22
221.01178
32
-1543.6218
13
12.46657
23
221.01189
33
-1543.6217
0
3DFACE
8
0
10
12.392599
20
187.70525
30
-1527.4017
11
12.46647
21
221.01178
31
-1543.6218
12
45.435234
22
175.68933
32
-1550.0975
13
45.435333
23
175.68944
33
-1550.0974
0
3DFACE
8
0
10
45.435234
20
175.68933
30
-1550.0975
11
12.46647
21
221.01178
31
-1543.6218
12
46.62748
22
208.58917
32
-1567.0858
13
46.62758
23
208.58928
33
-1567.0857
0
3DFACE
8
0
10
45.435234
20
175.68933
30
-1550.0975
11
46.62748
21
208.58917
31
-1567.0858
12
50.644157
22
155.78313
32
-1586.5381
13
50.644257
23
155.78323
33
-1586.538
0
3DFACE
8
0
10
50.644157
20
155.78313
30
-1586.5381
11
46.62748
21
208.58917
31
-1567.0858
12
52.01271
22
188.00922
32
-1604.7598
13
52.01281
23
188.00932
33
-1604.7596
0
3DFACE
8
0
10
50.644157
20
155.78313
30
-1586.5381
11
52.01271
21
188.00922
31
-1604.7598
12
24.968079
22
139.64743
32
-1615.3768
13
24.968178
23
139.64754
33
-1615.3767
0
3DFACE
8
0
10
24.968079
20
139.64743
30
-1615.3768
11
52.01271
21
188.00922
31
-1604.7598
12
25.467585
22
171.32738
32
-1634.5746
13
25.467684
23
171.32748
33
-1634.5745
0
3DFACE
8
0
10
25.467585
20
171.32738
30
-1634.5746
11
27.473867
21
201.7499
31
-1656.1018
12
-17.458143
22
168.31564
32
-1639.0654
13
-17.458044
23
168.31575
33
-1639.0653
0
3DFACE
8
0
10
-17.458143
20
168.31564
30
-1639.0654
11
27.473867
21
201.7499
31
-1656.1018
12
-19.170181
22
198.47726
32
-1660.9816
13
-19.170082
23
198.47737
33
-1660.9814
0
3DFACE
8
0
10
-17.458143
20
168.31564
30
-1639.0654
11
-19.170181
21
198.47726
31
-1660.9816
12
-51.619156
22
180.73825
32
-1615.6013
13
-51.619057
23
180.73836
33
-1615.6012
0
3DFACE
8
0
10
-51.619156
20
180.73825
30
-1615.6013
11
-19.170181
21
198.47726
31
-1660.9816
12
-56.2903
22
211.97595
32
-1635.4851
13
-56.2902
23
211.97606
33
-1635.485
0
3DFACE
8
0
10
-51.619156
20
180.73825
30
-1615.6013
11
-56.2903
21
211.97595
31
-1635.4851
12
-57.004402
22
201.3182
32
-1577.9275
13
-57.004303
23
201.31831
33
-1577.9274
0
3DFACE
8
0
10
-57.004402
20
201.3182
30
-1577.9275
11
-56.2903
21
211.97595
31
-1635.4851
12
-62.14202
22
234.33858
32
-1594.5479
13
-62.141922
23
234.33868
33
-1594.5477
0
3DFACE
8
0
10
-57.004402
20
201.3182
30
-1577.9275
11
-62.14202
21
234.33858
31
-1594.5479
12
-30.459265
22
218.00005
32
-1548.1125
13
-30.459166
23
218.00015
33
-1548.1124
0
3DFACE
8
0
10
-30.459265
20
218.00005
30
-1548.1125
11
-62.14202
21
234.33858
31
-1594.5479
12
-33.297485
22
252.46544
32
-1562.1504
13
-33.297386
23
252.46555
33
-1562.1503
0
3DFACE
8
0
10
-30.459265
20
218.00005
30
-1548.1125
11
-33.297485
21
252.46544
31
-1562.1504
12
12.46647
22
221.01178
32
-1543.6218
13
12.46657
23
221.01189
33
-1543.6217
0
3DFACE
8
0
10
12.46647
20
221.01178
30
-1543.6218
11
-33.297485
21
252.46544
31
-1562.1504
12
13.346569
22
255.73807
32
-1557.2706
13
13.346669
23
255.73817
33
-1557.2705
0
3DFACE
8
0
10
12.46647
20
221.01178
30
-1543.6218
11
13.346569
21
255.73807
31
-1557.2706
12
46.62748
22
208.58917
32
-1567.0858
13
46.62758
23
208.58928
33
-1567.0857
0
3DFACE
8
0
10
46.62748
20
208.58917
30
-1567.0858
11
13.346569
21
255.73807
31
-1557.2706
12
50.466675
22
242.23938
32
-1582.7671
13
50.466774
23
242.23949
33
-1582.767
0
3DFACE
8
0
10
46.62748
20
208.58917
30
-1567.0858
11
50.466675
21
242.23938
31
-1582.7671
12
52.01271
22
188.00922
32
-1604.7598
13
52.01281
23
188.00932
33
-1604.7596
0
3DFACE
8
0
10
52.01271
20
188.00922
30
-1604.7598
11
50.466675
21
242.23938
31
-1582.7671
12
56.318398
22
219.87674
32
-1623.7043
13
56.318497
23
219.87685
33
-1623.7042
0
3DFACE
8
0
10
52.01271
20
188.00922
30
-1604.7598
11
56.318398
21
219.87674
31
-1623.7043
12
25.467585
22
171.32738
32
-1634.5746
13
25.467684
23
171.32748
33
-1634.5745
0
3DFACE
8
0
10
25.467585
20
171.32738
30
-1634.5746
11
56.318398
21
219.87674
31
-1623.7043
12
27.473867
22
201.7499
32
-1656.1018
13
27.473967
23
201.75
33
-1656.1017
0
3DFACE
8
0
10
27.473867
20
201.7499
30
-1656.1018
11
30.817204
21
231.05661
31
-1679.6962
12
-19.170181
22
198.47726
32
-1660.9816
13
-19.170082
23
198.47737
33
-1660.9814
0
3DFACE
8
0
10
-19.170181
20
198.47726
30
-1660.9816
11
30.817204
21
231.05661
31
-1679.6962
12
-21.597633
22
227.37909
32
-1685.1797
13
-21.597534
23
227.3792
33
-1685.1796
0
3DFACE
8
0
10
-19.170181
20
198.47726
30
-1660.9816
11
-21.597633
21
227.37909
31
-1685.1797
12
-56.2903
22
211.97595
32
-1635.4851
13
-56.2902
23
211.97606
33
-1635.485
0
3DFACE
8
0
10
-56.2903
20
211.97595
30
-1635.4851
11
-21.597633
21
227.37909
31
-1685.1797
12
-63.31024
22
242.54782
32
-1656.5287
13
-63.310143
23
242.54793
33
-1656.5286
0
3DFACE
8
0
10
-56.2903
20
211.97595
30
-1635.4851
11
-63.31024
21
242.54782
31
-1656.5287
12
-62.14202
22
234.33858
32
-1594.5479
13
-62.141922
23
234.33868
33
-1594.5477
0
3DFACE
8
0
10
-62.14202
20
234.33858
30
-1594.5479
11
-63.31024
21
242.54782
31
-1656.5287
12
-69.88593
22
267.67715
32
-1610.5267
13
-69.88583
23
267.67725
33
-1610.5266
0
3DFACE
8
0
10
-62.14202
20
234.33858
30
-1594.5479
11
-69.88593
21
267.67715
31
-1610.5267
12
-33.297485
22
252.46544
32
-1562.1504
13
-33.297386
23
252.46555
33
-1562.1503
0
3DFACE
8
0
10
-33.297485
20
252.46544
30
-1562.1504
11
-69.88593
21
267.67715
31
-1610.5267
12
-37.472763
22
288.04666
32
-1574.121
13
-37.472664
23
288.04675
33
-1574.1208
0
3DFACE
8
0
10
-33.297485
20
252.46544
30
-1562.1504
11
-37.472763
21
288.04666
31
-1574.121
12
13.346569
22
255.73807
32
-1557.2706
13
13.346669
23
255.73817
33
-1557.2705
0
3DFACE
8
0
10
13.346569
20
255.73807
30
-1557.2706
11
-37.472763
21
288.04666
31
-1574.121
12
14.9420805
22
291.72418
32
-1568.6376
13
14.942181
23
291.72427
33
-1568.6375
0
3DFACE
8
0
10
13.346569
20
255.73807
30
-1557.2706
11
14.9420805
21
291.72418
31
-1568.6376
12
50.466675
22
242.23938
32
-1582.7671
13
50.466774
23
242.23949
33
-1582.767
0
3DFACE
8
0
10
50.466675
20
242.23938
30
-1582.7671
11
14.9420805
21
291.72418
31
-1568.6376
12
56.65467
22
276.55545
32
-1597.2885
13
56.65477
23
276.55554
33
-1597.2883
0
3DFACE
8
0
10
50.466675
20
242.23938
30
-1582.7671
11
56.65467
21
276.55545
31
-1597.2885
12
56.318398
22
219.87674
32
-1623.7043
13
56.318497
23
219.87685
33
-1623.7042
0
3DFACE
8
0
10
56.318398
20
219.87674
30
-1623.7043
11
56.65467
21
276.55545
31
-1597.2885
12
63.230362
22
251.4261
32
-1643.2905
13
63.23046
23
251.42621
33
-1643.2904
0
3DFACE
8
0
10
56.318398
20
219.87674
30
-1623.7043
11
63.230362
21
251.4261
31
-1643.2905
12
27.473867
22
201.7499
32
-1656.1018
13
27.473967
23
201.75
33
-1656.1017
0
3DFACE
8
0
10
27.473867
20
201.7499
30
-1656.1018
11
63.230362
21
251.4261
31
-1643.2905
12
30.817204
22
231.05661
32
-1679.6962
13
30.817303
23
231.05672
33
-1679.696
0
3DFACE
8
0
10
30.817204
20
231.05661
30
-1679.6962
11
35.23419
21
259.4673
31
-1704.9503
12
-21.597633
22
227.37909
32
-1685.1797
13
-21.597534
23
227.3792
33
-1685.1796
0
3DFACE
8
0
10
-21.597633
20
227.37909
30
-1685.1797
11
35.23419
21
259.4673
31
-1704.9503
12
-24.599558
22
255.26926
32
-1711.21
13
-24.599459
23
255.26936
33
-1711.2098
0
3DFACE
8
0
10
-21.597633
20
227.37909
30
-1685.1797
11
-24.599558
21
255.26926
31
-1711.21
12
-63.31024
22
242.54782
32
-1656.5287
13
-63.310143
23
242.54793
33
-1656.5286
0
3DFACE
8
0
10
-63.31024
20
242.54782
30
-1656.5287
11
-24.599558
21
255.26926
31
-1711.21
12
-72.216255
22
272.58502
32
-1678.5037
13
-72.216156
23
272.5851
33
-1678.5035
0
3DFACE
8
0
10
-63.31024
20
242.54782
30
-1656.5287
11
-72.216255
21
272.58502
31
-1678.5037
12
-69.88593
22
267.67715
32
-1610.5267
13
-69.88583
23
267.67725
33
-1610.5266
0
3DFACE
8
0
10
-69.88593
20
267.67715
30
-1610.5267
11
-72.216255
21
272.58502
31
-1678.5037
12
-79.72269
22
301.2712
32
-1625.9905
13
-79.72259
23
301.2713
33
-1625.9904
0
3DFACE
8
0
10
-69.88593
20
267.67715
30
-1610.5267
11
-79.72269
21
301.2712
31
-1625.9905
12
-37.472763
22
288.04666
32
-1574.121
13
-37.472664
23
288.04675
33
-1574.1208
0
3DFACE
8
0
10
-37.472763
20
288.04666
30
-1574.121
11
-79.72269
21
301.2712
31
-1625.9905
12
-42.721687
22
324.52386
32
-1584.4318
13
-42.72159
23
324.52396
33
-1584.4316
0
3DFACE
8
0
10
-37.472763
20
288.04666
30
-1574.121
11
-42.721687
21
324.52386
31
-1584.4318
12
14.9420805
22
291.72418
32
-1568.6376
13
14.942181
23
291.72427
33
-1568.6375
0
3DFACE
8
0
10
14.9420805
20
291.72418
30
-1568.6376
11
-42.721687
21
324.52386
31
-1584.4318
12
17.112066
22
328.7219
32
-1578.1722
13
17.112165
23
328.722
33
-1578.1721
0
3DFACE
8
0
10
14.9420805
20
291.72418
30
-1568.6376
11
17.112066
21
328.7219
31
-1578.1722
12
56.65467
22
276.55545
32
-1597.2885
13
56.65477
23
276.55554
33
-1597.2883
0
3DFACE
8
0
10
56.65467
20
276.55545
30
-1597.2885
11
17.112066
21
328.7219
31
-1578.1722
12
64.72875
22
311.40613
32
-1610.8784
13
64.72885
23
311.40622
33
-1610.8783
0
3DFACE
8
0
10
56.65467
20
276.55545
30
-1597.2885
11
64.72875
21
311.40613
31
-1610.8784
12
63.230362
22
251.4261
32
-1643.2905
13
63.23046
23
251.42621
33
-1643.2904
0
3DFACE
8
0
10
63.230362
20
251.4261
30
-1643.2905
11
64.72875
21
311.40613
31
-1610.8784
12
72.235176
22
282.71994
32
-1663.3917
13
72.235275
23
282.72003
33
-1663.3916
0
3DFACE
8
0
10
63.230362
20
251.4261
30
-1643.2905
11
72.235176
21
282.71994
31
-1663.3917
12
30.817204
22
231.05661
32
-1679.6962
13
30.817303
23
231.05672
33
-1679.696
0
3DFACE
8
0
10
30.817204
20
231.05661
30
-1679.6962
11
72.235176
21
282.71994
31
-1663.3917
12
35.23419
22
259.4673
32
-1704.9503
13
35.23429
23
259.46738
33
-1704.9502
0
3DFACE
8
0
10
35.23419
20
259.4673
30
-1704.9503
11
40.386192
21
287.26462
31
-1731.3408
12
-24.599558
22
255.26926
32
-1711.21
13
-24.599459
23
255.26936
33
-1711.2098
0
3DFACE
8
0
10
-24.599558
20
255.26926
30
-1711.21
11
40.386192
21
287.26462
31
-1731.3408
12
-27.994762
22
282.46692
32
-1738.4946
13
-27.994663
23
282.467
33
-1738.4945
0
3DFACE
8
0
10
-24.599558
20
255.26926
30
-1711.21
11
-27.994762
21
282.46692
31
-1738.4946
12
-72.216255
22
272.58502
32
-1678.5037
13
-72.216156
23
272.5851
33
-1678.5035
0
3DFACE
8
0
10
-72.216255
20
272.58502
30
-1678.5037
11
-27.994762
21
282.46692
31
-1738.4946
12
-82.413475
22
302.2562
32
-1701.1163
13
-82.413376
23
302.2563
33
-1701.1162
0
3DFACE
8
0
10
-72.216255
20
272.58502
30
-1678.5037
11
-82.413475
21
302.2562
31
-1701.1163
12
-79.72269
22
301.2712
32
-1625.9905
13
-79.72259
23
301.2713
33
-1625.9904
0
3DFACE
8
0
10
-79.72269
20
301.2712
30
-1625.9905
11
-82.413475
21
302.2562
31
-1701.1163
12
-90.992195
22
335.0402
32
-1641.1016
13
-90.992096
23
335.04028
33
-1641.1014
0
3DFACE
8
0
10
-79.72269
20
301.2712
30
-1625.9905
11
-90.992195
21
335.0402
31
-1641.1016
12
-42.721687
22
324.52386
32
-1584.4318
13
-42.72159
23
324.52396
33
-1584.4316
0
3DFACE
8
0
10
-42.721687
20
324.52386
30
-1584.4318
11
-90.992195
21
335.0402
31
-1641.1016
12
-48.705627
22
361.61447
32
-1593.6063
13
-48.70553
23
361.61456
33
-1593.6062
0
3DFACE
8
0
10
-42.721687
20
324.52386
30
-1584.4318
11
-48.705627
21
361.61447
31
-1593.6063
12
17.112066
22
328.7219
32
-1578.1722
13
17.112165
23
328.722
33
-1578.1721
0
3DFACE
8
0
10
17.112066
20
328.7219
30
-1578.1722
11
-48.705627
21
361.61447
31
-1593.6063
12
19.675331
22
366.41217
32
-1586.4525
13
19.67543
23
366.41226
33
-1586.4524
0
3DFACE
8
0
10
17.112066
20
328.7219
30
-1578.1722
11
19.675331
21
366.41217
31
-1586.4525
12
64.72875
22
311.40613
32
-1610.8784
13
64.72885
23
311.40622
33
-1610.8783
0
3DFACE
8
0
10
64.72875
20
311.40613
30
-1610.8784
11
19.675331
21
366.41217
31
-1586.4525
12
74.09403
22
346.6229
32
-1623.8308
13
74.09413
23
346.623
33
-1623.8307
0
3DFACE
8
0
10
64.72875
20
311.40613
30
-1610.8784
11
74.09403
21
346.6229
31
-1623.8308
12
72.235176
22
282.71994
32
-1663.3917
13
72.235275
23
282.72003
33
-1663.3916
0
3DFACE
8
0
10
72.235176
20
282.71994
30
-1663.3917
11
74.09403
21
346.6229
31
-1623.8308
12
82.672745
22
313.8389
32
-1683.8456
13
82.672844
23
313.839
33
-1683.8455
0
3DFACE
8
0
10
72.235176
20
282.71994
30
-1663.3917
11
82.672745
21
313.8389
31
-1683.8456
12
35.23419
22
259.4673
32
-1704.9503
13
35.23429
23
259.46738
33
-1704.9502
0
3DFACE
8
0
10
35.23419
20
259.4673
30
-1704.9503
11
82.672745
21
313.8389
31
-1683.8456
12
40.386192
22
287.26462
32
-1731.3408
13
40.38629
23
287.2647
33
-1731.3407
0
3DFACE
8
0
10
40.386192
20
287.26462
30
-1731.3408
11
45.883064
21
314.7741
31
-1758.2644
12
-27.994762
22
282.46692
32
-1738.4946
13
-27.994663
23
282.467
33
-1738.4945
0
3DFACE
8
0
10
-27.994762
20
282.46692
30
-1738.4946
11
45.883064
21
314.7741
31
-1758.2644
12
-31.574505
22
309.33957
32
-1766.3678
13
-31.574406
23
309.33966
33
-1766.3677
0
3DFACE
8
0
10
-27.994762
20
282.46692
30
-1738.4946
11
-31.574505
21
309.33957
31
-1766.3678
12
-82.413475
22
302.2562
32
-1701.1163
13
-82.413376
23
302.2563
33
-1701.1162
0
3DFACE
8
0
10
-82.413475
20
302.2562
30
-1701.1163
11
-31.574505
21
309.33957
31
-1766.3678
12
-93.21653
22
331.7556
32
-1724.0281
13
-93.21643
23
331.7557
33
-1724.028
0
3DFACE
8
0
10
-82.413475
20
302.2562
30
-1701.1163
11
-93.21653
21
331.7556
31
-1724.0281
12
-90.992195
22
335.0402
32
-1641.1016
13
-90.992096
23
335.04028
33
-1641.1014
0
3DFACE
8
0
10
-90.992195
20
335.0402
30
-1641.1016
11
-93.21653
21
331.7556
31
-1724.0281
12
-102.93396
22
368.8912
32
-1656.0472
13
-102.93386
23
368.8913
33
-1656.0471
0
3DFACE
8
0
10
-90.992195
20
335.0402
30
-1641.1016
11
-102.93396
21
368.8912
31
-1656.0472
12
-48.705627
22
361.61447
32
-1593.6063
13
-48.70553
23
361.61456
33
-1593.6062
0
3DFACE
8
0
10
-48.705627
20
361.61447
30
-1593.6063
11
-102.93396
21
368.8912
31
-1656.0472
12
-55.03444
22
398.99286
32
-1602.2476
13
-55.03434
23
398.99295
33
-1602.2474
0
3DFACE
8
0
10
-48.705627
20
361.61447
30
-1593.6063
11
-55.03444
21
398.99286
31
-1602.2476
12
19.675331
22
366.41217
32
-1586.4525
13
19.67543
23
366.41226
33
-1586.4524
0
3DFACE
8
0
10
19.675331
20
366.41217
30
-1586.4525
11
-55.03444
21
398.99286
31
-1602.2476
12
22.42313
22
404.4274
32
-1594.1443
13
22.42323
23
404.4275
33
-1594.1442
0
3DFACE
8
0
10
19.675331
20
366.41217
30
-1586.4525
11
22.42313
21
404.4274
31
-1594.1443
12
74.09403
22
346.6229
32
-1623.8308
13
74.09413
23
346.623
33
-1623.8307
0
3DFACE
8
0
10
74.09403
20
346.6229
30
-1623.8308
11
22.42313
21
404.4274
31
-1594.1443
12
84.06515
22
382.01135
32
-1636.484
13
84.06525
23
382.01144
33
-1636.4839
0
3DFACE
8
0
10
74.09403
20
346.6229
30
-1623.8308
11
84.06515
21
382.01135
31
-1636.484
12
82.672745
22
313.8389
32
-1683.8456
13
82.672844
23
313.839
33
-1683.8455
0
3DFACE
8
0
10
82.672745
20
313.8389
30
-1683.8456
11
84.06515
21
382.01135
31
-1636.484
12
93.78257
22
344.87573
32
-1704.4648
13
93.78267
23
344.87582
33
-1704.4647
0
3DFACE
8
0
10
82.672745
20
313.8389
30
-1683.8456
11
93.78257
21
344.87573
31
-1704.4648
12
40.386192
22
287.26462
32
-1731.3408
13
40.38629
23
287.2647
33
-1731.3407
0
3DFACE
8
0
10
40.386192
20
287.26462
30
-1731.3408
11
93.78257
21
344.87573
31
-1704.4648
12
45.883064
22
314.7741
32
-1758.2644
13
45.883163
23
314.7742
33
-1758.2643
0
3DFACE
8
0
10
45.883064
20
314.7741
30
-1758.2644
11
51.310516
21
342.34152
31
-1785.0808
12
-31.574505
22
309.33957
32
-1766.3678
13
-31.574406
23
309.33966
33
-1766.3677
0
3DFACE
8
0
10
-31.574505
20
309.33957
30
-1766.3678
11
51.310516
21
342.34152
31
-1785.0808
12
-35.117096
22
336.27765
32
-1794.1226
13
-35.116997
23
336.27774
33
-1794.1224
0
3DFACE
8
0
10
-31.574505
20
309.33957
30
-1766.3678
11
-35.117096
21
336.27765
31
-1794.1226
12
-93.21653
22
331.7556
32
-1724.0281
13
-93.21643
23
331.7557
33
-1724.028
0
3DFACE
8
0
10
-93.21653
20
331.7556
30
-1724.0281
11
-35.117096
21
336.27765
31
-1794.1226
12
-103.89764
22
361.28958
32
-1746.8796
13
-103.89754
23
361.28967
33
-1746.8795
0
3DFACE
8
0
10
-93.21653
20
331.7556
30
-1724.0281
11
-103.89764
21
361.28958
31
-1746.8796
12
-102.93396
22
368.8912
32
-1656.0472
13
-102.93386
23
368.8913
33
-1656.0471
0
3DFACE
8
0
10
-102.93396
20
368.8912
30
-1656.0472
11
-103.89764
21
361.28958
31
-1746.8796
12
-114.7404
22
402.7257
32
-1671.0262
13
-114.7403
23
402.7258
33
-1671.0261
0
3DFACE
8
0
10
-102.93396
20
368.8912
30
-1656.0472
11
-114.7404
21
402.7257
31
-1671.0262
12
-55.03444
22
398.99286
32
-1602.2476
13
-55.03434
23
398.99295
33
-1602.2474
0
3DFACE
8
0
10
-55.03444
20
398.99286
30
-1602.2476
11
-114.7404
21
402.7257
31
-1671.0262
12
-61.29384
22
436.31332
32
-1610.9962
13
-61.29374
23
436.31342
33
-1610.9961
0
3DFACE
8
0
10
-55.03444
20
398.99286
30
-1602.2476
11
-61.29384
21
436.31332
31
-1610.9962
12
22.42313
22
404.4274
32
-1594.1443
13
22.42323
23
404.4275
33
-1594.1442
0
3DFACE
8
0
10
22.42313
20
404.4274
30
-1594.1443
11
-61.29384
21
436.31332
31
-1610.9962
12
25.133785
22
442.3772
32
-1601.9545
13
25.133884
23
442.3773
33
-1601.9543
0
3DFACE
8
0
10
22.42313
20
404.4274
30
-1594.1443
11
25.133785
21
442.3772
31
-1601.9545
12
84.06515
22
382.01135
32
-1636.484
13
84.06525
23
382.01144
33
-1636.4839
0
3DFACE
8
0
10
84.06515
20
382.01135
30
-1636.484
11
25.133785
21
442.3772
31
-1601.9545
12
93.914314
22
417.36526
32
-1649.1974
13
93.91441
23
417.36536
33
-1649.1973
0
3DFACE
8
0
10
84.06515
20
382.01135
30
-1636.484
11
93.914314
21
417.36526
31
-1649.1974
12
93.78257
22
344.87573
32
-1704.4648
13
93.78267
23
344.87582
33
-1704.4647
0
3DFACE
8
0
10
93.78257
20
344.87573
30
-1704.4648
11
93.914314
21
417.36526
31
-1649.1974
12
104.757065
22
375.9291
32
-1725.0509
13
104.757164
23
375.9292
33
-1725.0508
0
3DFACE
8
0
10
93.78257
20
344.87573
30
-1704.4648
11
104.757065
21
375.9291
31
-1725.0509
12
45.883064
22
314.7741
32
-1758.2644
13
45.883163
23
314.7742
33
-1758.2643
0
3DFACE
8
0
10
45.883064
20
314.7741
30
-1758.2644
11
104.757065
21
375.9291
31
-1725.0509
12
51.310516
22
342.34152
32
-1785.0808
13
51.310616
23
342.3416
33
-1785.0807
0
3DFACE
8
0
10
51.310516
20
342.34152
30
-1785.0808
11
56.2591
21
370.30862
31
-1811.1567
12
-35.117096
22
336.27765
32
-1794.1226
13
-35.116997
23
336.27774
33
-1794.1224
0
3DFACE
8
0
10
-35.117096
20
336.27765
30
-1794.1226
11
56.2591
21
370.30862
31
-1811.1567
12
-38.403465
22
363.66693
32
-1821.06
13
-38.403366
23
363.66702
33
-1821.0599
0
3DFACE
8
0
10
-35.117096
20
336.27765
30
-1794.1226
11
-38.403465
21
363.66693
31
-1821.06
12
-103.89764
22
361.28958
32
-1746.8796
13
-103.89754
23
361.28967
33
-1746.8795
0
3DFACE
8
0
10
-103.89764
20
361.28958
30
-1746.8796
11
-38.403465
21
363.66693
31
-1821.06
12
-113.73752
22
391.06207
32
-1769.3158
13
-113.73742
23
391.06216
33
-1769.3157
0
3DFACE
8
0
10
-103.89764
20
361.28958
30
-1746.8796
11
-113.73752
21
391.06207
31
-1769.3158
12
-114.7404
22
402.7257
32
-1671.0262
13
-114.7403
23
402.7258
33
-1671.0261
0
3DFACE
8
0
10
-114.7404
20
402.7257
30
-1671.0262
11
-113.73752
21
391.06207
31
-1769.3158
12
-125.613396
22
436.4463
32
-1686.235
13
-125.6133
23
436.44638
33
-1686.2349
0
3DFACE
8
0
10
-114.7404
20
402.7257
30
-1671.0262
11
-125.613396
21
436.4463
31
-1686.235
12
-61.29384
22
436.31332
32
-1610.9962
13
-61.29374
23
436.31342
33
-1610.9961
0
3DFACE
8
0
10
-61.29384
20
436.31332
30
-1610.9962
11
-125.613396
21
436.4463
31
-1686.235
12
-67.07436
22
473.23416
32
-1620.4852
13
-67.074265
23
473.23425
33
-1620.4851
0
3DFACE
8
0
10
-61.29384
20
436.31332
30
-1610.9962
11
-67.07436
21
473.23416
31
-1620.4852
12
25.133785
22
442.3772
32
-1601.9545
13
25.133884
23
442.3773
33
-1601.9543
0
3DFACE
8
0
10
25.133785
20
442.3772
30
-1601.9545
11
-67.07436
21
473.23416
31
-1620.4852
12
27.58821
22
479.87585
32
-1610.582
13
27.588308
23
479.87595
33
-1610.5819
0
3DFACE
8
0
10
25.133785
20
442.3772
30
-1601.9545
11
27.58821
21
479.87585
31
-1610.582
12
93.914314
22
417.36526
32
-1649.1974
13
93.91441
23
417.36536
33
-1649.1973
0
3DFACE
8
0
10
93.914314
20
417.36526
30
-1649.1974
11
27.58821
21
479.87585
31
-1610.582
12
102.92226
22
452.4807
32
-1662.3263
13
102.922356
23
452.4808
33
-1662.3262
0
3DFACE
8
0
10
93.914314
20
417.36526
30
-1649.1974
11
102.92226
21
452.4807
31
-1662.3263
12
104.757065
22
375.9291
32
-1725.0509
13
104.757164
23
375.9292
33
-1725.0508
0
3DFACE
8
0
10
104.757065
20
375.9291
30
-1725.0509
11
102.92226
21
452.4807
31
-1662.3263
12
114.79812
22
407.09647
32
-1745.4071
13
114.79822
23
407.09656
33
-1745.407
0
3DFACE
8
0
10
104.757065
20
375.9291
30
-1725.0509
11
114.79812
21
407.09647
31
-1745.4071
12
51.310516
22
342.34152
32
-1785.0808
13
51.310616
23
342.3416
33
-1785.0807
0
3DFACE
8
0
10
51.310516
20
342.34152
30
-1785.0808
11
114.79812
21
407.09647
31
-1745.4071
12
56.2591
22
370.30862
32
-1811.1567
13
56.2592
23
370.30872
33
-1811.1566
0
3DFACE
8
0
10
56.2591
20
370.30862
30
-1811.1567
11
60.35295
21
398.98898
31
-1835.9114
12
-38.403465
22
363.66693
32
-1821.06
13
-38.403366
23
363.66702
33
-1821.0599
0
3DFACE
8
0
10
-38.403465
20
363.66693
30
-1821.06
11
60.35295
21
398.98898
31
-1835.9114
12
-41.23249
22
391.86157
32
-1846.539
13
-41.23239
23
391.86166
33
-1846.5388
0
3DFACE
8
0
10
-38.403465
20
363.66693
30
-1821.06
11
-41.23249
21
391.86157
31
-1846.539
12
-113.73752
22
391.06207
32
-1769.3158
13
-113.73742
23
391.06216
33
-1769.3157
0
3DFACE
8
0
10
-113.73752
20
391.06207
30
-1769.3158
11
-41.23249
21
391.86157
31
-1846.539
12
-122.07588
22
421.26016
32
-1791.0105
13
-122.07578
23
421.26025
33
-1791.0104
0
3DFACE
8
0
10
-113.73752
20
391.06207
30
-1769.3158
11
-122.07588
21
421.26016
31
-1791.0105
12
-125.613396
22
436.4463
32
-1686.235
13
-125.6133
23
436.44638
33
-1686.2349
0
3DFACE
8
0
10
-125.613396
20
436.4463
30
-1686.235
11
-122.07588
21
421.26016
31
-1791.0105
12
-134.82028
22
469.96344
32
-1701.8538
13
-134.82018
23
469.96353
33
-1701.8536
0
3DFACE
8
0
10
-125.613396
20
436.4463
30
-1686.235
11
-134.82028
21
469.96344
31
-1701.8538
12
-67.07436
22
473.23416
32
-1620.4852
13
-67.074265
23
473.23425
33
-1620.4851
0
3DFACE
8
0
10
-67.07436
20
473.23416
30
-1620.4852
11
-134.82028
21
469.96344
31
-1701.8538
12
-72.00015
22
509.44168
32
-1631.2957
13
-72.00005
23
509.44177
33
-1631.2955
0
3DFACE
8
0
10
-67.07436
20
473.23416
30
-1620.4852
11
-72.00015
21
509.44168
31
-1631.2957
12
27.58821
22
479.87585
32
-1610.582
13
27.588308
23
479.87595
33
-1610.5819
0
3DFACE
8
0
10
27.58821
20
479.87585
30
-1610.582
11
-72.00015
21
509.44168
31
-1631.2957
12
29.585299
22
516.5691
32
-1620.6681
13
29.585398
23
516.5692
33
-1620.668
0
3DFACE
8
0
10
27.58821
20
479.87585
30
-1610.582
11
29.585299
21
516.5691
31
-1620.6681
12
102.92226
22
452.4807
32
-1662.3263
13
102.922356
23
452.4808
33
-1662.3262
0
3DFACE
8
0
10
102.92226
20
452.4807
30
-1662.3263
11
29.585299
21
516.5691
31
-1620.6681
12
110.42868
22
487.1705
32
-1676.1965
13
110.42878
23
487.1706
33
-1676.1964
0
3DFACE
8
0
10
102.92226
20
452.4807
30
-1662.3263
11
110.42868
21
487.1705
31
-1676.1965
12
114.79812
22
407.09647
32
-1745.4071
13
114.79822
23
407.09656
33
-1745.407
0
3DFACE
8
0
10
114.79812
20
407.09647
30
-1745.4071
11
110.42868
21
487.1705
31
-1676.1965
12
123.173035
22
438.4672
32
-1765.3533
13
123.173134
23
438.4673
33
-1765.3531
0
3DFACE
8
0
10
114.79812
20
407.09647
30
-1745.4071
11
123.173035
21
438.4672
31
-1765.3533
12
56.2591
22
370.30862
32
-1811.1567
13
56.2592
23
370.30872
33
-1811.1566
0
3DFACE
8
0
10
56.2591
20
370.30862
30
-1811.1567
11
123.173035
21
438.4672
31
-1765.3533
12
60.35295
22
398.98898
32
-1835.9114
13
60.35305
23
398.98907
33
-1835.9113
0
3DFACE
8
0
10
60.35295
20
398.98898
30
-1835.9114
11
63.276054
21
428.6464
31
-1858.856
12
-41.23249
22
391.86157
32
-1846.539
13
-41.23239
23
391.86166
33
-1846.5388
0
3DFACE
8
0
10
-41.23249
20
391.86157
30
-1846.539
11
63.276054
21
428.6464
31
-1858.856
12
-43.435097
22
421.15936
32
-1870.0198
13
-43.434998
23
421.15945
33
-1870.0197
0
3DFACE
8
0
10
-41.23249
20
391.86157
30
-1846.539
11
-43.435097
21
421.15936
31
-1870.0198
12
-122.07588
22
421.26016
32
-1791.0105
13
-122.07578
23
421.26025
33
-1791.0104
0
3DFACE
8
0
10
-122.07588
20
421.26016
30
-1791.0105
11
-43.435097
21
421.15936
31
-1870.0198
12
-128.3576
22
452.04132
32
-1811.6895
13
-128.3575
23
452.0414
33
-1811.6893
0
3DFACE
8
0
10
-122.07588
20
421.26016
30
-1791.0105
11
-128.3576
21
452.04132
31
-1811.6895
12
-134.82028
22
469.96344
32
-1701.8538
13
-134.82018
23
469.96353
33
-1701.8536
0
3DFACE
8
0
10
-134.82028
20
469.96344
30
-1701.8538
11
-128.3576
21
452.04132
31
-1811.6895
12
-141.74504
22
503.20203
32
-1718.0342
13
-141.74493
23
503.20212
33
-1718.034
0
3DFACE
8
0
10
-134.82028
20
469.96344
30
-1701.8538
11
-141.74504
21
503.20203
31
-1718.0342
12
-72.00015
22
509.44168
32
-1631.2957
13
-72.00005
23
509.44177
33
-1631.2955
0
3DFACE
8
0
10
-72.00015
20
509.44168
30
-1631.2957
11
-141.74504
21
503.20203
31
-1718.0342
12
-75.7552
22
544.67224
32
-1643.9159
13
-75.755104
23
544.67236
33
-1643.9158
0
3DFACE
8
0
10
-72.00015
20
509.44168
30
-1631.2957
11
-75.7552
21
544.67224
31
-1643.9159
12
29.585299
22
516.5691
32
-1620.6681
13
29.585398
23
516.5692
33
-1620.668
0
3DFACE
8
0
10
29.585299
20
516.5691
30
-1620.6681
11
-75.7552
21
544.67224
31
-1643.9159
12
30.955961
22
552.15924
32
-1632.7522
13
30.95606
23
552.15936
33
-1632.7521
0
3DFACE
8
0
10
29.585299
20
516.5691
30
-1620.6681
11
30.955961
21
552.15924
31
-1632.7522
12
110.42868
22
487.1705
32
-1676.1965
13
110.42878
23
487.1706
33
-1676.1964
0
3DFACE
8
0
10
110.42868
20
487.1705
30
-1676.1965
11
30.955961
21
552.15924
31
-1632.7522
12
115.878456
22
521.2773
32
-1691.0825
13
115.878555
23
521.2774
33
-1691.0824
0
3DFACE
8
0
10
110.42868
20
487.1705
30
-1676.1965
11
115.878456
21
521.2773
31
-1691.0825
12
123.173035
22
438.4672
32
-1765.3533
13
123.173134
23
438.4673
33
-1765.3531
0
3DFACE
8
0
10
123.173035
20
438.4672
30
-1765.3533
11
115.878456
21
521.2773
31
-1691.0825
12
129.26587
22
470.11655
32
-1784.7378
13
129.26598
23
470.11664
33
-1784.7377
0
3DFACE
8
0
10
123.173035
20
438.4672
30
-1765.3533
11
129.26587
21
470.11655
31
-1784.7378
12
60.35295
22
398.98898
32
-1835.9114
13
60.35305
23
398.98907
33
-1835.9113
0
3DFACE
8
0
10
60.35295
20
398.98898
30
-1835.9114
11
129.26587
21
470.11655
31
-1784.7378
12
63.276054
22
428.6464
32
-1858.856
13
63.276154
23
428.64648
33
-1858.8558
0
3DFACE
8
0
10
63.276054
20
428.6464
30
-1858.856
11
64.794464
21
459.47604
31
-1879.629
12
-43.435097
22
421.15936
32
-1870.0198
13
-43.434998
23
421.15945
33
-1870.0197
0
3DFACE
8
0
10
-43.435097
20
421.15936
30
-1870.0198
11
64.794464
21
459.47604
31
-1879.629
12
-44.886086
22
451.7807
32
-1891.1035
13
-44.885986
23
451.7808
33
-1891.1034
0
3DFACE
8
0
10
-43.435097
20
421.15936
30
-1870.0198
11
-44.886086
21
451.7807
31
-1891.1035
12
-128.3576
22
452.04132
32
-1811.6895
13
-128.3575
23
452.0414
33
-1811.6893
0
3DFACE
8
0
10
-128.3576
20
452.04132
30
-1811.6895
11
-44.886086
21
451.7807
31
-1891.1035
12
-132.1717
22
483.522
32
-1831.15
13
-132.1716
23
483.5221
33
-1831.1499
0
3DFACE
8
0
10
-128.3576
20
452.04132
30
-1811.6895
11
-132.1717
21
483.522
31
-1831.15
12
-141.74504
22
503.20203
32
-1718.0342
13
-141.74493
23
503.20212
33
-1718.034
0
3DFACE
8
0
10
-141.74504
20
503.20203
30
-1718.0342
11
-132.1717
21
483.522
31
-1831.15
12
-145.93167
22
536.1063
32
-1734.8887
13
-145.93156
23
536.10645
33
-1734.8885
0
3DFACE
8
0
10
-141.74504
20
503.20203
30
-1718.0342
11
-145.93167
21
536.1063
31
-1734.8887
12
-75.7552
22
544.67224
32
-1643.9159
13
-75.755104
23
544.67236
33
-1643.9158
0
3DFACE
8
0
10
-75.7552
20
544.67224
30
-1643.9159
11
-145.93167
21
536.1063
31
-1734.8887
12
-78.10555
22
578.73047
32
-1658.7079
13
-78.10545
23
578.7306
33
-1658.7078
0
3DFACE
8
0
10
-75.7552
20
544.67224
30
-1643.9159
11
-78.10555
21
578.73047
31
-1658.7079
12
30.955961
22
552.15924
32
-1632.7522
13
30.95606
23
552.15936
33
-1632.7521
0
3DFACE
8
0
10
30.955961
20
552.15924
30
-1632.7522
11
-78.10555
21
578.73047
31
-1658.7079
12
31.575005
22
586.42584
32
-1647.2335
13
31.575104
23
586.42596
33
-1647.2334
0
3DFACE
8
0
10
30.955961
20
552.15924
30
-1632.7522
11
31.575005
21
586.42584
31
-1647.2335
12
115.878456
22
521.2773
32
-1691.0825
13
115.878555
23
521.2774
33
-1691.0824
0
3DFACE
8
0
10
115.878456
20
521.2773
30
-1691.0825
11
31.575005
21
586.42584
31
-1647.2335
12
118.86061
22
554.6846
32
-1707.1869
13
118.86071
23
554.6847
33
-1707.1868
0
3DFACE
8
0
10
115.878456
20
521.2773
30
-1691.0825
11
118.86061
21
554.6846
31
-1707.1869
12
129.26587
22
470.11655
32
-1784.7378
13
129.26598
23
470.11664
33
-1784.7377
0
3DFACE
8
0
10
129.26587
20
470.11655
30
-1784.7378
11
118.86061
21
554.6846
31
-1707.1869
12
132.62056
22
502.1002
32
-1803.4484
13
132.62067
23
502.10028
33
-1803.4482
0
3DFACE
8
0
10
129.26587
20
470.11655
30
-1784.7378
11
132.62056
21
502.1002
31
-1803.4484
12
63.276054
22
428.6464
32
-1858.856
13
63.276154
23
428.64648
33
-1858.8558
0
3DFACE
8
0
10
63.276054
20
428.6464
30
-1858.856
11
132.62056
21
502.1002
31
-1803.4484
12
64.794464
22
459.47604
32
-1879.629
13
64.79456
23
459.47614
33
-1879.6289
0
3DFACE
8
0
10
64.794464
20
459.47604
30
-1879.629
11
64.77264
21
491.59103
31
-1898.0209
12
-44.886086
22
451.7807
32
-1891.1035
13
-44.885986
23
451.7808
33
-1891.1034
0
3DFACE
8
0
10
-44.886086
20
451.7807
30
-1891.1035
11
64.77264
21
491.59103
31
-1898.0209
12
-45.512947
22
483.85324
32
-1909.5586
13
-45.512848
23
483.85333
33
-1909.5585
0
3DFACE
8
0
10
-44.886086
20
451.7807
30
-1891.1035
11
-45.512947
21
483.85324
31
-1909.5586
12
-132.1717
22
483.522
32
-1831.15
13
-132.1716
23
483.5221
33
-1831.1499
0
3DFACE
8
0
10
-132.1717
20
483.522
30
-1831.15
11
-45.512947
21
483.85324
31
-1909.5586
12
-133.28004
22
515.76965
32
-1849.2744
13
-133.27994
23
515.7698
33
-1849.2743
0
3DFACE
8
0
10
-132.1717
20
483.522
30
-1831.15
11
-133.28004
21
515.76965
31
-1849.2744
12
-145.93167
22
536.1063
32
-1734.8887
13
-145.93156
23
536.10645
33
-1734.8885
0
3DFACE
8
0
10
-145.93167
20
536.1063
30
-1734.8887
11
-133.28004
21
515.76965
31
-1849.2744
12
-147.11592
22
568.64404
32
-1752.482
13
-147.11581
23
568.64417
33
-1752.4819
0
3DFACE
8
0
10
-145.93167
20
536.1063
30
-1734.8887
11
-147.11592
21
568.64404
31
-1752.482
12
-78.10555
22
578.73047
32
-1658.7079
13
-78.10545
23
578.7306
33
-1658.7078
0
3DFACE
8
0
10
-78.10555
20
578.73047
30
-1658.7079
11
-147.11592
21
568.64404
31
-1752.482
12
-78.915665
22
611.5033
32
-1675.8811
13
-78.915565
23
611.5034
33
-1675.881
0
3DFACE
8
0
10
-78.10555
20
578.73047
30
-1658.7079
11
-78.915665
21
611.5033
31
-1675.8811
12
31.575005
22
586.42584
32
-1647.2335
13
31.575104
23
586.42596
33
-1647.2334
0
3DFACE
8
0
10
31.575005
20
586.42584
30
-1647.2335
11
-78.915665
21
611.5033
31
-1675.8811
12
31.369934
22
619.2411
32
-1664.3434
13
31.370033
23
619.2412
33
-1664.3433
0
3DFACE
8
0
10
31.575005
20
586.42584
30
-1647.2335
11
31.369934
21
619.2411
31
-1664.3434
12
118.86061
22
554.6846
32
-1707.1869
13
118.86071
23
554.6847
33
-1707.1868
0
3DFACE
8
0
10
118.86061
20
554.6846
30
-1707.1869
11
31.369934
21
619.2411
31
-1664.3434
12
119.13702
22
587.3247
32
-1724.6276
13
119.137115
23
587.3248
33
-1724.6274
0
3DFACE
8
0
10
118.86061
20
554.6846
30
-1707.1869
11
119.13702
21
587.3247
31
-1724.6276
12
132.62056
22
502.1002
32
-1803.4484
13
132.62067
23
502.10028
33
-1803.4482
0
3DFACE
8
0
10
132.62056
20
502.1002
30
-1803.4484
11
119.13702
21
587.3247
31
-1724.6276
12
132.97287
22
534.4503
32
-1821.4199
13
132.97298
23
534.45044
33
-1821.4198
0
3DFACE
8
0
10
132.62056
20
502.1002
30
-1803.4484
11
132.97287
21
534.4503
31
-1821.4199
12
64.794464
22
459.47604
32
-1879.629
13
64.79456
23
459.47614
33
-1879.6289
0
3DFACE
8
0
10
64.794464
20
459.47604
30
-1879.629
11
132.97287
21
534.4503
31
-1821.4199
12
64.77264
22
491.59103
32
-1898.0209
13
64.772736
23
491.59113
33
-1898.0208
0
3DFACE
8
0
10
64.77264
20
491.59103
30
-1898.0209
11
63.182945
21
525.0145
31
-1913.9888
12
-45.512947
22
483.85324
32
-1909.5586
13
-45.512848
23
483.85333
33
-1909.5585
0
3DFACE
8
0
10
-45.512947
20
483.85324
30
-1909.5586
11
63.182945
21
525.0145
31
-1913.9888
12
-45.300896
22
517.40314
32
-1925.338
13
-45.300797
23
517.40326
33
-1925.3379
0
3DFACE
8
0
10
-45.512947
20
483.85324
30
-1909.5586
11
-45.300896
21
517.40314
31
-1925.338
12
-133.28004
22
515.76965
32
-1849.2744
13
-133.27994
23
515.7698
33
-1849.2743
0
3DFACE
8
0
10
-133.28004
20
515.76965
30
-1849.2744
11
-45.300896
21
517.40314
31
-1925.338
12
-131.63416
22
548.7981
32
-1866.0387
13
-131.63405
23
548.7982
33
-1866.0386
0
3DFACE
8
0
10
-133.28004
20
515.76965
30
-1849.2744
11
-131.63416
21
548.7981
31
-1866.0387
12
-147.11592
22
568.64404
32
-1752.482
13
-147.11581
23
568.64417
33
-1752.4819
0
3DFACE
8
0
10
-147.11592
20
568.64404
30
-1752.482
11
-131.63416
21
548.7981
31
-1866.0387
12
-145.24399
22
600.80865
32
-1770.8276
13
-145.24388
23
600.8088
33
-1770.8275
0
3DFACE
8
0
10
-147.11592
20
568.64404
30
-1752.482
11
-145.24399
21
600.80865
31
-1770.8276
12
-78.915665
22
611.5033
32
-1675.8811
13
-78.915565
23
611.5034
33
-1675.881
0
3DFACE
8
0
10
-78.915665
20
611.5033
30
-1675.8811
11
-145.24399
21
600.80865
31
-1770.8276
12
-78.15791
22
642.9678
32
-1695.4781
13
-78.157814
23
642.9679
33
-1695.478
0
3DFACE
8
0
10
-78.915665
20
611.5033
30
-1675.8811
11
-78.15791
21
642.9678
31
-1695.4781
12
31.369934
22
619.2411
32
-1664.3434
13
31.370033
23
619.2412
33
-1664.3433
0
3DFACE
8
0
10
31.369934
20
619.2411
30
-1664.3434
11
-78.15791
21
642.9678
31
-1695.4781
12
30.325941
22
650.57916
32
-1684.1289
13
30.32604
23
650.5793
33
-1684.1288
0
3DFACE
8
0
10
31.369934
20
619.2411
30
-1664.3434
11
30.325941
21
650.57916
31
-1684.1289
12
119.13702
22
587.3247
32
-1724.6276
13
119.137115
23
587.3248
33
-1724.6274
0
3DFACE
8
0
10
119.13702
20
587.3247
30
-1724.6276
11
30.325941
21
650.57916
31
-1684.1289
12
116.65919
22
619.1842
32
-1743.4282
13
116.65929
23
619.1843
33
-1743.4281
0
3DFACE
8
0
10
119.13702
20
587.3247
30
-1724.6276
11
116.65919
21
619.1842
31
-1743.4282
12
132.97287
22
534.4503
32
-1821.4199
13
132.97298
23
534.45044
33
-1821.4198
0
3DFACE
8
0
10
132.97287
20
534.4503
30
-1821.4199
11
116.65919
21
619.1842
31
-1743.4282
12
130.269
22
567.1736
32
-1838.6393
13
130.2691
23
567.1737
33
-1838.6392
0
3DFACE
8
0
10
132.97287
20
534.4503
30
-1821.4199
11
130.269
21
567.1736
31
-1838.6393
12
64.77264
22
491.59103
32
-1898.0209
13
64.772736
23
491.59113
33
-1898.0208
0
3DFACE
8
0
10
64.77264
20
491.59103
30
-1898.0209
11
130.269
21
567.1736
31
-1838.6393
12
63.182945
22
525.0145
32
-1913.9888
13
63.183044
23
525.01465
33
-1913.9886
0
3DFACE
8
0
10
63.182945
20
525.0145
30
-1913.9888
11
60.10765
21
559.6778
31
-1927.66
12
-45.300896
22
517.40314
32
-1925.338
13
-45.300797
23
517.40326
33
-1925.3379
0
3DFACE
8
0
10
-45.300896
20
517.40314
30
-1925.338
11
60.10765
21
559.6778
31
-1927.66
12
-44.293953
22
552.3528
32
-1938.5822
13
-44.293854
23
552.3529
33
-1938.582
0
3DFACE
8
0
10
-45.300896
20
517.40314
30
-1925.338
11
-44.293953
21
552.3528
31
-1938.5822
12
-131.63416
22
548.7981
32
-1866.0387
13
-131.63405
23
548.7982
33
-1866.0386
0
3DFACE
8
0
10
-131.63416
20
548.7981
30
-1866.0387
11
-44.293953
21
552.3528
31
-1938.5822
12
-127.378494
22
582.5664
32
-1881.5143
13
-127.378395
23
582.5665
33
-1881.5142
0
3DFACE
8
0
10
-131.63416
20
548.7981
30
-1866.0387
11
-127.378494
21
582.5664
31
-1881.5143
12
-145.24399
22
600.80865
32
-1770.8276
13
-145.24388
23
600.8088
33
-1770.8275
0
3DFACE
8
0
10
-145.24399
20
600.80865
30
-1770.8276
11
-127.378494
21
582.5664
31
-1881.5143
12
-140.47618
22
632.6198
32
-1789.886
13
-140.47607
23
632.61993
33
-1789.8859
0
3DFACE
8
0
10
-145.24399
20
600.80865
30
-1770.8276
11
-140.47618
21
632.6198
31
-1789.886
12
-78.15791
22
642.9678
32
-1695.4781
13
-78.157814
23
642.9679
33
-1695.478
0
3DFACE
8
0
10
-78.15791
20
642.9678
30
-1695.4781
11
-140.47618
21
632.6198
31
-1789.886
12
-75.91456
22
673.19244
32
-1717.3718
13
-75.91446
23
673.19257
33
-1717.3717
0
3DFACE
8
0
10
-78.15791
20
642.9678
30
-1695.4781
11
-75.91456
21
673.19244
31
-1717.3718
12
30.325941
22
650.57916
32
-1684.1289
13
30.32604
23
650.5793
33
-1684.1288
0
3DFACE
8
0
10
30.325941
20
650.57916
30
-1684.1289
11
-75.91456
21
673.19244
31
-1717.3718
12
28.487051
22
680.51746
32
-1706.4497
13
28.48715
23
680.5176
33
-1706.4496
0
3DFACE
8
0
10
30.325941
20
650.57916
30
-1684.1289
11
28.487051
21
680.51746
31
-1706.4497
12
116.65919
22
619.1842
32
-1743.4282
13
116.65929
23
619.1843
33
-1743.4281
0
3DFACE
8
0
10
116.65919
20
619.1842
30
-1743.4282
11
28.487051
21
680.51746
31
-1706.4497
12
111.57158
22
650.3039
32
-1763.5176
13
111.57168
23
650.304
33
-1763.5175
0
3DFACE
8
0
10
116.65919
20
619.1842
30
-1743.4282
11
111.57158
21
650.3039
31
-1763.5176
12
130.269
22
567.1736
32
-1838.6393
13
130.2691
23
567.1737
33
-1838.6392
0
3DFACE
8
0
10
130.269
20
567.1736
30
-1838.6393
11
111.57158
21
650.3039
31
-1763.5176
12
124.66925
22
600.2504
32
-1855.146
13
124.66935
23
600.25055
33
-1855.1459
0
3DFACE
8
0
10
130.269
20
567.1736
30
-1838.6393
11
124.66925
21
600.2504
31
-1855.146
12
63.182945
22
525.0145
32
-1913.9888
13
63.183044
23
525.01465
33
-1913.9886
0
3DFACE
8
0
10
63.182945
20
525.0145
30
-1913.9888
11
124.66925
21
600.2504
31
-1855.146
12
60.10765
22
559.6778
32
-1927.66
13
60.10775
23
559.6779
33
-1927.6599
0
3DFACE
8
0
10
60.10765
20
559.6778
30
-1927.66
11
55.73307
21
595.4253
31
-1939.3225
12
-44.293953
22
552.3528
32
-1938.5822
13
-44.293854
23
552.3529
33
-1938.582
0
3DFACE
8
0
10
-44.293953
20
552.3528
30
-1938.5822
11
55.73307
21
595.4253
31
-1939.3225
12
-42.591797
22
588.5267
32
-1949.609
13
-42.591698
23
588.5268
33
-1949.6089
0
3DFACE
8
0
10
-44.293953
20
552.3528
30
-1938.5822
11
-42.591797
21
588.5267
31
-1949.609
12
-127.378494
22
582.5664
32
-1881.5143
13
-127.378395
23
582.5665
33
-1881.5142
0
3DFACE
8
0
10
-127.378494
20
582.5664
30
-1881.5143
11
-42.591797
21
588.5267
31
-1949.609
12
-120.84038
22
616.9817
32
-1895.8628
13
-120.84028
23
616.9818
33
-1895.8627
0
3DFACE
8
0
10
-127.378494
20
582.5664
30
-1881.5143
11
-120.84038
21
616.9817
31
-1895.8628
12
-140.47618
22
632.6198
32
-1789.886
13
-140.47607
23
632.61993
33
-1789.8859
0
3DFACE
8
0
10
-140.47618
20
632.6198
30
-1789.886
11
-120.84038
21
616.9817
31
-1895.8628
12
-133.1757
22
664.12177
32
-1809.5677
13
-133.1756
23
664.1219
33
-1809.5676
0
3DFACE
8
0
10
-140.47618
20
632.6198
30
-1789.886
11
-133.1757
21
664.12177
31
-1809.5677
12
-75.91456
22
673.19244
32
-1717.3718
13
-75.91446
23
673.19257
33
-1717.3717
0
3DFACE
8
0
10
-75.91456
20
673.19244
30
-1717.3718
11
-133.1757
21
664.12177
31
-1809.5677
12
-72.37192
22
702.3329
32
-1741.2743
13
-72.37182
23
702.333
33
-1741.2742
0
3DFACE
8
0
10
-75.91456
20
673.19244
30
-1717.3718
11
-72.37192
21
702.3329
31
-1741.2743
12
28.487051
22
680.51746
32
-1706.4497
13
28.48715
23
680.5176
33
-1706.4496
0
3DFACE
8
0
10
28.487051
20
680.51746
30
-1706.4497
11
-72.37192
21
702.3329
31
-1741.2743
12
25.952963
22
709.23145
32
-1730.9879
13
25.953062
23
709.23157
33
-1730.9878
0
3DFACE
8
0
10
28.487051
20
680.51746
30
-1706.4497
11
25.952963
21
709.23145
31
-1730.9879
12
111.57158
22
650.3039
32
-1763.5176
13
111.57168
23
650.304
33
-1763.5175
0
3DFACE
8
0
10
111.57158
20
650.3039
30
-1763.5176
11
25.952963
21
709.23145
31
-1730.9879
12
104.20152
22
680.7765
32
-1784.7341
13
104.20162
23
680.7766
33
-1784.734
0
3DFACE
8
0
10
111.57158
20
650.3039
30
-1763.5176
11
104.20152
21
680.7765
31
-1784.7341
12
124.66925
22
600.2504
32
-1855.146
13
124.66935
23
600.25055
33
-1855.1459
0
3DFACE
8
0
10
124.66925
20
600.2504
30
-1855.146
11
104.20152
21
680.7765
31
-1784.7341
12
116.53684
22
633.6364
32
-1871.0292
13
116.53694
23
633.63654
33
-1871.029
0
3DFACE
8
0
10
124.66925
20
600.2504
30
-1855.146
11
116.53684
21
633.6364
31
-1871.0292
12
60.10765
22
559.6778
32
-1927.66
13
60.10775
23
559.6779
33
-1927.6599
0
3DFACE
8
0
10
60.10765
20
559.6778
30
-1927.66
11
116.53684
21
633.6364
31
-1871.0292
12
55.73307
22
595.4253
32
-1939.3225
13
55.73317
23
595.4254
33
-1939.3224
0
3DFACE
8
0
10
55.73307
20
595.4253
30
-1939.3225
11
50.33658
21
632.02563
31
-1949.4053
12
-42.591797
22
588.5267
32
-1949.609
13
-42.591698
23
588.5268
33
-1949.6089
0
3DFACE
8
0
10
-42.591797
20
588.5267
30
-1949.609
11
50.33658
21
632.02563
31
-1949.4053
12
-40.342857
22
625.66345
32
-1958.8918
13
-40.34276
23
625.6636
33
-1958.8917
0
3DFACE
8
0
10
-42.591797
20
588.5267
30
-1949.609
11
-40.342857
21
625.66345
31
-1958.8918
12
-120.84038
22
616.9817
32
-1895.8628
13
-120.84028
23
616.9818
33
-1895.8627
0
3DFACE
8
0
10
-120.84038
20
616.9817
30
-1895.8628
11
-40.342857
21
625.66345
31
-1958.8918
12
-112.50707
22
651.9058
32
-1909.3247
13
-112.50697
23
651.90594
33
-1909.3246
0
3DFACE
8
0
10
-120.84038
20
616.9817
30
-1895.8628
11
-112.50707
21
651.9058
31
-1909.3247
12
-133.1757
22
664.12177
32
-1809.5677
13
-133.1756
23
664.1219
33
-1809.5676
0
3DFACE
8
0
10
-133.1757
20
664.12177
30
-1809.5677
11
-112.50707
21
651.9058
31
-1909.3247
12
-123.88325
22
695.38043
32
-1829.7397
13
-123.88315
23
695.38055
33
-1829.7396
0
3DFACE
8
0
10
-133.1757
20
664.12177
30
-1809.5677
11
-123.88325
21
695.38043
31
-1829.7397
12
-72.37192
22
702.3329
32
-1741.2743
13
-72.37182
23
702.333
33
-1741.2742
0
3DFACE
8
0
10
-72.37192
20
702.3329
30
-1741.2743
11
-123.88325
21
695.38043
31
-1829.7397
12
-67.807365
22
730.62036
32
-1766.7566
13
-67.80727
23
730.6205
33
-1766.7565
0
3DFACE
8
0
10
-72.37192
20
702.3329
30
-1741.2743
11
-67.807365
21
730.62036
31
-1766.7566
12
25.952963
22
709.23145
32
-1730.9879
13
25.953062
23
709.23157
33
-1730.9878
0
3DFACE
8
0
10
25.952963
20
709.23145
30
-1730.9879
11
-67.807365
21
730.62036
31
-1766.7566
12
22.872074
22
736.98254
32
-1757.27
13
22.872173
23
736.98267
33
-1757.2699
0
3DFACE
8
0
10
25.952963
20
709.23145
30
-1730.9879
11
22.872074
21
736.98254
31
-1757.27
12
104.20152
22
680.7765
32
-1784.7341
13
104.20162
23
680.7766
33
-1784.734
0
3DFACE
8
0
10
104.20152
20
680.7765
30
-1784.7341
11
22.872074
21
736.98254
31
-1757.27
12
95.03628
22
710.7402
32
-1806.8372
13
95.03638
23
710.7403
33
-1806.837
0
3DFACE
8
0
10
104.20152
20
680.7765
30
-1784.7341
11
95.03628
21
710.7402
31
-1806.8372
12
116.53684
22
633.6364
32
-1871.0292
13
116.53694
23
633.63654
33
-1871.029
0
3DFACE
8
0
10
116.53684
20
633.6364
30
-1871.0292
11
95.03628
21
710.7402
31
-1806.8372
12
106.41244
22
667.26556
32
-1886.4221
13
106.41254
23
667.2657
33
-1886.422
0
3DFACE
8
0
10
116.53684
20
633.6364
30
-1871.0292
11
106.41244
21
667.26556
31
-1886.4221
12
55.73307
22
595.4253
32
-1939.3225
13
55.73317
23
595.4254
33
-1939.3224
0
3DFACE
8
0
10
55.73307
20
595.4253
30
-1939.3225
11
106.41244
21
667.26556
31
-1886.4221
12
50.33658
22
632.02563
32
-1949.4053
13
50.336678
23
632.02576
33
-1949.4052
0
3DFACE
8
0
10
50.33658
20
632.02563
30
-1949.4053
11
44.267143
21
669.18756
31
-1958.4475
12
-40.342857
22
625.66345
32
-1958.8918
13
-40.34276
23
625.6636
33
-1958.8917
0
3DFACE
8
0
10
-40.342857
20
625.66345
30
-1958.8918
11
44.267143
21
669.18756
31
-1958.4475
12
-37.733856
22
663.43427
32
-1967.0262
13
-37.733757
23
663.4344
33
-1967.0261
0
3DFACE
8
0
10
-40.342857
20
625.66345
30
-1958.8918
11
-37.733856
21
663.43427
31
-1967.0262
12
-112.50707
22
651.9058
32
-1909.3247
13
-112.50697
23
651.90594
33
-1909.3246
0
3DFACE
8
0
10
-112.50707
20
651.9058
30
-1909.3247
11
-37.733856
21
663.43427
31
-1967.0262
12
-102.991615
22
687.16516
32
-1922.203
13
-102.991516
23
687.1653
33
-1922.2029
0
3DFACE
8
0
10
-112.50707
20
651.9058
30
-1909.3247
11
-102.991615
21
687.16516
31
-1922.203
12
-123.88325
22
695.38043
32
-1829.7397
13
-123.88315
23
695.38055
33
-1829.7396
0
3DFACE
8
0
10
-123.88325
20
695.38043
30
-1829.7397
11
-102.991615
21
687.16516
31
-1922.203
12
-113.279045
22
726.47906
32
-1850.2346
13
-113.278946
23
726.4792
33
-1850.2345
0
3DFACE
8
0
10
-123.88325
20
695.38043
30
-1829.7397
11
-113.279045
21
726.47906
31
-1850.2346
12
-67.807365
22
730.62036
32
-1766.7566
13
-67.80727
23
730.6205
33
-1766.7565
0
3DFACE
8
0
10
-67.807365
20
730.62036
30
-1766.7566
11
-113.279045
21
726.47906
31
-1850.2346
12
-62.569885
22
758.3464
32
-1793.2793
13
-62.569786
23
758.3465
33
-1793.2792
0
3DFACE
8
0
10
-67.807365
20
730.62036
30
-1766.7566
11
-62.569885
21
758.3464
31
-1793.2793
12
22.872074
22
736.98254
32
-1757.27
13
22.872173
23
736.98267
33
-1757.2699
0
3DFACE
8
0
10
22.872074
20
736.98254
30
-1757.27
11
-62.569885
21
758.3464
31
-1793.2793
12
19.431124
22
764.0997
32
-1784.7006
13
19.431223
23
764.0998
33
-1784.7004
0
3DFACE
8
0
10
22.872074
20
736.98254
30
-1757.27
11
19.431124
21
764.0997
31
-1784.7006
12
95.03628
22
710.7402
32
-1806.8372
13
95.03638
23
710.7403
33
-1806.837
0
3DFACE
8
0
10
95.03628
20
710.7402
30
-1806.8372
11
19.431124
21
764.0997
31
-1784.7006
12
84.68888
22
740.3688
32
-1829.5238
13
84.68898
23
740.3689
33
-1829.5237
0
3DFACE
8
0
10
95.03628
20
710.7402
30
-1806.8372
11
84.68888
21
740.3688
31
-1829.5238
12
106.41244
22
667.26556
32
-1886.4221
13
106.41254
23
667.2657
33
-1886.422
0
3DFACE
8
0
10
106.41244
20
667.26556
30
-1886.4221
11
84.68888
21
740.3688
31
-1829.5238
12
94.9763
22
701.0549
32
-1901.4922
13
94.9764
23
701.055
33
-1901.4921
0
3DFACE
8
0
10
106.41244
20
667.26556
30
-1886.4221
11
94.9763
21
701.0549
31
-1901.4922
12
50.33658
22
632.02563
32
-1949.4053
13
50.336678
23
632.02576
33
-1949.4052
0
3DFACE
8
0
10
50.33658
20
632.02563
30
-1949.4053
11
94.9763
21
701.0549
31
-1901.4922
12
44.267143
22
669.18756
32
-1958.4475
13
44.267242
23
669.1877
33
-1958.4474
0
3DFACE
8
0
10
44.267143
20
669.18756
30
-1958.4475
11
37.920914
21
706.58057
31
-1967.062
12
-37.733856
22
663.43427
32
-1967.0262
13
-37.733757
23
663.4344
33
-1967.0261
0
3DFACE
8
0
10
-37.733856
20
663.43427
30
-1967.0262
11
37.920914
21
706.58057
31
-1967.062
12
-34.976738
22
701.46594
32
-1974.6882
13
-34.97664
23
701.46606
33
-1974.6881
0
3DFACE
8
0
10
-37.733856
20
663.43427
30
-1967.0262
11
-34.976738
21
701.46594
31
-1974.6882
12
-102.991615
22
687.16516
32
-1922.203
13
-102.991516
23
687.1653
33
-1922.2029
0
3DFACE
8
0
10
-102.991615
20
687.16516
30
-1922.203
11
-34.976738
21
701.46594
31
-1974.6882
12
-92.989914
22
722.5623
32
-1934.8411
13
-92.989815
23
722.56244
33
-1934.841
0
3DFACE
8
0
10
-102.991615
20
687.16516
30
-1922.203
11
-92.989914
21
722.5623
31
-1934.8411
12
-113.279045
22
726.47906
32
-1850.2346
13
-113.278946
23
726.4792
33
-1850.2345
0
3DFACE
8
0
10
-113.279045
20
726.47906
30
-1850.2346
11
-92.989914
21
722.5623
31
-1934.8411
12
-102.13527
22
757.5118
32
-1870.8623
13
-102.13517
23
757.5119
33
-1870.8622
0
3DFACE
8
0
10
-113.279045
20
726.47906
30
-1850.2346
11
-102.13527
21
757.5118
31
-1870.8623
12
-62.569885
22
758.3464
32
-1793.2793
13
-62.569786
23
758.3465
33
-1793.2792
0
3DFACE
8
0
10
-62.569885
20
758.3464
30
-1793.2793
11
-102.13527
21
757.5118
31
-1870.8623
12
-57.055595
22
785.8414
32
-1820.2299
13
-57.055496
23
785.8415
33
-1820.2297
0
3DFACE
8
0
10
-62.569885
20
758.3464
30
-1793.2793
11
-57.055595
21
785.8414
31
-1820.2299
12
19.431124
22
764.0997
32
-1784.7006
13
19.431223
23
764.0998
33
-1784.7004
0
3DFACE
8
0
10
19.431124
20
764.0997
30
-1784.7006
11
-57.055595
21
785.8414
31
-1820.2299
12
15.842066
22
790.95593
32
-1812.6035
13
15.842166
23
790.95605
33
-1812.6034
0
3DFACE
8
0
10
19.431124
20
764.0997
30
-1784.7006
11
15.842066
21
790.95593
31
-1812.6035
12
84.68888
22
740.3688
32
-1829.5238
13
84.68898
23
740.3689
33
-1829.5237
0
3DFACE
8
0
10
84.68888
20
740.3688
30
-1829.5238
11
15.842066
21
790.95593
31
-1812.6035
12
73.855225
22
769.85956
32
-1852.4507
13
73.85532
23
769.8597
33
-1852.4506
0
3DFACE
8
0
10
84.68888
20
740.3688
30
-1829.5238
11
73.855225
21
769.85956
31
-1852.4507
12
94.9763
22
701.0549
32
-1901.4922
13
94.9764
23
701.055
33
-1901.4921
0
3DFACE
8
0
10
94.9763
20
701.0549
30
-1901.4922
11
73.855225
21
769.85956
31
-1852.4507
12
83.00058
22
734.9101
32
-1916.4296
13
83.00068
23
734.9102
33
-1916.4294
0
3DFACE
8
0
10
94.9763
20
701.0549
30
-1901.4922
11
83.00058
21
734.9101
31
-1916.4296
12
44.267143
22
669.18756
32
-1958.4475
13
44.267242
23
669.1877
33
-1958.4474
0
3DFACE
8
0
10
44.267143
20
669.18756
30
-1958.4475
11
83.00058
21
734.9101
31
-1916.4296
12
37.920914
22
706.58057
32
-1967.062
13
37.921013
23
706.5807
33
-1967.0619
0
3DFACE
8
0
10
37.920914
20
706.58057
30
-1967.062
11
31.713392
21
743.85767
31
-1975.8909
12
-34.976738
22
701.46594
32
-1974.6882
13
-34.97664
23
701.46606
33
-1974.6881
0
3DFACE
8
0
10
-34.976738
20
701.46594
30
-1974.6882
11
31.713392
21
743.85767
31
-1975.8909
12
-32.29384
22
739.3668
32
-1982.587
13
-32.29374
23
739.36694
33
-1982.5869
0
3DFACE
8
0
10
-34.976738
20
701.46594
30
-1974.6882
11
-32.29384
21
739.3668
31
-1982.587
12
-92.989914
22
722.5623
32
-1934.8411
13
-92.989815
23
722.56244
33
-1934.841
0
3DFACE
8
0
10
-92.989914
20
722.5623
30
-1934.8411
11
-32.29384
21
739.3668
31
-1982.587
12
-83.23186
22
757.8904
32
-1947.5995
13
-83.23176
23
757.8905
33
-1947.5994
0
3DFACE
8
0
10
-92.989914
20
722.5623
30
-1934.8411
11
-83.23186
21
757.8904
31
-1947.5995
12
-102.13527
22
757.5118
32
-1870.8623
13
-102.13517
23
757.5119
33
-1870.8622
0
3DFACE
8
0
10
-102.13527
20
757.5118
30
-1870.8623
11
-83.23186
21
757.8904
31
-1947.5995
12
-91.26189
22
788.57745
32
-1891.4233
13
-91.26179
23
788.5776
33
-1891.4232
0
3DFACE
8
0
10
-102.13527
20
757.5118
30
-1870.8623
11
-91.26189
21
788.57745
31
-1891.4233
12
-57.055595
22
785.8414
32
-1820.2299
13
-57.055496
23
785.8415
33
-1820.2297
0
3DFACE
8
0
10
-57.055595
20
785.8414
30
-1820.2299
11
-91.26189
21
788.57745
31
-1891.4233
12
-51.680008
22
813.452
32
-1846.966
13
-51.67991
23
813.45215
33
-1846.9658
0
3DFACE
8
0
10
-57.055595
20
785.8414
30
-1820.2299
11
-51.680008
21
813.452
31
-1846.966
12
15.842066
22
790.95593
32
-1812.6035
13
15.842166
23
790.95605
33
-1812.6034
0
3DFACE
8
0
10
15.842066
20
790.95593
30
-1812.6035
11
-51.680008
21
813.452
31
-1846.966
12
12.327227
22
817.9429
32
-1840.2698
13
12.327327
23
817.943
33
-1840.2697
0
3DFACE
8
0
10
15.842066
20
790.95593
30
-1812.6035
11
12.327227
21
817.9429
31
-1840.2698
12
73.855225
22
769.85956
32
-1852.4507
13
73.85532
23
769.8597
33
-1852.4506
0
3DFACE
8
0
10
73.855225
20
769.85956
30
-1852.4507
11
12.327227
21
817.9429
31
-1840.2698
12
63.265236
22
799.4193
32
-1875.2573
13
63.265335
23
799.41943
33
-1875.2572
0
3DFACE
8
0
10
73.855225
20
769.85956
30
-1852.4507
11
63.265236
21
799.4193
31
-1875.2573
12
83.00058
22
734.9101
32
-1916.4296
13
83.00068
23
734.9102
33
-1916.4294
0
3DFACE
8
0
10
83.00058
20
734.9101
30
-1916.4296
11
63.265236
21
799.4193
31
-1875.2573
12
71.29526
22
768.73224
32
-1931.4333
13
71.29536
23
768.73236
33
-1931.4332
0
3DFACE
8
0
10
83.00058
20
734.9101
30
-1916.4296
11
71.29526
21
768.73224
31
-1931.4333
12
37.920914
22
706.58057
32
-1967.062
13
37.921013
23
706.5807
33
-1967.0619
0
3DFACE
8
0
10
37.920914
20
706.58057
30
-1967.062
11
71.29526
21
768.73224
31
-1931.4333
12
31.713392
22
743.85767
32
-1975.8909
13
31.713491
23
743.8578
33
-1975.8907
0
3DFACE
8
0
10
31.713392
20
743.85767
30
-1975.8909
11
26.050386
21
780.6805
31
-1985.5615
12
-32.29384
22
739.3668
32
-1982.587
13
-32.29374
23
739.36694
33
-1982.5869
0
3DFACE
8
0
10
-32.29384
20
739.3668
30
-1982.587
11
26.050386
21
780.6805
31
-1985.5615
12
-29.902292
22
776.7547
32
-1991.415
13
-29.902193
23
776.7548
33
-1991.4149
0
3DFACE
8
0
10
-32.29384
20
739.3668
30
-1982.587
11
-29.902292
21
776.7547
31
-1991.415
12
-83.23186
22
757.8904
32
-1947.5995
13
-83.23176
23
757.8905
33
-1947.5994
0
3DFACE
8
0
10
-83.23186
20
757.8904
30
-1947.5995
11
-29.902292
21
776.7547
31
-1991.415
12
-74.430374
22
792.9473
32
-1960.8303
13
-74.430275
23
792.94745
33
-1960.8302
0
3DFACE
8
0
10
-83.23186
20
757.8904
30
-1947.5995
11
-74.430374
21
792.9473
31
-1960.8303
12
-91.26189
22
788.57745
32
-1891.4233
13
-91.26179
23
788.5776
33
-1891.4232
0
3DFACE
8
0
10
-91.26189
20
788.57745
30
-1891.4233
11
-74.430374
21
792.9473
31
-1960.8303
12
-81.44991
22
819.77277
32
-1911.7233
13
-81.449814
23
819.7729
33
-1911.7231
0
3DFACE
8
0
10
-91.26189
20
788.57745
30
-1891.4233
11
-81.44991
21
819.77277
31
-1911.7233
12
-51.680008
22
813.452
32
-1846.966
13
-51.67991
23
813.45215
33
-1846.9658
0
3DFACE
8
0
10
-51.680008
20
813.452
30
-1846.966
11
-81.44991
21
819.77277
31
-1911.7233
12
-46.848946
22
841.51715
32
-1872.8604
13
-46.848846
23
841.5173
33
-1872.8602
0
3DFACE
8
0
10
-51.680008
20
813.452
30
-1846.966
11
-46.848946
21
841.51715
31
-1872.8604
12
12.327227
22
817.9429
32
-1840.2698
13
12.327327
23
817.943
33
-1840.2697
0
3DFACE
8
0
10
12.327227
20
817.9429
30
-1840.2698
11
-46.848946
21
841.51715
31
-1872.8604
12
9.10374
22
845.4429
32
-1867.0067
13
9.10384
23
845.443
33
-1867.0066
0
3DFACE
8
0
10
12.327227
20
817.9429
30
-1840.2698
11
9.10374
21
845.4429
31
-1867.0067
12
63.265236
22
799.4193
32
-1875.2573
13
63.265335
23
799.41943
33
-1875.2572
0
3DFACE
8
0
10
63.265236
20
799.4193
30
-1875.2573
11
9.10374
21
845.4429
31
-1867.0067
12
53.631805
22
829.2503
32
-1897.5914
13
53.631905
23
829.2504
33
-1897.5913
0
3DFACE
8
0
10
63.265236
20
799.4193
30
-1875.2573
11
53.631805
21
829.2503
31
-1897.5914
12
71.29526
22
768.73224
32
-1931.4333
13
71.29536
23
768.73236
33
-1931.4332
0
3DFACE
8
0
10
71.29526
20
768.73224
30
-1931.4333
11
53.631805
21
829.2503
31
-1897.5914
12
60.65133
22
802.4248
32
-1946.6985
13
60.65143
23
802.4249
33
-1946.6984
0
3DFACE
8
0
10
71.29526
20
768.73224
30
-1931.4333
11
60.65133
21
802.4248
31
-1946.6985
12
31.713392
22
743.85767
32
-1975.8909
13
31.713491
23
743.8578
33
-1975.8907
0
3DFACE
8
0
10
31.713392
20
743.85767
30
-1975.8909
11
60.65133
21
802.4248
31
-1946.6985
12
26.050386
22
780.6805
32
-1985.5615
13
26.050486
23
780.6806
33
-1985.5614
0
3DFACE
8
0
10
38.637253
20
-32.243984
30
-1544.3812
11
32.749672
21
4.766197
31
-1553.7047
12
-20.673542
22
-36.40532
32
-1550.5862
13
-20.673443
23
-36.40522
33
-1550.586
0
3DFACE
8
0
10
-20.673542
20
-36.40532
30
-1550.5862
11
32.749672
21
4.766197
31
-1553.7047
12
-18.161833
22
1.1941681
32
-1559.0309
13
-18.161734
23
1.1942681
33
-1559.0308
0
3DFACE
8
0
10
-20.673542
20
-36.40532
30
-1550.5862
11
-18.161833
21
1.1941681
31
-1559.0309
12
-67.87407
22
-19.240913
32
-1518.1658
13
-67.87397
23
-19.240814
33
-1518.1656
0
3DFACE
8
0
10
-67.87407
20
-19.240913
30
-1518.1658
11
-18.161833
21
1.1941681
31
-1559.0309
12
-58.67807
22
15.927839
32
-1531.2018
13
-58.67797
23
15.927939
33
-1531.2017
0
3DFACE
8
0
10
-67.87407
20
-19.240913
30
-1518.1658
11
-58.67807
21
15.927839
31
-1531.2018
12
-75.314896
22
9.194557
32
-1466.1116
13
-75.3148
23
9.194657
33
-1466.1115
0
3DFACE
8
0
10
-75.314896
20
9.194557
30
-1466.1116
11
-58.67807
21
15.927839
31
-1531.2018
12
-65.065155
22
40.336426
32
-1486.5192
13
-65.065056
23
40.336525
33
-1486.519
0
3DFACE
8
0
10
-75.314896
20
9.194557
30
-1466.1116
11
-65.065155
21
40.336426
31
-1486.5192
12
-38.637283
22
32.243984
32
-1424.9161
13
-38.637184
23
32.244083
33
-1424.916
0
3DFACE
8
0
10
-38.637283
20
32.243984
30
-1424.9161
11
-65.065155
21
40.336426
31
-1486.5192
12
-33.581642
22
60.12171
32
-1451.1576
13
-33.581543
23
60.12181
33
-1451.1575
0
3DFACE
8
0
10
-38.637283
20
32.243984
30
-1424.9161
11
-33.581642
21
60.12171
31
-1451.1576
12
20.67352
22
36.40532
32
-1418.7112
13
20.673618
23
36.40542
33
-1418.711
0
3DFACE
8
0
10
20.67352
20
36.40532
30
-1418.7112
11
-33.581642
21
60.12171
31
-1451.1576
12
17.32987
22
63.69374
32
-1445.8314
13
17.32997
23
63.69384
33
-1445.8313
0
3DFACE
8
0
10
20.67352
20
36.40532
30
-1418.7112
11
17.32987
21
63.69374
31
-1445.8314
12
67.87404
22
19.240915
32
-1451.1316
13
67.87414
23
19.241014
33
-1451.1315
0
3DFACE
8
0
10
67.87404
20
19.240915
30
-1451.1316
11
17.32987
21
63.69374
31
-1445.8314
12
57.846092
22
48.96007
32
-1473.6605
13
57.84619
23
48.96017
33
-1473.6604
0
3DFACE
8
0
10
67.87404
20
19.240915
30
-1451.1316
11
57.846092
21
48.96007
31
-1473.6605
12
75.31486
22
-9.194569
32
-1503.1858
13
75.31496
23
-9.1944685
33
-1503.1857
0
3DFACE
8
0
10
75.31486
20
-9.194569
30
-1503.1858
11
57.846092
21
48.96007
31
-1473.6605
12
64.233185
22
24.551472
32
-1518.3431
13
64.233284
23
24.55157
33
-1518.343
0
3DFACE
8
0
10
75.31486
20
-9.194569
30
-1503.1858
11
64.233185
21
24.551472
31
-1518.3431
12
38.637253
22
-32.243984
32
-1544.3812
13
38.637352
23
-32.243885
33
-1544.3811
0
3DFACE
8
0
10
38.637253
20
-32.243984
30
-1544.3812
11
64.233185
21
24.551472
31
-1518.3431
12
32.749672
22
4.766197
32
-1553.7047
13
32.74977
23
4.7662973
33
-1553.7046
0
3DFACE
8
0
10
32.749672
20
4.766197
30
-1553.7047
11
27.657753
21
41.112373
31
-1564.2583
12
-18.161833
22
1.1941681
32
-1559.0309
13
-18.161734
23
1.1942681
33
-1559.0308
0
3DFACE
8
0
10
-18.161833
20
1.1941681
30
-1559.0309
11
27.657753
21
41.112373
31
-1564.2583
12
-16.075861
22
38.043957
32
-1568.8335
13
-16.075762
23
38.044056
33
-1568.8334
0
3DFACE
8
0
10
-18.161833
20
1.1941681
30
-1559.0309
11
-16.075861
21
38.043957
31
-1568.8335
12
-58.67807
22
15.927839
32
-1531.2018
13
-58.67797
23
15.927939
33
-1531.2017
0
3DFACE
8
0
10
-58.67807
20
15.927839
30
-1531.2018
11
-16.075861
21
38.043957
31
-1568.8335
12
-50.8798
22
50.700363
32
-1544.928
13
-50.8797
23
50.700462
33
-1544.9279
0
3DFACE
8
0
10
-58.67807
20
15.927839
30
-1531.2018
11
-50.8798
21
50.700363
31
-1544.928
12
-65.065155
22
40.336426
32
-1486.5192
13
-65.065056
23
40.336525
33
-1486.519
0
3DFACE
8
0
10
-65.065155
20
40.336426
30
-1486.5192
11
-50.8798
21
50.700363
31
-1544.928
12
-56.366394
22
71.66764
32
-1506.545
13
-56.366295
23
71.66774
33
-1506.5449
0
3DFACE
8
0
10
-65.065155
20
40.336426
30
-1486.5192
11
-56.366394
21
71.66764
31
-1506.545
12
-33.581642
22
60.12171
32
-1451.1576
13
-33.581543
23
60.12181
33
-1451.1575
0
3DFACE
8
0
10
-33.581642
20
60.12171
30
-1451.1576
11
-56.366394
21
71.66764
31
-1506.545
12
-29.321667
22
88.663445
32
-1476.1691
13
-29.321568
23
88.66354
33
-1476.169
0
3DFACE
8
0
10
-33.581642
20
60.12171
30
-1451.1576
11
-29.321667
21
88.663445
31
-1476.1691
12
17.32987
22
63.69374
32
-1445.8314
13
17.32997
23
63.69384
33
-1445.8313
0
3DFACE
8
0
10
17.32987
20
63.69374
30
-1445.8314
11
-29.321667
21
88.663445
31
-1476.1691
12
14.411951
22
91.73186
32
-1471.5938
13
14.412051
23
91.73196
33
-1471.5936
0
3DFACE
8
0
10
17.32987
20
63.69374
30
-1445.8314
11
14.411951
21
91.73186
31
-1471.5938
12
57.846092
22
48.96007
32
-1473.6605
13
57.84619
23
48.96017
33
-1473.6604
0
3DFACE
8
0
10
57.846092
20
48.96007
30
-1473.6605
11
14.411951
21
91.73186
31
-1471.5938
12
49.21589
22
79.075455
32
-1495.4994
13
49.21599
23
79.075554
33
-1495.4993
0
3DFACE
8
0
10
57.846092
20
48.96007
30
-1473.6605
11
49.21589
21
79.075455
31
-1495.4994
12
64.233185
22
24.551472
32
-1518.3431
13
64.233284
23
24.55157
33
-1518.343
0
3DFACE
8
0
10
64.233185
20
24.551472
30
-1518.3431
11
49.21589
21
79.075455
31
-1495.4994
12
54.702477
22
58.10817
32
-1533.8823
13
54.702576
23
58.10827
33
-1533.8822
0
3DFACE
8
0
10
64.233185
20
24.551472
30
-1518.3431
11
54.702477
21
58.10817
31
-1533.8823
12
32.749672
22
4.766197
32
-1553.7047
13
32.74977
23
4.7662973
33
-1553.7046
0
3DFACE
8
0
10
32.749672
20
4.766197
30
-1553.7047
11
54.702477
21
58.10817
31
-1533.8823
12
27.657753
22
41.112373
32
-1564.2583
13
27.657852
23
41.112473
33
-1564.2582
0
3DFACE
8
0
10
27.657753
20
41.112373
30
-1564.2583
11
23.689121
21
76.521126
31
-1576.5485
12
-16.075861
22
38.043957
32
-1568.8335
13
-16.075762
23
38.044056
33
-1568.8334
0
3DFACE
8
0
10
-16.075861
20
38.043957
30
-1568.8335
11
23.689121
21
76.521126
31
-1576.5485
12
-14.590918
22
73.83534
32
-1580.5531
13
-14.590817
23
73.83544
33
-1580.553
0
3DFACE
8
0
10
-16.075861
20
38.043957
30
-1568.8335
11
-14.590918
21
73.83534
31
-1580.5531
12
-50.8798
22
50.700363
32
-1544.928
13
-50.8797
23
50.700462
33
-1544.9279
0
3DFACE
8
0
10
-50.8798
20
50.700363
30
-1544.928
11
-14.590918
21
73.83534
31
-1580.5531
12
-45.054817
22
84.9135
32
-1559.6285
13
-45.054718
23
84.9136
33
-1559.6284
0
3DFACE
8
0
10
-50.8798
20
50.700363
30
-1544.928
11
-45.054817
21
84.9135
31
-1559.6285
12
-56.366394
22
71.66764
32
-1506.545
13
-56.366295
23
71.66774
33
-1506.5449
0
3DFACE
8
0
10
-56.366394
20
71.66764
30
-1506.545
11
-45.054817
21
84.9135
31
-1559.6285
12
-49.85724
22
103.26615
32
-1526.032
13
-49.85714
23
103.26625
33
-1526.0319
0
3DFACE
8
0
10
-56.366394
20
71.66764
30
-1506.545
11
-49.85724
21
103.26615
31
-1526.032
12
-29.321667
22
88.663445
32
-1476.1691
13
-29.321568
23
88.66354
33
-1476.169
0
3DFACE
8
0
10
-29.321667
20
88.663445
30
-1476.1691
11
-49.85724
21
103.26615
31
-1526.032
12
-26.184975
22
118.142586
32
-1499.4438
13
-26.184875
23
118.142685
33
-1499.4437
0
3DFACE
8
0
10
-29.321667
20
88.663445
30
-1476.1691
11
-26.184975
21
118.142586
31
-1499.4438
12
14.411951
22
91.73186
32
-1471.5938
13
14.412051
23
91.73196
33
-1471.5936
0
3DFACE
8
0
10
14.411951
20
91.73186
30
-1471.5938
11
-26.184975
21
118.142586
31
-1499.4438
12
12.095066
22
120.82837
32
-1495.4391
13
12.095166
23
120.82847
33
-1495.439
0
3DFACE
8
0
10
14.411951
20
91.73186
30
-1471.5938
11
12.095066
21
120.82837
31
-1495.4391
12
49.21589
22
79.075455
32
-1495.4994
13
49.21599
23
79.075554
33
-1495.4993
0
3DFACE
8
0
10
49.21589
20
79.075455
30
-1495.4994
11
12.095066
21
120.82837
31
-1495.4391
12
42.558952
22
109.75022
32
-1516.3638
13
42.55905
23
109.75032
33
-1516.3636
0
3DFACE
8
0
10
49.21589
20
79.075455
30
-1495.4994
11
42.558952
21
109.75022
31
-1516.3638
12
54.702477
22
58.10817
32
-1533.8823
13
54.702576
23
58.10827
33
-1533.8822
0
3DFACE
8
0
10
54.702477
20
58.10817
30
-1533.8823
11
42.558952
21
109.75022
31
-1516.3638
12
47.361366
22
91.39755
32
-1549.9603
13
47.361465
23
91.39765
33
-1549.9602
0
3DFACE
8
0
10
54.702477
20
58.10817
30
-1533.8823
11
47.361366
21
91.39755
31
-1549.9603
12
27.657753
22
41.112373
32
-1564.2583
13
27.657852
23
41.112473
33
-1564.2582
0
3DFACE
8
0
10
27.657753
20
41.112373
30
-1564.2583
11
47.361366
21
91.39755
31
-1549.9603
12
23.689121
22
76.521126
32
-1576.5485
13
23.68922
23
76.521225
33
-1576.5483
0
3DFACE
8
0
10
23.689121
20
76.521126
30
-1576.5485
11
21.092703
21
110.78474
31
-1590.96
12
-14.590918
22
73.83534
32
-1580.5531
13
-14.590817
23
73.83544
33
-1580.553
0
3DFACE
8
0
10
-14.590918
20
73.83534
30
-1580.5531
11
21.092703
21
110.78474
31
-1590.96
12
-13.840203
22
108.333786
32
-1594.6145
13
-13.840103
23
108.333885
33
-1594.6144
0
3DFACE
8
0
10
-14.590918
20
73.83534
30
-1580.5531
11
-13.840203
21
108.333786
31
-1594.6145
12
-45.054817
22
84.9135
32
-1559.6285
13
-45.054718
23
84.9136
33
-1559.6284
0
3DFACE
8
0
10
-45.054817
20
84.9135
30
-1559.6285
11
-13.840203
21
108.333786
31
-1594.6145
12
-41.640404
22
118.44329
32
-1575.5195
13
-41.640305
23
118.44339
33
-1575.5194
0
3DFACE
8
0
10
-45.054817
20
84.9135
30
-1559.6285
11
-41.640404
21
118.44329
31
-1575.5195
12
-49.85724
22
103.26615
32
-1526.032
13
-49.85714
23
103.26625
33
-1526.0319
0
3DFACE
8
0
10
-49.85724
20
103.26615
30
-1526.032
11
-41.640404
21
118.44329
31
-1575.5195
12
-46.022903
22
135.19124
32
-1544.8606
13
-46.022804
23
135.19135
33
-1544.8605
0
3DFACE
8
0
10
-49.85724
20
103.26615
30
-1526.032
11
-46.022903
21
135.19124
31
-1544.8606
12
-26.184975
22
118.142586
32
-1499.4438
13
-26.184875
23
118.142685
33
-1499.4437
0
3DFACE
8
0
10
-26.184975
20
118.142586
30
-1499.4438
11
-46.022903
21
135.19124
31
-1544.8606
12
-24.4205
22
148.7669
32
-1520.5973
13
-24.4204
23
148.76701
33
-1520.5972
0
3DFACE
8
0
10
-26.184975
20
118.142586
30
-1499.4438
11
-24.4205
21
148.7669
31
-1520.5973
12
12.095066
22
120.82837
32
-1495.4391
13
12.095166
23
120.82847
33
-1495.439
0
3DFACE
8
0
10
12.095066
20
120.82837
30
-1495.4391
11
-24.4205
21
148.7669
31
-1520.5973
12
10.512414
22
151.21785
32
-1516.9427
13
10.512514
23
151.21796
33
-1516.9426
0
3DFACE
8
0
10
12.095066
20
120.82837
30
-1495.4391
11
10.512414
21
151.21785
31
-1516.9427
12
42.558952
22
109.75022
32
-1516.3638
13
42.55905
23
109.75032
33
-1516.3636
0
3DFACE
8
0
10
42.558952
20
109.75022
30
-1516.3638
11
10.512414
21
151.21785
31
-1516.9427
12
38.3126
22
141.10834
32
-1536.0377
13
38.3127
23
141.10844
33
-1536.0376
0
3DFACE
8
0
10
42.558952
20
109.75022
30
-1516.3638
11
38.3126
21
141.10834
31
-1536.0377
12
47.361366
22
91.39755
32
-1549.9603
13
47.361465
23
91.39765
33
-1549.9602
0
3DFACE
8
0
10
47.361366
20
91.39755
30
-1549.9603
11
38.3126
21
141.10834
31
-1536.0377
12
42.6951
22
124.3604
32
-1566.6967
13
42.695198
23
124.3605
33
-1566.6965
0
3DFACE
8
0
10
47.361366
20
91.39755
30
-1549.9603
11
42.6951
21
124.3604
31
-1566.6967
12
23.689121
22
76.521126
32
-1576.5485
13
23.68922
23
76.521225
33
-1576.5483
0
3DFACE
8
0
10
23.689121
20
76.521126
30
-1576.5485
11
42.6951
21
124.3604
31
-1566.6967
12
21.092703
22
110.78474
32
-1590.96
13
21.092802
23
110.784836
33
-1590.9598
0
3DFACE
8
0
10
21.092703
20
110.78474
30
-1590.96
11
20.021284
21
143.77568
31
-1607.7291
12
-13.840203
22
108.333786
32
-1594.6145
13
-13.840103
23
108.333885
33
-1594.6144
0
3DFACE
8
0
10
-13.840203
20
108.333786
30
-1594.6145
11
20.021284
21
143.77568
31
-1607.7291
12
-13.905467
22
141.39532
32
-1611.2784
13
-13.905367
23
141.39543
33
-1611.2783
0
3DFACE
8
0
10
-13.840203
20
108.333786
30
-1594.6145
11
-13.905467
21
141.39532
31
-1611.2784
12
-41.640404
22
118.44329
32
-1575.5195
13
-41.640305
23
118.44339
33
-1575.5194
0
3DFACE
8
0
10
-41.640404
20
118.44329
30
-1575.5195
11
-13.905467
21
141.39532
31
-1611.2784
12
-40.904945
22
151.21365
32
-1592.7334
13
-40.904846
23
151.21376
33
-1592.7333
0
3DFACE
8
0
10
-41.640404
20
118.44329
30
-1575.5195
11
-40.904945
21
151.21365
31
-1592.7334
12
-46.022903
22
135.19124
32
-1544.8606
13
-46.022804
23
135.19135
33
-1544.8605
0
3DFACE
8
0
10
-46.022903
20
135.19124
30
-1544.8606
11
-40.904945
21
151.21365
31
-1592.7334
12
-45.161224
22
167.47922
32
-1562.9575
13
-45.161125
23
167.47932
33
-1562.9574
0
3DFACE
8
0
10
-46.022903
20
135.19124
30
-1544.8606
11
-45.161224
21
167.47922
31
-1562.9575
12
-24.4205
22
148.7669
32
-1520.5973
13
-24.4204
23
148.76701
33
-1520.5972
0
3DFACE
8
0
10
-24.4205
20
148.7669
30
-1520.5973
11
-45.161224
21
167.47922
31
-1562.9575
12
-24.18102
22
180.66386
32
-1539.3931
13
-24.180922
23
180.66397
33
-1539.393
0
3DFACE
8
0
10
-24.4205
20
148.7669
30
-1520.5973
11
-24.18102
21
180.66386
31
-1539.3931
12
10.512414
22
151.21785
32
-1516.9427
13
10.512514
23
151.21796
33
-1516.9426
0
3DFACE
8
0
10
10.512414
20
151.21785
30
-1516.9427
11
-24.18102
21
180.66386
31
-1539.3931
12
9.745731
22
183.04422
32
-1535.8438
13
9.7458315
23
183.04433
33
-1535.8436
0
3DFACE
8
0
10
10.512414
20
151.21785
30
-1516.9427
11
9.745731
21
183.04422
31
-1535.8438
12
38.3126
22
141.10834
32
-1536.0377
13
38.3127
23
141.10844
33
-1536.0376
0
3DFACE
8
0
10
38.3126
20
141.10834
30
-1536.0377
11
9.745731
21
183.04422
31
-1535.8438
12
36.7452
22
173.22589
32
-1554.3888
13
36.7453
23
173.226
33
-1554.3887
0
3DFACE
8
0
10
38.3126
20
141.10834
30
-1536.0377
11
36.7452
21
173.22589
31
-1554.3888
12
42.6951
22
124.3604
32
-1566.6967
13
42.695198
23
124.3605
33
-1566.6965
0
3DFACE
8
0
10
42.6951
20
124.3604
30
-1566.6967
11
36.7452
21
173.22589
31
-1554.3888
12
41.001472
22
156.96033
32
-1584.1647
13
41.00157
23
156.96043
33
-1584.1646
0
3DFACE
8
0
10
42.6951
20
124.3604
30
-1566.6967
11
41.001472
21
156.96033
31
-1584.1647
12
21.092703
22
110.78474
32
-1590.96
13
21.092802
23
110.784836
33
-1590.9598
0
3DFACE
8
0
10
21.092703
20
110.78474
30
-1590.96
11
41.001472
21
156.96033
31
-1584.1647
12
20.021284
22
143.77568
32
-1607.7291
13
20.021383
23
143.77579
33
-1607.729
0
3DFACE
8
0
10
20.021284
20
143.77568
30
-1607.7291
11
20.520792
21
175.45563
31
-1626.927
12
-13.905467
22
141.39532
32
-1611.2784
13
-13.905367
23
141.39543
33
-1611.2783
0
3DFACE
8
0
10
-13.905467
20
141.39532
30
-1611.2784
11
20.520792
21
175.45563
31
-1626.927
12
-14.811278
22
172.97668
32
-1630.6233
13
-14.811178
23
172.97679
33
-1630.6232
0
3DFACE
8
0
10
-13.905467
20
141.39532
30
-1611.2784
11
-14.811278
21
172.97668
31
-1630.6233
12
-40.904945
22
151.21365
32
-1592.7334
13
-40.904846
23
151.21376
33
-1592.7333
0
3DFACE
8
0
10
-40.904945
20
151.21365
30
-1592.7334
11
-14.811278
21
172.97668
31
-1630.6233
12
-42.92913
22
183.20169
32
-1611.31
13
-42.92903
23
183.2018
33
-1611.3099
0
3DFACE
8
0
10
-40.904945
20
151.21365
30
-1592.7334
11
-42.92913
21
183.20169
31
-1611.31
12
-45.161224
22
167.47922
32
-1562.9575
13
-45.161125
23
167.47932
33
-1562.9574
0
3DFACE
8
0
10
-45.161224
20
167.47922
30
-1562.9575
11
-42.92913
21
183.20169
31
-1611.31
12
-47.36171
22
200.141
32
-1580.3008
13
-47.36161
23
200.14111
33
-1580.3007
0
3DFACE
8
0
10
-45.161224
20
167.47922
30
-1562.9575
11
-47.36171
21
200.141
31
-1580.3008
12
-24.18102
22
180.66386
32
-1539.3931
13
-24.180922
23
180.66397
33
-1539.393
0
3DFACE
8
0
10
-24.18102
20
180.66386
30
-1539.3931
11
-47.36171
21
200.141
31
-1580.3008
12
-25.512468
22
213.8718
32
-1555.7603
13
-25.51237
23
213.8719
33
-1555.7601
0
3DFACE
8
0
10
-24.18102
20
180.66386
30
-1539.3931
11
-25.512468
21
213.8718
31
-1555.7603
12
9.745731
22
183.04422
32
-1535.8438
13
9.7458315
23
183.04433
33
-1535.8436
0
3DFACE
8
0
10
9.745731
20
183.04422
30
-1535.8438
11
-25.512468
21
213.8718
31
-1555.7603
12
9.819604
22
216.35074
32
-1552.064
13
9.819704
23
216.35085
33
-1552.0638
0
3DFACE
8
0
10
9.745731
20
183.04422
30
-1535.8438
11
9.819604
21
216.35074
31
-1552.064
12
36.7452
22
173.22589
32
-1554.3888
13
36.7453
23
173.226
33
-1554.3887
0
3DFACE
8
0
10
36.7452
20
173.22589
30
-1554.3888
11
9.819604
21
216.35074
31
-1552.064
12
37.937454
22
206.12573
32
-1571.3771
13
37.937553
23
206.12584
33
-1571.377
0
3DFACE
8
0
10
36.7452
20
173.22589
30
-1554.3888
11
37.937454
21
206.12573
31
-1571.3771
12
41.001472
22
156.96033
32
-1584.1647
13
41.00157
23
156.96043
33
-1584.1646
0
3DFACE
8
0
10
41.001472
20
156.96033
30
-1584.1647
11
37.937454
21
206.12573
31
-1571.3771
12
42.370026
22
189.1864
32
-1602.3864
13
42.370125
23
189.18651
33
-1602.3862
0
3DFACE
8
0
10
41.001472
20
156.96033
30
-1584.1647
11
42.370026
21
189.1864
31
-1602.3864
12
20.021284
22
143.77568
32
-1607.7291
13
20.021383
23
143.77579
33
-1607.729
0
3DFACE
8
0
10
20.021284
20
143.77568
30
-1607.7291
11
42.370026
21
189.1864
31
-1602.3864
12
20.520792
22
175.45563
32
-1626.927
13
20.520891
23
175.45573
33
-1626.9269
0
3DFACE
8
0
10
20.520792
20
175.45563
30
-1626.927
11
22.527073
21
205.87814
31
-1648.4542
12
-14.811278
22
172.97668
32
-1630.6233
13
-14.811178
23
172.97679
33
-1630.6232
0
3DFACE
8
0
10
-14.811278
20
172.97668
30
-1630.6233
11
22.527073
21
205.87814
31
-1648.4542
12
-16.523315
22
203.1383
32
-1652.5396
13
-16.523216
23
203.13841
33
-1652.5394
0
3DFACE
8
0
10
-14.811278
20
172.97668
30
-1630.6233
11
-16.523315
21
203.1383
31
-1652.5396
12
-42.92913
22
183.20169
32
-1611.31
13
-42.92903
23
183.2018
33
-1611.3099
0
3DFACE
8
0
10
-42.92913
20
183.20169
30
-1611.31
11
-16.523315
21
203.1383
31
-1652.5396
12
-47.600266
22
214.43939
32
-1631.1938
13
-47.600166
23
214.4395
33
-1631.1937
0
3DFACE
8
0
10
-42.92913
20
183.20169
30
-1611.31
11
-47.600266
21
214.43939
31
-1631.1938
12
-47.36171
22
200.141
32
-1580.3008
13
-47.36161
23
200.14111
33
-1580.3007
0
3DFACE
8
0
10
-47.36171
20
200.141
30
-1580.3008
11
-47.600266
21
214.43939
31
-1631.1938
12
-52.49933
22
233.16139
32
-1596.9211
13
-52.49923
23
233.1615
33
-1596.921
0
3DFACE
8
0
10
-47.36171
20
200.141
30
-1580.3008
11
-52.49933
21
233.16139
31
-1596.9211
12
-25.512468
22
213.8718
32
-1555.7603
13
-25.51237
23
213.8719
33
-1555.7601
0
3DFACE
8
0
10
-25.512468
20
213.8718
30
-1555.7603
11
-52.49933
21
233.16139
31
-1596.9211
12
-28.350693
22
248.33719
32
-1569.798
13
-28.350594
23
248.3373
33
-1569.7979
0
3DFACE
8
0
10
-25.512468
20
213.8718
30
-1555.7603
11
-28.350693
21
248.33719
31
-1569.798
12
9.819604
22
216.35074
32
-1552.064
13
9.819704
23
216.35085
33
-1552.0638
0
3DFACE
8
0
10
9.819604
20
216.35074
30
-1552.064
11
-28.350693
21
248.33719
31
-1569.798
12
10.699701
22
251.07703
32
-1565.7126
13
10.699801
23
251.07713
33
-1565.7125
0
3DFACE
8
0
10
9.819604
20
216.35074
30
-1552.064
11
10.699701
21
251.07703
31
-1565.7126
12
37.937454
22
206.12573
32
-1571.3771
13
37.937553
23
206.12584
33
-1571.377
0
3DFACE
8
0
10
37.937454
20
206.12573
30
-1571.3771
11
10.699701
21
251.07703
31
-1565.7126
12
41.77665
22
239.77594
32
-1587.0583
13
41.77675
23
239.77605
33
-1587.0582
0
3DFACE
8
0
10
37.937454
20
206.12573
30
-1571.3771
11
41.77665
21
239.77594
31
-1587.0583
12
42.370026
22
189.1864
32
-1602.3864
13
42.370125
23
189.18651
33
-1602.3862
0
3DFACE
8
0
10
42.370026
20
189.1864
30
-1602.3864
11
41.77665
21
239.77594
31
-1587.0583
12
46.675705
22
221.05394
32
-1621.331
13
46.675804
23
221.05405
33
-1621.3309
0
3DFACE
8
0
10
42.370026
20
189.1864
30
-1602.3864
11
46.675705
21
221.05394
31
-1621.331
12
20.520792
22
175.45563
32
-1626.927
13
20.520891
23
175.45573
33
-1626.9269
0
3DFACE
8
0
10
20.520792
20
175.45563
30
-1626.927
11
46.675705
21
221.05394
31
-1621.331
12
22.527073
22
205.87814
32
-1648.4542
13
22.527172
23
205.87825
33
-1648.4541
0
3DFACE
8
0
10
22.527073
20
205.87814
30
-1648.4542
11
25.870409
21
235.18486
31
-1672.0486
12
-16.523315
22
203.1383
32
-1652.5396
13
-16.523216
23
203.13841
33
-1652.5394
0
3DFACE
8
0
10
-16.523315
20
203.1383
30
-1652.5396
11
25.870409
21
235.18486
31
-1672.0486
12
-18.950766
22
232.04013
32
-1676.7375
13
-18.950666
23
232.04024
33
-1676.7374
0
3DFACE
8
0
10
-16.523315
20
203.1383
30
-1652.5396
11
-18.950766
21
232.04013
31
-1676.7375
12
-47.600266
22
214.43939
32
-1631.1938
13
-47.600166
23
214.4395
33
-1631.1937
0
3DFACE
8
0
10
-47.600266
20
214.43939
30
-1631.1938
11
-18.950766
21
232.04013
31
-1676.7375
12
-54.62021
22
245.01128
32
-1652.2374
13
-54.62011
23
245.01138
33
-1652.2373
0
3DFACE
8
0
10
-47.600266
20
214.43939
30
-1631.1938
11
-54.62021
21
245.01128
31
-1652.2374
12
-52.49933
22
233.16139
32
-1596.9211
13
-52.49923
23
233.1615
33
-1596.921
0
3DFACE
8
0
10
-52.49933
20
233.16139
30
-1596.9211
11
-54.62021
21
245.01128
31
-1652.2374
12
-60.24324
22
266.49997
32
-1612.9
13
-60.24314
23
266.50006
33
-1612.8999
0
3DFACE
8
0
10
-52.49933
20
233.16139
30
-1596.9211
11
-60.24324
21
266.49997
31
-1612.9
12
-28.350693
22
248.33719
32
-1569.798
13
-28.350594
23
248.3373
33
-1569.7979
0
3DFACE
8
0
10
-28.350693
20
248.33719
30
-1569.798
11
-60.24324
21
266.49997
31
-1612.9
12
-32.52597
22
283.91843
32
-1581.7687
13
-32.52587
23
283.91852
33
-1581.7686
0
3DFACE
8
0
10
-28.350693
20
248.33719
30
-1569.798
11
-32.52597
21
283.91843
31
-1581.7687
12
10.699701
22
251.07703
32
-1565.7126
13
10.699801
23
251.07713
33
-1565.7125
0
3DFACE
8
0
10
10.699701
20
251.07703
30
-1565.7126
11
-32.52597
21
283.91843
31
-1581.7687
12
12.295211
22
287.06314
32
-1577.0796
13
12.295311
23
287.06323
33
-1577.0795
0
3DFACE
8
0
10
10.699701
20
251.07703
30
-1565.7126
11
12.295211
21
287.06314
31
-1577.0796
12
41.77665
22
239.77594
32
-1587.0583
13
41.77675
23
239.77605
33
-1587.0582
0
3DFACE
8
0
10
41.77665
20
239.77594
30
-1587.0583
11
12.295211
21
287.06314
31
-1577.0796
12
47.964645
22
274.092
32
-1601.5797
13
47.964745
23
274.0921
33
-1601.5796
0
3DFACE
8
0
10
41.77665
20
239.77594
30
-1587.0583
11
47.964645
21
274.092
31
-1601.5797
12
46.675705
22
221.05394
32
-1621.331
13
46.675804
23
221.05405
33
-1621.3309
0
3DFACE
8
0
10
46.675705
20
221.05394
30
-1621.331
11
47.964645
21
274.092
31
-1601.5797
12
53.587677
22
252.6033
32
-1640.9171
13
53.587776
23
252.60341
33
-1640.917
0
3DFACE
8
0
10
46.675705
20
221.05394
30
-1621.331
11
53.587677
21
252.6033
31
-1640.9171
12
22.527073
22
205.87814
32
-1648.4542
13
22.527172
23
205.87825
33
-1648.4541
0
3DFACE
8
0
10
22.527073
20
205.87814
30
-1648.4542
11
53.587677
21
252.6033
31
-1640.9171
12
25.870409
22
235.18486
32
-1672.0486
13
25.870508
23
235.18497
33
-1672.0485
0
3DFACE
8
0
10
25.870409
20
235.18486
30
-1672.0486
11
30.287394
21
263.59555
31
-1697.3027
12
-18.950766
22
232.04013
32
-1676.7375
13
-18.950666
23
232.04024
33
-1676.7374
0
3DFACE
8
0
10
-18.950766
20
232.04013
30
-1676.7375
11
30.287394
21
263.59555
31
-1697.3027
12
-21.952694
22
259.9303
32
-1702.7678
13
-21.952595
23
259.9304
33
-1702.7677
0
3DFACE
8
0
10
-18.950766
20
232.04013
30
-1676.7375
11
-21.952694
21
259.9303
31
-1702.7678
12
-54.62021
22
245.01128
32
-1652.2374
13
-54.62011
23
245.01138
33
-1652.2373
0
3DFACE
8
0
10
-54.62021
20
245.01128
30
-1652.2374
11
-21.952694
21
259.9303
31
-1702.7678
12
-63.52623
22
275.04846
32
-1674.2124
13
-63.52613
23
275.04855
33
-1674.2123
0
3DFACE
8
0
10
-54.62021
20
245.01128
30
-1652.2374
11
-63.52623
21
275.04846
31
-1674.2124
12
-60.24324
22
266.49997
32
-1612.9
13
-60.24314
23
266.50006
33
-1612.8999
0
3DFACE
8
0
10
-60.24324
20
266.49997
30
-1612.9
11
-63.52623
21
275.04846
31
-1674.2124
12
-70.08
22
300.094
32
-1628.3638
13
-70.0799
23
300.0941
33
-1628.3636
0
3DFACE
8
0
10
-60.24324
20
266.49997
30
-1612.9
11
-70.08
21
300.094
31
-1628.3638
12
-32.52597
22
283.91843
32
-1581.7687
13
-32.52587
23
283.91852
33
-1581.7686
0
3DFACE
8
0
10
-32.52597
20
283.91843
30
-1581.7687
11
-70.08
21
300.094
31
-1628.3638
12
-37.774895
22
320.3956
32
-1592.0795
13
-37.774796
23
320.3957
33
-1592.0793
0
3DFACE
8
0
10
-32.52597
20
283.91843
30
-1581.7687
11
-37.774895
21
320.3956
31
-1592.0795
12
12.295211
22
287.06314
32
-1577.0796
13
12.295311
23
287.06323
33
-1577.0795
0
3DFACE
8
0
10
12.295211
20
287.06314
30
-1577.0796
11
-37.774895
21
320.3956
31
-1592.0795
12
14.4651985
22
324.06085
32
-1586.6143
13
14.465299
23
324.06094
33
-1586.6141
0
3DFACE
8
0
10
12.295211
20
287.06314
30
-1577.0796
11
14.4651985
21
324.06085
31
-1586.6143
12
47.964645
22
274.092
32
-1601.5797
13
47.964745
23
274.0921
33
-1601.5796
0
3DFACE
8
0
10
47.964645
20
274.092
30
-1601.5797
11
14.4651985
21
324.06085
31
-1586.6143
12
56.038727
22
308.9427
32
-1615.1697
13
56.038826
23
308.94278
33
-1615.1696
0
3DFACE
8
0
10
47.964645
20
274.092
30
-1601.5797
11
56.038727
21
308.9427
31
-1615.1697
12
53.587677
22
252.6033
32
-1640.9171
13
53.587776
23
252.60341
33
-1640.917
0
3DFACE
8
0
10
53.587677
20
252.6033
30
-1640.9171
11
56.038727
21
308.9427
31
-1615.1697
12
62.59249
22
283.89713
32
-1661.0183
13
62.59259
23
283.89722
33
-1661.0182
0
3DFACE
8
0
10
53.587677
20
252.6033
30
-1640.9171
11
62.59249
21
283.89713
31
-1661.0183
12
25.870409
22
235.18486
32
-1672.0486
13
25.870508
23
235.18497
33
-1672.0485
0
3DFACE
8
0
10
25.870409
20
235.18486
30
-1672.0486
11
62.59249
21
283.89713
31
-1661.0183
12
30.287394
22
263.59555
32
-1697.3027
13
30.287493
23
263.59564
33
-1697.3026
0
3DFACE
8
0
10
30.287394
20
263.59555
30
-1697.3027
11
35.439392
21
291.39288
31
-1723.6931
12
-21.952694
22
259.9303
32
-1702.7678
13
-21.952595
23
259.9304
33
-1702.7677
0
3DFACE
8
0
10
-21.952694
20
259.9303
30
-1702.7678
11
35.439392
21
291.39288
31
-1723.6931
12
-25.3479
22
287.12793
32
-1730.0525
13
-25.347801
23
287.12802
33
-1730.0524
0
3DFACE
8
0
10
-21.952694
20
259.9303
30
-1702.7678
11
-25.3479
21
287.12793
31
-1730.0525
12
-63.52623
22
275.04846
32
-1674.2124
13
-63.52613
23
275.04855
33
-1674.2123
0
3DFACE
8
0
10
-63.52623
20
275.04846
30
-1674.2124
11
-25.3479
21
287.12793
31
-1730.0525
12
-73.72345
22
304.71964
32
-1696.8251
13
-73.72335
23
304.71973
33
-1696.825
0
3DFACE
8
0
10
-63.52623
20
275.04846
30
-1674.2124
11
-73.72345
21
304.71964
31
-1696.8251
12
-70.08
22
300.094
32
-1628.3638
13
-70.0799
23
300.0941
33
-1628.3636
0
3DFACE
8
0
10
-70.08
20
300.094
30
-1628.3638
11
-73.72345
21
304.71964
31
-1696.8251
12
-81.3495
22
333.863
32
-1643.475
13
-81.3494
23
333.8631
33
-1643.4749
0
3DFACE
8
0
10
-70.08
20
300.094
30
-1628.3638
11
-81.3495
21
333.863
31
-1643.475
12
-37.774895
22
320.3956
32
-1592.0795
13
-37.774796
23
320.3957
33
-1592.0793
0
3DFACE
8
0
10
-37.774895
20
320.3956
30
-1592.0795
11
-81.3495
21
333.863
31
-1643.475
12
-43.758835
22
357.4862
32
-1601.2539
13
-43.758736
23
357.4863
33
-1601.2538
0
3DFACE
8
0
10
-37.774895
20
320.3956
30
-1592.0795
11
-43.758835
21
357.4862
31
-1601.2539
12
14.4651985
22
324.06085
32
-1586.6143
13
14.465299
23
324.06094
33
-1586.6141
0
3DFACE
8
0
10
14.4651985
20
324.06085
30
-1586.6143
11
-43.758835
21
357.4862
31
-1601.2539
12
17.028465
22
361.75116
32
-1594.8945
13
17.028564
23
361.75125
33
-1594.8944
0
3DFACE
8
0
10
14.4651985
20
324.06085
30
-1586.6143
11
17.028465
21
361.75116
31
-1594.8945
12
56.038727
22
308.9427
32
-1615.1697
13
56.038826
23
308.94278
33
-1615.1696
0
3DFACE
8
0
10
56.038727
20
308.9427
30
-1615.1697
11
17.028465
21
361.75116
31
-1594.8945
12
65.40401
22
344.15945
32
-1628.1221
13
65.404106
23
344.15955
33
-1628.122
0
3DFACE
8
0
10
56.038727
20
308.9427
30
-1615.1697
11
65.40401
21
344.15945
31
-1628.1221
12
62.59249
22
283.89713
32
-1661.0183
13
62.59259
23
283.89722
33
-1661.0182
0
3DFACE
8
0
10
62.59249
20
283.89713
30
-1661.0183
11
65.40401
21
344.15945
31
-1628.1221
12
73.03005
22
315.01608
32
-1681.4722
13
73.03015
23
315.01617
33
-1681.472
0
3DFACE
8
0
10
62.59249
20
283.89713
30
-1661.0183
11
73.03005
21
315.01608
31
-1681.4722
12
30.287394
22
263.59555
32
-1697.3027
13
30.287493
23
263.59564
33
-1697.3026
0
3DFACE
8
0
10
30.287394
20
263.59555
30
-1697.3027
11
73.03005
21
315.01608
31
-1681.4722
12
35.439392
22
291.39288
32
-1723.6931
13
35.43949
23
291.39297
33
-1723.693
0
3DFACE
8
0
10
35.439392
20
291.39288
30
-1723.6931
11
40.93627
21
318.90237
31
-1750.6168
12
-25.3479
22
287.12793
32
-1730.0525
13
-25.347801
23
287.12802
33
-1730.0524
0
3DFACE
8
0
10
-25.3479
20
287.12793
30
-1730.0525
11
40.93627
21
318.90237
31
-1750.6168
12
-28.927639
22
314.0006
32
-1757.9258
13
-28.92754
23
314.0007
33
-1757.9257
0
3DFACE
8
0
10
-25.3479
20
287.12793
30
-1730.0525
11
-28.927639
21
314.0006
31
-1757.9258
12
-73.72345
22
304.71964
32
-1696.8251
13
-73.72335
23
304.71973
33
-1696.825
0
3DFACE
8
0
10
-73.72345
20
304.71964
30
-1696.8251
11
-28.927639
21
314.0006
31
-1757.9258
12
-84.526505
22
334.21906
32
-1719.7368
13
-84.526405
23
334.21915
33
-1719.7367
0
3DFACE
8
0
10
-73.72345
20
304.71964
30
-1696.8251
11
-84.526505
21
334.21906
31
-1719.7368
12
-81.3495
22
333.863
32
-1643.475
13
-81.3494
23
333.8631
33
-1643.4749
0
3DFACE
8
0
10
-81.3495
20
333.863
30
-1643.475
11
-84.526505
21
334.21906
31
-1719.7368
12
-93.29127
22
367.71402
32
-1658.4207
13
-93.29117
23
367.7141
33
-1658.4205
0
3DFACE
8
0
10
-81.3495
20
333.863
30
-1643.475
11
-93.29127
21
367.71402
31
-1658.4207
12
-43.758835
22
357.4862
32
-1601.2539
13
-43.758736
23
357.4863
33
-1601.2538
0
3DFACE
8
0
10
-43.758835
20
357.4862
30
-1601.2539
11
-93.29127
21
367.71402
31
-1658.4207
12
-50.087646
22
394.86462
32
-1609.8953
13
-50.087547
23
394.86472
33
-1609.8951
0
3DFACE
8
0
10
-43.758835
20
357.4862
30
-1601.2539
11
-50.087646
21
394.86462
31
-1609.8953
12
17.028465
22
361.75116
32
-1594.8945
13
17.028564
23
361.75125
33
-1594.8944
0
3DFACE
8
0
10
17.028465
20
361.75116
30
-1594.8945
11
-50.087646
21
394.86462
31
-1609.8953
12
19.776264
22
399.76636
32
-1602.5863
13
19.776363
23
399.76645
33
-1602.5862
0
3DFACE
8
0
10
17.028465
20
361.75116
30
-1594.8945
11
19.776264
21
399.76636
31
-1602.5863
12
65.40401
22
344.15945
32
-1628.1221
13
65.404106
23
344.15955
33
-1628.122
0
3DFACE
8
0
10
65.40401
20
344.15945
30
-1628.1221
11
19.776264
21
399.76636
31
-1602.5863
12
75.37512
22
379.5479
32
-1640.7753
13
75.37522
23
379.548
33
-1640.7751
0
3DFACE
8
0
10
65.40401
20
344.15945
30
-1628.1221
11
75.37512
21
379.5479
31
-1640.7753
12
73.03005
22
315.01608
32
-1681.4722
13
73.03015
23
315.01617
33
-1681.472
0
3DFACE
8
0
10
73.03005
20
315.01608
30
-1681.4722
11
75.37512
21
379.5479
31
-1640.7753
12
84.13988
22
346.05292
32
-1702.0916
13
84.13998
23
346.053
33
-1702.0914
0
3DFACE
8
0
10
73.03005
20
315.01608
30
-1681.4722
11
84.13988
21
346.05292
31
-1702.0916
12
35.439392
22
291.39288
32
-1723.6931
13
35.43949
23
291.39297
33
-1723.693
0
3DFACE
8
0
10
35.439392
20
291.39288
30
-1723.6931
11
84.13988
21
346.05292
31
-1702.0916
12
40.93627
22
318.90237
32
-1750.6168
13
40.93637
23
318.90247
33
-1750.6167
0
3DFACE
8
0
10
40.93627
20
318.90237
30
-1750.6168
11
46.363724
21
346.4698
31
-1777.4331
12
-28.927639
22
314.0006
32
-1757.9258
13
-28.92754
23
314.0007
33
-1757.9257
0
3DFACE
8
0
10
-28.927639
20
314.0006
30
-1757.9258
11
46.363724
21
346.4698
31
-1777.4331
12
-32.47023
22
340.93866
32
-1785.6804
13
-32.47013
23
340.93875
33
-1785.6803
0
3DFACE
8
0
10
-28.927639
20
314.0006
30
-1757.9258
11
-32.47023
21
340.93866
31
-1785.6804
12
-84.526505
22
334.21906
32
-1719.7368
13
-84.526405
23
334.21915
33
-1719.7367
0
3DFACE
8
0
10
-84.526505
20
334.21906
30
-1719.7368
11
-32.47023
21
340.93866
31
-1785.6804
12
-95.20761
22
363.75305
32
-1742.5884
13
-95.20751
23
363.75314
33
-1742.5883
0
3DFACE
8
0
10
-84.526505
20
334.21906
30
-1719.7368
11
-95.20761
21
363.75305
31
-1742.5884
12
-93.29127
22
367.71402
32
-1658.4207
13
-93.29117
23
367.7141
33
-1658.4205
0
3DFACE
8
0
10
-93.29127
20
367.71402
30
-1658.4207
11
-95.20761
21
363.75305
31
-1742.5884
12
-105.09771
22
401.54852
32
-1673.3995
13
-105.09761
23
401.5486
33
-1673.3994
0
3DFACE
8
0
10
-93.29127
20
367.71402
30
-1658.4207
11
-105.09771
21
401.54852
31
-1673.3995
12
-50.087646
22
394.86462
32
-1609.8953
13
-50.087547
23
394.86472
33
-1609.8951
0
3DFACE
8
0
10
-50.087646
20
394.86462
30
-1609.8953
11
-105.09771
21
401.54852
31
-1673.3995
12
-56.34704
22
432.18506
32
-1618.6439
13
-56.34694
23
432.18515
33
-1618.6438
0
3DFACE
8
0
10
-50.087646
20
394.86462
30
-1609.8953
11
-56.34704
21
432.18506
31
-1618.6439
12
19.776264
22
399.76636
32
-1602.5863
13
19.776363
23
399.76645
33
-1602.5862
0
3DFACE
8
0
10
19.776264
20
399.76636
30
-1602.5863
11
-56.34704
21
432.18506
31
-1618.6439
12
22.486923
22
437.7162
32
-1610.3966
13
22.487022
23
437.71628
33
-1610.3965
0
3DFACE
8
0
10
19.776264
20
399.76636
30
-1602.5863
11
22.486923
21
437.7162
31
-1610.3966
12
75.37512
22
379.5479
32
-1640.7753
13
75.37522
23
379.548
33
-1640.7751
0
3DFACE
8
0
10
75.37512
20
379.5479
30
-1640.7753
11
22.486923
21
437.7162
31
-1610.3966
12
85.22429
22
414.90182
32
-1653.4886
13
85.22439
23
414.90192
33
-1653.4885
0
3DFACE
8
0
10
75.37512
20
379.5479
30
-1640.7753
11
85.22429
21
414.90182
31
-1653.4886
12
84.13988
22
346.05292
32
-1702.0916
13
84.13998
23
346.053
33
-1702.0914
0
3DFACE
8
0
10
84.13988
20
346.05292
30
-1702.0916
11
85.22429
21
414.90182
31
-1653.4886
12
95.11437
22
377.1063
32
-1722.6775
13
95.11447
23
377.10638
33
-1722.6774
0
3DFACE
8
0
10
84.13988
20
346.05292
30
-1702.0916
11
95.11437
21
377.1063
31
-1722.6775
12
40.93627
22
318.90237
32
-1750.6168
13
40.93637
23
318.90247
33
-1750.6167
0
3DFACE
8
0
10
40.93627
20
318.90237
30
-1750.6168
11
95.11437
21
377.1063
31
-1722.6775
12
46.363724
22
346.4698
32
-1777.4331
13
46.363823
23
346.46988
33
-1777.433
0
3DFACE
8
0
10
46.363724
20
346.4698
30
-1777.4331
11
51.31231
21
374.43686
31
-1803.5092
12
-32.47023
22
340.93866
32
-1785.6804
13
-32.47013
23
340.93875
33
-1785.6803
0
3DFACE
8
0
10
-32.47023
20
340.93866
30
-1785.6804
11
51.31231
21
374.43686
31
-1803.5092
12
-35.7566
22
368.32797
32
-1812.618
13
-35.7565
23
368.32806
33
-1812.6179
0
3DFACE
8
0
10
-32.47023
20
340.93866
30
-1785.6804
11
-35.7566
21
368.32797
31
-1812.618
12
-95.20761
22
363.75305
32
-1742.5884
13
-95.20751
23
363.75314
33
-1742.5883
0
3DFACE
8
0
10
-95.20761
20
363.75305
30
-1742.5884
11
-35.7566
21
368.32797
31
-1812.618
12
-105.04749
22
393.5255
32
-1765.0245
13
-105.04739
23
393.5256
33
-1765.0244
0
3DFACE
8
0
10
-95.20761
20
363.75305
30
-1742.5884
11
-105.04749
21
393.5255
31
-1765.0245
12
-105.09771
22
401.54852
32
-1673.3995
13
-105.09761
23
401.5486
33
-1673.3994
0
3DFACE
8
0
10
-105.09771
20
401.54852
30
-1673.3995
11
-105.04749
21
393.5255
31
-1765.0245
12
-115.9707
22
435.2691
32
-1688.6083
13
-115.970604
23
435.2692
33
-1688.6082
0
3DFACE
8
0
10
-105.09771
20
401.54852
30
-1673.3995
11
-115.9707
21
435.2691
31
-1688.6083
12
-56.34704
22
432.18506
32
-1618.6439
13
-56.34694
23
432.18515
33
-1618.6438
0
3DFACE
8
0
10
-56.34704
20
432.18506
30
-1618.6439
11
-115.9707
21
435.2691
31
-1688.6083
12
-62.12757
22
469.10593
32
-1628.1329
13
-62.127472
23
469.10602
33
-1628.1328
0
3DFACE
8
0
10
-56.34704
20
432.18506
30
-1618.6439
11
-62.12757
21
469.10593
31
-1628.1329
12
22.486923
22
437.7162
32
-1610.3966
13
22.487022
23
437.71628
33
-1610.3965
0
3DFACE
8
0
10
22.486923
20
437.7162
30
-1610.3966
11
-62.12757
21
469.10593
31
-1628.1329
12
24.941347
22
475.2148
32
-1619.024
13
24.941446
23
475.2149
33
-1619.0239
0
3DFACE
8
0
10
22.486923
20
437.7162
30
-1610.3966
11
24.941347
21
475.2148
31
-1619.024
12
85.22429
22
414.90182
32
-1653.4886
13
85.22439
23
414.90192
33
-1653.4885
0
3DFACE
8
0
10
85.22429
20
414.90182
30
-1653.4886
11
24.941347
21
475.2148
31
-1619.024
12
94.23223
22
450.01727
32
-1666.6176
13
94.23233
23
450.01736
33
-1666.6174
0
3DFACE
8
0
10
85.22429
20
414.90182
30
-1653.4886
11
94.23223
21
450.01727
31
-1666.6176
12
95.11437
22
377.1063
32
-1722.6775
13
95.11447
23
377.10638
33
-1722.6774
0
3DFACE
8
0
10
95.11437
20
377.1063
30
-1722.6775
11
94.23223
21
450.01727
31
-1666.6176
12
105.15544
22
408.27365
32
-1743.0338
13
105.15554
23
408.27374
33
-1743.0337
0
3DFACE
8
0
10
95.11437
20
377.1063
30
-1722.6775
11
105.15544
21
408.27365
31
-1743.0338
12
46.363724
22
346.4698
32
-1777.4331
13
46.363823
23
346.46988
33
-1777.433
0
3DFACE
8
0
10
46.363724
20
346.4698
30
-1777.4331
11
105.15544
21
408.27365
31
-1743.0338
12
51.31231
22
374.43686
32
-1803.5092
13
51.31241
23
374.43695
33
-1803.509
0
3DFACE
8
0
10
51.31231
20
374.43686
30
-1803.5092
11
55.40616
21
403.11722
31
-1828.2637
12
-35.7566
22
368.32797
32
-1812.618
13
-35.7565
23
368.32806
33
-1812.6179
0
3DFACE
8
0
10
-35.7566
20
368.32797
30
-1812.618
11
55.40616
21
403.11722
31
-1828.2637
12
-38.585617
22
396.5226
32
-1838.0969
13
-38.585518
23
396.5227
33
-1838.0968
0
3DFACE
8
0
10
-35.7566
20
368.32797
30
-1812.618
11
-38.585617
21
396.5226
31
-1838.0969
12
-105.04749
22
393.5255
32
-1765.0245
13
-105.04739
23
393.5256
33
-1765.0244
0
3DFACE
8
0
10
-105.04749
20
393.5255
30
-1765.0245
11
-38.585617
21
396.5226
31
-1838.0969
12
-113.38585
22
423.72363
32
-1786.7192
13
-113.38575
23
423.72372
33
-1786.7191
0
3DFACE
8
0
10
-105.04749
20
393.5255
30
-1765.0245
11
-113.38585
21
423.72363
31
-1786.7192
12
-115.9707
22
435.2691
32
-1688.6083
13
-115.970604
23
435.2692
33
-1688.6082
0
3DFACE
8
0
10
-115.9707
20
435.2691
30
-1688.6083
11
-113.38585
21
423.72363
31
-1786.7192
12
-125.17758
22
468.78625
32
-1704.227
13
-125.17748
23
468.78635
33
-1704.2269
0
3DFACE
8
0
10
-115.9707
20
435.2691
30
-1688.6083
11
-125.17758
21
468.78625
31
-1704.227
12
-62.12757
22
469.10593
32
-1628.1329
13
-62.127472
23
469.10602
33
-1628.1328
0
3DFACE
8
0
10
-62.12757
20
469.10593
30
-1628.1329
11
-125.17758
21
468.78625
31
-1704.227
12
-67.05336
22
505.31345
32
-1638.9434
13
-67.05326
23
505.31354
33
-1638.9432
0
3DFACE
8
0
10
-62.12757
20
469.10593
30
-1628.1329
11
-67.05336
21
505.31345
31
-1638.9434
12
24.941347
22
475.2148
32
-1619.024
13
24.941446
23
475.2149
33
-1619.0239
0
3DFACE
8
0
10
24.941347
20
475.2148
30
-1619.024
11
-67.05336
21
505.31345
31
-1638.9434
12
26.938429
22
511.90805
32
-1629.1102
13
26.938528
23
511.90814
33
-1629.1101
0
3DFACE
8
0
10
24.941347
20
475.2148
30
-1619.024
11
26.938429
21
511.90805
31
-1629.1102
12
94.23223
22
450.01727
32
-1666.6176
13
94.23233
23
450.01736
33
-1666.6174
0
3DFACE
8
0
10
94.23223
20
450.01727
30
-1666.6176
11
26.938429
21
511.90805
31
-1629.1102
12
101.73865
22
484.70703
32
-1680.4878
13
101.73875
23
484.70712
33
-1680.4877
0
3DFACE
8
0
10
94.23223
20
450.01727
30
-1666.6176
11
101.73865
21
484.70703
31
-1680.4878
12
105.15544
22
408.27365
32
-1743.0338
13
105.15554
23
408.27374
33
-1743.0337
0
3DFACE
8
0
10
105.15544
20
408.27365
30
-1743.0338
11
101.73865
21
484.70703
31
-1680.4878
12
113.53035
22
439.6444
32
-1762.98
13
113.53045
23
439.6445
33
-1762.9799
0
3DFACE
8
0
10
105.15544
20
408.27365
30
-1743.0338
11
113.53035
21
439.6444
31
-1762.98
12
51.31231
22
374.43686
32
-1803.5092
13
51.31241
23
374.43695
33
-1803.509
0
3DFACE
8
0
10
51.31231
20
374.43686
30
-1803.5092
11
113.53035
21
439.6444
31
-1762.98
12
55.40616
22
403.11722
32
-1828.2637
13
55.406258
23
403.1173
33
-1828.2635
0
3DFACE
8
0
10
55.40616
20
403.11722
30
-1828.2637
11
58.32926
21
432.77463
31
-1851.2084
12
-38.585617
22
396.5226
32
-1838.0969
13
-38.585518
23
396.5227
33
-1838.0968
0
3DFACE
8
0
10
-38.585617
20
396.5226
30
-1838.0969
11
58.32926
21
432.77463
31
-1851.2084
12
-40.788223
22
425.8204
32
-1861.5778
13
-40.788124
23
425.8205
33
-1861.5776
0
3DFACE
8
0
10
-38.585617
20
396.5226
30
-1838.0969
11
-40.788223
21
425.8204
31
-1861.5778
12
-113.38585
22
423.72363
32
-1786.7192
13
-113.38575
23
423.72372
33
-1786.7191
0
3DFACE
8
0
10
-113.38585
20
423.72363
30
-1786.7192
11
-40.788223
21
425.8204
31
-1861.5778
12
-119.66759
22
454.50476
32
-1807.3982
13
-119.66749
23
454.50485
33
-1807.3981
0
3DFACE
8
0
10
-113.38585
20
423.72363
30
-1786.7192
11
-119.66759
21
454.50476
31
-1807.3982
12
-125.17758
22
468.78625
32
-1704.227
13
-125.17748
23
468.78635
33
-1704.2269
0
3DFACE
8
0
10
-125.17758
20
468.78625
30
-1704.227
11
-119.66759
21
454.50476
31
-1807.3982
12
-132.10236
22
502.0248
32
-1720.4076
13
-132.10225
23
502.0249
33
-1720.4075
0
3DFACE
8
0
10
-125.17758
20
468.78625
30
-1704.227
11
-132.10236
21
502.0248
31
-1720.4076
12
-67.05336
22
505.31345
32
-1638.9434
13
-67.05326
23
505.31354
33
-1638.9432
0
3DFACE
8
0
10
-67.05336
20
505.31345
30
-1638.9434
11
-132.10236
21
502.0248
31
-1720.4076
12
-70.80841
22
540.54395
32
-1651.5636
13
-70.80831
23
540.54407
33
-1651.5635
0
3DFACE
8
0
10
-67.05336
20
505.31345
30
-1638.9434
11
-70.80841
21
540.54395
31
-1651.5636
12
26.938429
22
511.90805
32
-1629.1102
13
26.938528
23
511.90814
33
-1629.1101
0
3DFACE
8
0
10
26.938429
20
511.90805
30
-1629.1102
11
-70.80841
21
540.54395
31
-1651.5636
12
28.309092
22
547.4982
32
-1641.1942
13
28.30919
23
547.49835
33
-1641.1941
0
3DFACE
8
0
10
26.938429
20
511.90805
30
-1629.1102
11
28.309092
21
547.4982
31
-1641.1942
12
101.73865
22
484.70703
32
-1680.4878
13
101.73875
23
484.70712
33
-1680.4877
0
3DFACE
8
0
10
101.73865
20
484.70703
30
-1680.4878
11
28.309092
21
547.4982
31
-1641.1942
12
107.18843
22
518.81384
32
-1695.3738
13
107.18853
23
518.81396
33
-1695.3737
0
3DFACE
8
0
10
101.73865
20
484.70703
30
-1680.4878
11
107.18843
21
518.81384
31
-1695.3738
12
113.53035
22
439.6444
32
-1762.98
13
113.53045
23
439.6445
33
-1762.9799
0
3DFACE
8
0
10
113.53035
20
439.6444
30
-1762.98
11
107.18843
21
518.81384
31
-1695.3738
12
119.623184
22
471.29376
32
-1782.3645
13
119.62328
23
471.29385
33
-1782.3644
0
3DFACE
8
0
10
113.53035
20
439.6444
30
-1762.98
11
119.623184
21
471.29376
31
-1782.3645
12
55.40616
22
403.11722
32
-1828.2637
13
55.406258
23
403.1173
33
-1828.2635
0
3DFACE
8
0
10
55.40616
20
403.11722
30
-1828.2637
11
119.623184
21
471.29376
31
-1782.3645
12
58.32926
22
432.77463
32
-1851.2084
13
58.32936
23
432.77472
33
-1851.2083
0
3DFACE
8
0
10
58.32926
20
432.77463
30
-1851.2084
11
59.84767
21
463.6043
31
-1871.9814
12
-40.788223
22
425.8204
32
-1861.5778
13
-40.788124
23
425.8205
33
-1861.5776
0
3DFACE
8
0
10
-40.788223
20
425.8204
30
-1861.5778
11
59.84767
21
463.6043
31
-1871.9814
12
-42.239212
22
456.44174
32
-1882.6614
13
-42.239113
23
456.44183
33
-1882.6613
0
3DFACE
8
0
10
-40.788223
20
425.8204
30
-1861.5778
11
-42.239212
21
456.44174
31
-1882.6614
12
-119.66759
22
454.50476
32
-1807.3982
13
-119.66749
23
454.50485
33
-1807.3981
0
3DFACE
8
0
10
-119.66759
20
454.50476
30
-1807.3982
11
-42.239212
21
456.44174
31
-1882.6614
12
-123.481674
22
485.98544
32
-1826.8588
13
-123.481575
23
485.98553
33
-1826.8586
0
3DFACE
8
0
10
-119.66759
20
454.50476
30
-1807.3982
11
-123.481674
21
485.98544
31
-1826.8588
12
-132.10236
22
502.0248
32
-1720.4076
13
-132.10225
23
502.0249
33
-1720.4075
0
3DFACE
8
0
10
-132.10236
20
502.0248
30
-1720.4076
11
-123.481674
21
485.98544
31
-1826.8588
12
-136.28897
22
534.92914
32
-1737.262
13
-136.28886
23
534.92926
33
-1737.2618
0
3DFACE
8
0
10
-132.10236
20
502.0248
30
-1720.4076
11
-136.28897
21
534.92914
31
-1737.262
12
-70.80841
22
540.54395
32
-1651.5636
13
-70.80831
23
540.54407
33
-1651.5635
0
3DFACE
8
0
10
-70.80841
20
540.54395
30
-1651.5636
11
-136.28897
21
534.92914
31
-1737.262
12
-73.15876
22
574.60223
32
-1666.3556
13
-73.15866
23
574.60236
33
-1666.3555
0
3DFACE
8
0
10
-70.80841
20
540.54395
30
-1651.5636
11
-73.15876
21
574.60223
31
-1666.3556
12
28.309092
22
547.4982
32
-1641.1942
13
28.30919
23
547.49835
33
-1641.1941
0
3DFACE
8
0
10
28.309092
20
547.4982
30
-1641.1942
11
-73.15876
21
574.60223
31
-1666.3556
12
28.928143
22
581.76483
32
-1655.6755
13
28.928242
23
581.76495
33
-1655.6754
0
3DFACE
8
0
10
28.309092
20
547.4982
30
-1641.1942
11
28.928143
21
581.76483
31
-1655.6755
12
107.18843
22
518.81384
32
-1695.3738
13
107.18853
23
518.81396
33
-1695.3737
0
3DFACE
8
0
10
107.18843
20
518.81384
30
-1695.3738
11
28.928143
21
581.76483
31
-1655.6755
12
110.17058
22
552.2211
32
-1711.4781
13
110.17068
23
552.22125
33
-1711.478
0
3DFACE
8
0
10
107.18843
20
518.81384
30
-1695.3738
11
110.17058
21
552.2211
31
-1711.4781
12
119.623184
22
471.29376
32
-1782.3645
13
119.62328
23
471.29385
33
-1782.3644
0
3DFACE
8
0
10
119.623184
20
471.29376
30
-1782.3645
11
110.17058
21
552.2211
31
-1711.4781
12
122.97786
22
503.2774
32
-1801.075
13
122.97796
23
503.2775
33
-1801.0748
0
3DFACE
8
0
10
119.623184
20
471.29376
30
-1782.3645
11
122.97786
21
503.2774
31
-1801.075
12
58.32926
22
432.77463
32
-1851.2084
13
58.32936
23
432.77472
33
-1851.2083
0
3DFACE
8
0
10
58.32926
20
432.77463
30
-1851.2084
11
122.97786
21
503.2774
31
-1801.075
12
59.84767
22
463.6043
32
-1871.9814
13
59.84777
23
463.6044
33
-1871.9813
0
3DFACE
8
0
10
59.84767
20
463.6043
30
-1871.9814
11
59.825836
21
495.7193
31
-1890.3733
12
-42.239212
22
456.44174
32
-1882.6614
13
-42.239113
23
456.44183
33
-1882.6613
0
3DFACE
8
0
10
-42.239212
20
456.44174
30
-1882.6614
11
59.825836
21
495.7193
31
-1890.3733
12
-42.86608
22
488.51428
32
-1901.1165
13
-42.865982
23
488.51437
33
-1901.1163
0
3DFACE
8
0
10
-42.239212
20
456.44174
30
-1882.6614
11
-42.86608
21
488.51428
31
-1901.1165
12
-123.481674
22
485.98544
32
-1826.8588
13
-123.481575
23
485.98553
33
-1826.8586
0
3DFACE
8
0
10
-123.481674
20
485.98544
30
-1826.8588
11
-42.86608
21
488.51428
31
-1901.1165
12
-124.59003
22
518.2331
32
-1844.9832
13
-124.58993
23
518.2332
33
-1844.983
0
3DFACE
8
0
10
-123.481674
20
485.98544
30
-1826.8588
11
-124.59003
21
518.2331
31
-1844.9832
12
-136.28897
22
534.92914
32
-1737.262
13
-136.28886
23
534.92926
33
-1737.2618
0
3DFACE
8
0
10
-136.28897
20
534.92914
30
-1737.262
11
-124.59003
21
518.2331
31
-1844.9832
12
-137.47322
22
567.4668
32
-1754.8555
13
-137.47311
23
567.4669
33
-1754.8553
0
3DFACE
8
0
10
-136.28897
20
534.92914
30
-1737.262
11
-137.47322
21
567.4668
31
-1754.8555
12
-73.15876
22
574.60223
32
-1666.3556
13
-73.15866
23
574.60236
33
-1666.3555
0
3DFACE
8
0
10
-73.15876
20
574.60223
30
-1666.3556
11
-137.47322
21
567.4668
31
-1754.8555
12
-73.968864
22
607.37506
32
-1683.5288
13
-73.968765
23
607.3752
33
-1683.5287
0
3DFACE
8
0
10
-73.15876
20
574.60223
30
-1666.3556
11
-73.968864
21
607.37506
31
-1683.5288
12
28.928143
22
581.76483
32
-1655.6755
13
28.928242
23
581.76495
33
-1655.6754
0
3DFACE
8
0
10
28.928143
20
581.76483
30
-1655.6755
11
-73.968864
21
607.37506
31
-1683.5288
12
28.723068
22
614.5801
32
-1672.7854
13
28.723167
23
614.5802
33
-1672.7853
0
3DFACE
8
0
10
28.928143
20
581.76483
30
-1655.6755
11
28.723068
21
614.5801
31
-1672.7854
12
110.17058
22
552.2211
32
-1711.4781
13
110.17068
23
552.22125
33
-1711.478
0
3DFACE
8
0
10
110.17058
20
552.2211
30
-1711.4781
11
28.723068
21
614.5801
31
-1672.7854
12
110.44699
22
584.86127
32
-1728.9188
13
110.44709
23
584.8614
33
-1728.9187
0
3DFACE
8
0
10
110.17058
20
552.2211
30
-1711.4781
11
110.44699
21
584.86127
31
-1728.9188
12
122.97786
22
503.2774
32
-1801.075
13
122.97796
23
503.2775
33
-1801.0748
0
3DFACE
8
0
10
122.97786
20
503.2774
30
-1801.075
11
110.44699
21
584.86127
31
-1728.9188
12
123.330185
22
535.6275
32
-1819.0466
13
123.330284
23
535.6276
33
-1819.0465
0
3DFACE
8
0
10
122.97786
20
503.2774
30
-1801.075
11
123.330185
21
535.6275
31
-1819.0466
12
59.84767
22
463.6043
32
-1871.9814
13
59.84777
23
463.6044
33
-1871.9813
0
3DFACE
8
0
10
59.84767
20
463.6043
30
-1871.9814
11
123.330185
21
535.6275
31
-1819.0466
12
59.825836
22
495.7193
32
-1890.3733
13
59.825935
23
495.7194
33
-1890.3732
0
3DFACE
8
0
10
59.825836
20
495.7193
30
-1890.3733
11
58.236153
21
529.14276
31
-1906.3411
12
-42.86608
22
488.51428
32
-1901.1165
13
-42.865982
23
488.51437
33
-1901.1163
0
3DFACE
8
0
10
-42.86608
20
488.51428
30
-1901.1165
11
58.236153
21
529.14276
31
-1906.3411
12
-42.654037
22
522.06415
32
-1916.896
13
-42.65394
23
522.0643
33
-1916.8959
0
3DFACE
8
0
10
-42.86608
20
488.51428
30
-1901.1165
11
-42.654037
21
522.06415
31
-1916.896
12
-124.59003
22
518.2331
32
-1844.9832
13
-124.58993
23
518.2332
33
-1844.983
0
3DFACE
8
0
10
-124.59003
20
518.2331
30
-1844.9832
11
-42.654037
21
522.06415
31
-1916.896
12
-122.94413
22
551.26154
32
-1861.7476
13
-122.94403
23
551.26166
33
-1861.7474
0
3DFACE
8
0
10
-124.59003
20
518.2331
30
-1844.9832
11
-122.94413
21
551.26154
31
-1861.7476
12
-137.47322
22
567.4668
32
-1754.8555
13
-137.47311
23
567.4669
33
-1754.8553
0
3DFACE
8
0
10
-137.47322
20
567.4668
30
-1754.8555
11
-122.94413
21
551.26154
31
-1861.7476
12
-135.60129
22
599.6315
32
-1773.2009
13
-135.60118
23
599.6316
33
-1773.2008
0
3DFACE
8
0
10
-137.47322
20
567.4668
30
-1754.8555
11
-135.60129
21
599.6315
31
-1773.2009
12
-73.968864
22
607.37506
32
-1683.5288
13
-73.968765
23
607.3752
33
-1683.5287
0
3DFACE
8
0
10
-73.968864
20
607.37506
30
-1683.5288
11
-135.60129
21
599.6315
31
-1773.2009
12
-73.21112
22
638.83954
32
-1703.1257
13
-73.21102
23
638.83966
33
-1703.1256
0
3DFACE
8
0
10
-73.968864
20
607.37506
30
-1683.5288
11
-73.21112
21
638.83954
31
-1703.1257
12
28.723068
22
614.5801
32
-1672.7854
13
28.723167
23
614.5802
33
-1672.7853
0
3DFACE
8
0
10
28.723068
20
614.5801
30
-1672.7854
11
-73.21112
21
638.83954
31
-1703.1257
12
27.67908
22
645.91815
32
-1692.571
13
27.679178
23
645.9183
33
-1692.5709
0
3DFACE
8
0
10
28.723068
20
614.5801
30
-1672.7854
11
27.67908
21
645.91815
31
-1692.571
12
110.44699
22
584.86127
32
-1728.9188
13
110.44709
23
584.8614
33
-1728.9187
0
3DFACE
8
0
10
110.44699
20
584.86127
30
-1728.9188
11
27.67908
21
645.91815
31
-1692.571
12
107.969154
22
616.72076
32
-1747.7195
13
107.96925
23
616.7209
33
-1747.7194
0
3DFACE
8
0
10
110.44699
20
584.86127
30
-1728.9188
11
107.969154
21
616.72076
31
-1747.7195
12
123.330185
22
535.6275
32
-1819.0466
13
123.330284
23
535.6276
33
-1819.0465
0
3DFACE
8
0
10
123.330185
20
535.6275
30
-1819.0466
11
107.969154
21
616.72076
31
-1747.7195
12
120.6263
22
568.35077
32
-1836.266
13
120.626396
23
568.3509
33
-1836.2659
0
3DFACE
8
0
10
123.330185
20
535.6275
30
-1819.0466
11
120.6263
21
568.35077
31
-1836.266
12
59.825836
22
495.7193
32
-1890.3733
13
59.825935
23
495.7194
33
-1890.3732
0
3DFACE
8
0
10
59.825836
20
495.7193
30
-1890.3733
11
120.6263
21
568.35077
31
-1836.266
12
58.236153
22
529.14276
32
-1906.3411
13
58.23625
23
529.1429
33
-1906.341
0
3DFACE
8
0
10
58.236153
20
529.14276
30
-1906.3411
11
55.16086
21
563.806
31
-1920.0123
12
-42.654037
22
522.06415
32
-1916.896
13
-42.65394
23
522.0643
33
-1916.8959
0
3DFACE
8
0
10
-42.654037
20
522.06415
30
-1916.896
11
55.16086
21
563.806
31
-1920.0123
12
-41.647087
22
557.0138
32
-1930.1401
13
-41.646988
23
557.0139
33
-1930.14
0
3DFACE
8
0
10
-42.654037
20
522.06415
30
-1916.896
11
-41.647087
21
557.0138
31
-1930.1401
12
-122.94413
22
551.26154
32
-1861.7476
13
-122.94403
23
551.26166
33
-1861.7474
0
3DFACE
8
0
10
-122.94413
20
551.26154
30
-1861.7476
11
-41.647087
21
557.0138
31
-1930.1401
12
-118.68847
22
585.02985
32
-1877.2231
13
-118.68837
23
585.02997
33
-1877.223
0
3DFACE
8
0
10
-122.94413
20
551.26154
30
-1861.7476
11
-118.68847
21
585.02985
31
-1877.2231
12
-135.60129
22
599.6315
32
-1773.2009
13
-135.60118
23
599.6316
33
-1773.2008
0
3DFACE
8
0
10
-135.60129
20
599.6315
30
-1773.2009
11
-118.68847
21
585.02985
31
-1877.2231
12
-130.8335
22
631.4426
32
-1792.2594
13
-130.83339
23
631.44275
33
-1792.2593
0
3DFACE
8
0
10
-135.60129
20
599.6315
30
-1773.2009
11
-130.8335
21
631.4426
31
-1792.2594
12
-73.21112
22
638.83954
32
-1703.1257
13
-73.21102
23
638.83966
33
-1703.1256
0
3DFACE
8
0
10
-73.21112
20
638.83954
30
-1703.1257
11
-130.8335
21
631.4426
31
-1792.2594
12
-70.96776
22
669.0642
32
-1725.0195
13
-70.96766
23
669.06433
33
-1725.0194
0
3DFACE
8
0
10
-73.21112
20
638.83954
30
-1703.1257
11
-70.96776
21
669.0642
31
-1725.0195
12
27.67908
22
645.91815
32
-1692.571
13
27.679178
23
645.9183
33
-1692.5709
0
3DFACE
8
0
10
27.67908
20
645.91815
30
-1692.571
11
-70.96776
21
669.0642
31
-1725.0195
12
25.840189
22
675.8564
32
-1714.8918
13
25.840288
23
675.8565
33
-1714.8917
0
3DFACE
8
0
10
27.67908
20
645.91815
30
-1692.571
11
25.840189
21
675.8564
31
-1714.8918
12
107.969154
22
616.72076
32
-1747.7195
13
107.96925
23
616.7209
33
-1747.7194
0
3DFACE
8
0
10
107.969154
20
616.72076
30
-1747.7195
11
25.840189
21
675.8564
31
-1714.8918
12
102.88155
22
647.8404
32
-1767.8088
13
102.88165
23
647.8405
33
-1767.8087
0
3DFACE
8
0
10
107.969154
20
616.72076
30
-1747.7195
11
102.88155
21
647.8404
31
-1767.8088
12
120.6263
22
568.35077
32
-1836.266
13
120.626396
23
568.3509
33
-1836.2659
0
3DFACE
8
0
10
120.6263
20
568.35077
30
-1836.266
11
102.88155
21
647.8404
31
-1767.8088
12
115.026566
22
601.4276
32
-1852.7726
13
115.026665
23
601.42773
33
-1852.7725
0
3DFACE
8
0
10
120.6263
20
568.35077
30
-1836.266
11
115.026566
21
601.4276
31
-1852.7726
12
58.236153
22
529.14276
32
-1906.3411
13
58.23625
23
529.1429
33
-1906.341
0
3DFACE
8
0
10
58.236153
20
529.14276
30
-1906.3411
11
115.026566
21
601.4276
31
-1852.7726
12
55.16086
22
563.806
32
-1920.0123
13
55.160957
23
563.80615
33
-1920.0122
0
3DFACE
8
0
10
55.16086
20
563.806
30
-1920.0123
11
50.78627
21
599.5536
31
-1931.6749
12
-41.647087
22
557.0138
32
-1930.1401
13
-41.646988
23
557.0139
33
-1930.14
0
3DFACE
8
0
10
-41.647087
20
557.0138
30
-1930.1401
11
50.78627
21
599.5536
31
-1931.6749
12
-39.94493
22
593.18774
32
-1941.1669
13
-39.94483
23
593.18787
33
-1941.1667
0
3DFACE
8
0
10
-41.647087
20
557.0138
30
-1930.1401
11
-39.94493
21
593.18774
31
-1941.1669
12
-118.68847
22
585.02985
32
-1877.2231
13
-118.68837
23
585.02997
33
-1877.223
0
3DFACE
8
0
10
-118.68847
20
585.02985
30
-1877.2231
11
-39.94493
21
593.18774
31
-1941.1669
12
-112.150345
22
619.4451
32
-1891.5715
13
-112.150246
23
619.44525
33
-1891.5714
0
3DFACE
8
0
10
-118.68847
20
585.02985
30
-1877.2231
11
-112.150345
21
619.4451
31
-1891.5715
12
-130.8335
22
631.4426
32
-1792.2594
13
-130.83339
23
631.44275
33
-1792.2593
0
3DFACE
8
0
10
-130.8335
20
631.4426
30
-1792.2594
11
-112.150345
21
619.4451
31
-1891.5715
12
-123.53302
22
662.9445
32
-1811.941
13
-123.53292
23
662.94464
33
-1811.9409
0
3DFACE
8
0
10
-130.8335
20
631.4426
30
-1792.2594
11
-123.53302
21
662.9445
31
-1811.941
12
-70.96776
22
669.0642
32
-1725.0195
13
-70.96766
23
669.06433
33
-1725.0194
0
3DFACE
8
0
10
-70.96776
20
669.0642
30
-1725.0195
11
-123.53302
21
662.9445
31
-1811.941
12
-67.425125
22
698.2046
32
-1748.922
13
-67.425026
23
698.2047
33
-1748.9219
0
3DFACE
8
0
10
-70.96776
20
669.0642
30
-1725.0195
11
-67.425125
21
698.2046
31
-1748.922
12
25.840189
22
675.8564
32
-1714.8918
13
25.840288
23
675.8565
33
-1714.8917
0
3DFACE
8
0
10
25.840189
20
675.8564
30
-1714.8918
11
-67.425125
21
698.2046
31
-1748.922
12
23.306097
22
704.57043
32
-1739.4299
13
23.306196
23
704.57056
33
-1739.4298
0
3DFACE
8
0
10
25.840189
20
675.8564
30
-1714.8918
11
23.306097
21
704.57043
31
-1739.4299
12
102.88155
22
647.8404
32
-1767.8088
13
102.88165
23
647.8405
33
-1767.8087
0
3DFACE
8
0
10
102.88155
20
647.8404
30
-1767.8088
11
23.306097
21
704.57043
31
-1739.4299
12
95.51149
22
678.31305
32
-1789.0254
13
95.51159
23
678.3132
33
-1789.0253
0
3DFACE
8
0
10
102.88155
20
647.8404
30
-1767.8088
11
95.51149
21
678.31305
31
-1789.0254
12
115.026566
22
601.4276
32
-1852.7726
13
115.026665
23
601.42773
33
-1852.7725
0
3DFACE
8
0
10
115.026566
20
601.4276
30
-1852.7726
11
95.51149
21
678.31305
31
-1789.0254
12
106.89415
22
634.8136
32
-1868.6558
13
106.89425
23
634.8137
33
-1868.6556
0
3DFACE
8
0
10
115.026566
20
601.4276
30
-1852.7726
11
106.89415
21
634.8136
31
-1868.6558
12
55.16086
22
563.806
32
-1920.0123
13
55.160957
23
563.80615
33
-1920.0122
0
3DFACE
8
0
10
55.16086
20
563.806
30
-1920.0123
11
106.89415
21
634.8136
31
-1868.6558
12
50.78627
22
599.5536
32
-1931.6749
13
50.78637
23
599.5537
33
-1931.6748
0
3DFACE
8
0
10
50.78627
20
599.5536
30
-1931.6749
11
45.389786
21
636.1539
31
-1941.7576
12
-39.94493
22
593.18774
32
-1941.1669
13
-39.94483
23
593.18787
33
-1941.1667
0
3DFACE
8
0
10
-39.94493
20
593.18774
30
-1941.1669
11
45.389786
21
636.1539
31
-1941.7576
12
-37.69599
22
630.32446
32
-1950.4497
13
-37.695892
23
630.3246
33
-1950.4496
0
3DFACE
8
0
10
-39.94493
20
593.18774
30
-1941.1669
11
-37.69599
21
630.32446
31
-1950.4497
12
-112.150345
22
619.4451
32
-1891.5715
13
-112.150246
23
619.44525
33
-1891.5714
0
3DFACE
8
0
10
-112.150345
20
619.4451
30
-1891.5715
11
-37.69599
21
630.32446
31
-1950.4497
12
-103.81704
22
654.36926
32
-1905.0334
13
-103.81694
23
654.3694
33
-1905.0333
0
3DFACE
8
0
10
-112.150345
20
619.4451
30
-1891.5715
11
-103.81704
21
654.36926
31
-1905.0334
12
-123.53302
22
662.9445
32
-1811.941
13
-123.53292
23
662.94464
33
-1811.9409
0
3DFACE
8
0
10
-123.53302
20
662.9445
30
-1811.941
11
-103.81704
21
654.36926
31
-1905.0334
12
-114.240555
22
694.20325
32
-1832.113
13
-114.240456
23
694.20337
33
-1832.1129
0
3DFACE
8
0
10
-123.53302
20
662.9445
30
-1811.941
11
-114.240555
21
694.20325
31
-1832.113
12
-67.425125
22
698.2046
32
-1748.922
13
-67.425026
23
698.2047
33
-1748.9219
0
3DFACE
8
0
10
-67.425125
20
698.2046
30
-1748.922
11
-114.240555
21
694.20325
31
-1832.113
12
-62.860573
22
726.4921
32
-1774.4043
13
-62.860474
23
726.49225
33
-1774.4042
0
3DFACE
8
0
10
-67.425125
20
698.2046
30
-1748.922
11
-62.860573
21
726.4921
31
-1774.4043
12
23.306097
22
704.57043
32
-1739.4299
13
23.306196
23
704.57056
33
-1739.4298
0
3DFACE
8
0
10
23.306097
20
704.57043
30
-1739.4299
11
-62.860573
21
726.4921
31
-1774.4043
12
20.225212
22
732.32153
32
-1765.7122
13
20.225311
23
732.32166
33
-1765.712
0
3DFACE
8
0
10
23.306097
20
704.57043
30
-1739.4299
11
20.225212
21
732.32153
31
-1765.7122
12
95.51149
22
678.31305
32
-1789.0254
13
95.51159
23
678.3132
33
-1789.0253
0
3DFACE
8
0
10
95.51149
20
678.31305
30
-1789.0254
11
20.225212
21
732.32153
31
-1765.7122
12
86.346245
22
708.27673
32
-1811.1284
13
86.346344
23
708.27686
33
-1811.1283
0
3DFACE
8
0
10
95.51149
20
678.31305
30
-1789.0254
11
86.346245
21
708.27673
31
-1811.1284
12
106.89415
22
634.8136
32
-1868.6558
13
106.89425
23
634.8137
33
-1868.6556
0
3DFACE
8
0
10
106.89415
20
634.8136
30
-1868.6558
11
86.346245
21
708.27673
31
-1811.1284
12
96.76976
22
668.44275
32
-1884.0488
13
96.76986
23
668.4429
33
-1884.0487
0
3DFACE
8
0
10
106.89415
20
634.8136
30
-1868.6558
11
96.76976
21
668.44275
31
-1884.0488
12
50.78627
22
599.5536
32
-1931.6749
13
50.78637
23
599.5537
33
-1931.6748
0
3DFACE
8
0
10
50.78627
20
599.5536
30
-1931.6749
11
96.76976
21
668.44275
31
-1884.0488
12
45.389786
22
636.1539
32
-1941.7576
13
45.389885
23
636.154
33
-1941.7574
0
3DFACE
8
0
10
45.389786
20
636.1539
30
-1941.7576
11
39.32035
21
673.31586
31
-1950.7999
12
-37.69599
22
630.32446
32
-1950.4497
13
-37.695892
23
630.3246
33
-1950.4496
0
3DFACE
8
0
10
-37.69599
20
630.32446
30
-1950.4497
11
39.32035
21
673.31586
31
-1950.7999
12
-35.08699
22
668.0953
32
-1958.5842
13
-35.08689
23
668.0954
33
-1958.5841
0
3DFACE
8
0
10
-37.69599
20
630.32446
30
-1950.4497
11
-35.08699
21
668.0953
31
-1958.5842
12
-103.81704
22
654.36926
32
-1905.0334
13
-103.81694
23
654.3694
33
-1905.0333
0
3DFACE
8
0
10
-103.81704
20
654.36926
30
-1905.0334
11
-35.08699
21
668.0953
31
-1958.5842
12
-94.30159
22
689.6286
32
-1917.9117
13
-94.30149
23
689.6287
33
-1917.9116
0
3DFACE
8
0
10
-103.81704
20
654.36926
30
-1905.0334
11
-94.30159
21
689.6286
31
-1917.9117
12
-114.240555
22
694.20325
32
-1832.113
13
-114.240456
23
694.20337
33
-1832.1129
0
3DFACE
8
0
10
-114.240555
20
694.20325
30
-1832.113
11
-94.30159
21
689.6286
31
-1917.9117
12
-103.63635
22
725.3018
32
-1852.6079
13
-103.63625
23
725.30194
33
-1852.6078
0
3DFACE
8
0
10
-114.240555
20
694.20325
30
-1832.113
11
-103.63635
21
725.3018
31
-1852.6079
12
-62.860573
22
726.4921
32
-1774.4043
13
-62.860474
23
726.49225
33
-1774.4042
0
3DFACE
8
0
10
-62.860573
20
726.4921
30
-1774.4043
11
-103.63635
21
725.3018
31
-1852.6079
12
-57.623093
22
754.2181
32
-1800.9269
13
-57.622993
23
754.2182
33
-1800.9268
0
3DFACE
8
0
10
-62.860573
20
726.4921
30
-1774.4043
11
-57.623093
21
754.2181
31
-1800.9269
12
20.225212
22
732.32153
32
-1765.7122
13
20.225311
23
732.32166
33
-1765.712
0
3DFACE
8
0
10
20.225212
20
732.32153
30
-1765.7122
11
-57.623093
21
754.2181
31
-1800.9269
12
16.784258
22
759.43866
32
-1793.1426
13
16.784357
23
759.4388
33
-1793.1425
0
3DFACE
8
0
10
20.225212
20
732.32153
30
-1765.7122
11
16.784258
21
759.43866
31
-1793.1426
12
86.346245
22
708.27673
32
-1811.1284
13
86.346344
23
708.27686
33
-1811.1283
0
3DFACE
8
0
10
86.346245
20
708.27673
30
-1811.1284
11
16.784258
21
759.43866
31
-1793.1426
12
75.998856
22
737.90533
32
-1833.8151
13
75.998955
23
737.90546
33
-1833.815
0
3DFACE
8
0
10
86.346245
20
708.27673
30
-1811.1284
11
75.998856
21
737.90533
31
-1833.8151
12
96.76976
22
668.44275
32
-1884.0488
13
96.76986
23
668.4429
33
-1884.0487
0
3DFACE
8
0
10
96.76976
20
668.44275
30
-1884.0488
11
75.998856
21
737.90533
31
-1833.8151
12
85.3336
22
702.23206
32
-1899.1189
13
85.3337
23
702.2322
33
-1899.1188
0
3DFACE
8
0
10
96.76976
20
668.44275
30
-1884.0488
11
85.3336
21
702.23206
31
-1899.1189
12
45.389786
22
636.1539
32
-1941.7576
13
45.389885
23
636.154
33
-1941.7574
0
3DFACE
8
0
10
45.389786
20
636.1539
30
-1941.7576
11
85.3336
21
702.23206
31
-1899.1189
12
39.32035
22
673.31586
32
-1950.7999
13
39.32045
23
673.316
33
-1950.7998
0
3DFACE
8
0
10
39.32035
20
673.31586
30
-1950.7999
11
32.97412
21
710.7088
31
-1959.4143
12
-35.08699
22
668.0953
32
-1958.5842
13
-35.08689
23
668.0954
33
-1958.5841
0
3DFACE
8
0
10
-35.08699
20
668.0953
30
-1958.5842
11
32.97412
21
710.7088
31
-1959.4143
12
-32.329872
22
706.12695
32
-1966.2462
13
-32.329773
23
706.1271
33
-1966.2461
0
3DFACE
8
0
10
-35.08699
20
668.0953
30
-1958.5842
11
-32.329872
21
706.12695
31
-1966.2462
12
-94.30159
22
689.6286
32
-1917.9117
13
-94.30149
23
689.6287
33
-1917.9116
0
3DFACE
8
0
10
-94.30159
20
689.6286
30
-1917.9117
11
-32.329872
21
706.12695
31
-1966.2462
12
-84.29988
22
725.02576
32
-1930.5498
13
-84.29978
23
725.0259
33
-1930.5497
0
3DFACE
8
0
10
-94.30159
20
689.6286
30
-1917.9117
11
-84.29988
21
725.02576
31
-1930.5498
12
-103.63635
22
725.3018
32
-1852.6079
13
-103.63625
23
725.30194
33
-1852.6078
0
3DFACE
8
0
10
-103.63635
20
725.3018
30
-1852.6079
11
-84.29988
21
725.02576
31
-1930.5498
12
-92.492584
22
756.3346
32
-1873.2356
13
-92.492485
23
756.3347
33
-1873.2355
0
3DFACE
8
0
10
-103.63635
20
725.3018
30
-1852.6079
11
-92.492584
21
756.3346
31
-1873.2356
12
-57.623093
22
754.2181
32
-1800.9269
13
-57.622993
23
754.2182
33
-1800.9268
0
3DFACE
8
0
10
-57.623093
20
754.2181
30
-1800.9269
11
-92.492584
21
756.3346
31
-1873.2356
12
-52.108795
22
781.7131
32
-1827.8774
13
-52.108696
23
781.7132
33
-1827.8773
0
3DFACE
8
0
10
-57.623093
20
754.2181
30
-1800.9269
11
-52.108795
21
781.7131
31
-1827.8774
12
16.784258
22
759.43866
32
-1793.1426
13
16.784357
23
759.4388
33
-1793.1425
0
3DFACE
8
0
10
16.784258
20
759.43866
30
-1793.1426
11
-52.108795
21
781.7131
31
-1827.8774
12
13.195202
22
786.2949
32
-1821.0457
13
13.195302
23
786.29504
33
-1821.0455
0
3DFACE
8
0
10
16.784258
20
759.43866
30
-1793.1426
11
13.195202
21
786.2949
31
-1821.0457
12
75.998856
22
737.90533
32
-1833.8151
13
75.998955
23
737.90546
33
-1833.815
0
3DFACE
8
0
10
75.998856
20
737.90533
30
-1833.8151
11
13.195202
21
786.2949
31
-1821.0457
12
65.16519
22
767.3961
32
-1856.742
13
65.16529
23
767.39624
33
-1856.7418
0
3DFACE
8
0
10
75.998856
20
737.90533
30
-1833.8151
11
65.16519
21
767.3961
31
-1856.742
12
85.3336
22
702.23206
32
-1899.1189
13
85.3337
23
702.2322
33
-1899.1188
0
3DFACE
8
0
10
85.3336
20
702.23206
30
-1899.1189
11
65.16519
21
767.3961
31
-1856.742
12
73.357895
22
736.0873
32
-1914.0562
13
73.357994
23
736.0874
33
-1914.056
0
3DFACE
8
0
10
85.3336
20
702.23206
30
-1899.1189
11
73.357895
21
736.0873
31
-1914.0562
12
39.32035
22
673.31586
32
-1950.7999
13
39.32045
23
673.316
33
-1950.7998
0
3DFACE
8
0
10
39.32035
20
673.31586
30
-1950.7999
11
73.357895
21
736.0873
31
-1914.0562
12
32.97412
22
710.7088
32
-1959.4143
13
32.97422
23
710.7089
33
-1959.4142
0
3DFACE
8
0
10
32.97412
20
710.7088
30
-1959.4143
11
26.7666
21
747.9859
31
-1968.2432
12
-32.329872
22
706.12695
32
-1966.2462
13
-32.329773
23
706.1271
33
-1966.2461
0
3DFACE
8
0
10
-32.329872
20
706.12695
30
-1966.2462
11
26.7666
21
747.9859
31
-1968.2432
12
-29.646975
22
744.02783
32
-1974.145
13
-29.646875
23
744.02795
33
-1974.1449
0
3DFACE
8
0
10
-32.329872
20
706.12695
30
-1966.2462
11
-29.646975
21
744.02783
31
-1974.145
12
-84.29988
22
725.02576
32
-1930.5498
13
-84.29978
23
725.0259
33
-1930.5497
0
3DFACE
8
0
10
-84.29988
20
725.02576
30
-1930.5498
11
-29.646975
21
744.02783
31
-1974.145
12
-74.54184
22
760.3538
32
-1943.3082
13
-74.54174
23
760.35394
33
-1943.3081
0
3DFACE
8
0
10
-84.29988
20
725.02576
30
-1930.5498
11
-74.54184
21
760.3538
31
-1943.3082
12
-92.492584
22
756.3346
32
-1873.2356
13
-92.492485
23
756.3347
33
-1873.2355
0
3DFACE
8
0
10
-92.492584
20
756.3346
30
-1873.2356
11
-74.54184
21
760.3538
31
-1943.3082
12
-81.61919
22
787.40027
32
-1893.7968
13
-81.61909
23
787.4004
33
-1893.7966
0
3DFACE
8
0
10
-92.492584
20
756.3346
30
-1873.2356
11
-81.61919
21
787.40027
31
-1893.7968
12
-52.108795
22
781.7131
32
-1827.8774
13
-52.108696
23
781.7132
33
-1827.8773
0
3DFACE
8
0
10
-52.108795
20
781.7131
30
-1827.8774
11
-81.61919
21
787.40027
31
-1893.7968
12
-46.733223
22
809.3238
32
-1854.6136
13
-46.733124
23
809.3239
33
-1854.6135
0
3DFACE
8
0
10
-52.108795
20
781.7131
30
-1827.8774
11
-46.733223
21
809.3238
31
-1854.6136
12
13.195202
22
786.2949
32
-1821.0457
13
13.195302
23
786.29504
33
-1821.0455
0
3DFACE
8
0
10
13.195202
20
786.2949
30
-1821.0457
11
-46.733223
21
809.3238
31
-1854.6136
12
9.680359
22
813.28186
32
-1848.7118
13
9.680459
23
813.282
33
-1848.7117
0
3DFACE
8
0
10
13.195202
20
786.2949
30
-1821.0457
11
9.680359
21
813.28186
31
-1848.7118
12
65.16519
22
767.3961
32
-1856.742
13
65.16529
23
767.39624
33
-1856.7418
0
3DFACE
8
0
10
65.16519
20
767.3961
30
-1856.742
11
9.680359
21
813.28186
31
-1848.7118
12
54.57521
22
796.9559
32
-1879.5486
13
54.57531
23
796.956
33
-1879.5485
0
3DFACE
8
0
10
65.16519
20
767.3961
30
-1856.742
11
54.57521
21
796.9559
31
-1879.5486
12
73.357895
22
736.0873
32
-1914.0562
13
73.357994
23
736.0874
33
-1914.056
0
3DFACE
8
0
10
73.357895
20
736.0873
30
-1914.0562
11
54.57521
21
796.9559
31
-1879.5486
12
61.652557
22
769.9094
32
-1929.06
13
61.652657
23
769.90955
33
-1929.0599
0
3DFACE
8
0
10
73.357895
20
736.0873
30
-1914.0562
11
61.652557
21
769.9094
31
-1929.06
12
32.97412
22
710.7088
32
-1959.4143
13
32.97422
23
710.7089
33
-1959.4142
0
3DFACE
8
0
10
32.97412
20
710.7088
30
-1959.4143
11
61.652557
21
769.9094
31
-1929.06
12
26.7666
22
747.9859
32
-1968.2432
13
26.766699
23
747.986
33
-1968.243
0
3DFACE
8
0
10
43.584053
20
-36.372234
30
-1552.0289
11
38.637253
21
-32.243984
31
-1544.3812
12
-20.673542
22
-36.40532
32
-1550.5862
13
-20.673443
23
-36.40522
33
-1550.586
0
3DFACE
8
0
10
-20.673542
20
-36.40532
30
-1550.5862
11
-23.320406
21
-41.066353
31
-1559.0283
12
43.584053
22
-36.372234
32
-1552.0289
13
43.584152
23
-36.372135
33
-1552.0288
0
3DFACE
8
0
10
26.050386
20
780.6805
30
-1985.5615
11
-10.399283
21
811.0988
31
-1929.2109
12
-29.902292
22
776.7547
32
-1991.415
13
-29.902193
23
776.7548
33
-1991.4149
0
3DFACE
8
0
10
26.7666
20
747.9859
30
-1968.2432
11
-9.983313
21
778.65485
31
-1911.4283
12
-29.646975
22
744.02783
32
-1974.145
13
-29.646875
23
744.02795
33
-1974.1449
0
3DFACE
8
0
10
-23.320406
20
-41.066353
30
-1559.0283
11
-20.673542
21
-36.40532
31
-1550.5862
12
-67.87407
22
-19.240913
32
-1518.1658
13
-67.87397
23
-19.240814
33
-1518.1656
0
3DFACE
8
0
10
-67.87407
20
-19.240913
30
-1518.1658
11
-76.564095
21
-21.704361
31
-1522.457
12
-23.320406
22
-41.066353
32
-1559.0283
13
-23.320307
23
-41.066254
33
-1559.0282
0
3DFACE
8
0
10
-29.902292
20
776.7547
30
-1991.415
11
-10.399283
21
811.0988
31
-1929.2109
12
-74.430374
22
792.9473
32
-1960.8303
13
-74.430275
23
792.94745
33
-1960.8302
0
3DFACE
8
0
10
-29.646975
20
744.02783
30
-1974.145
11
-9.983313
21
778.65485
31
-1911.4283
12
-74.54184
22
760.3538
32
-1943.3082
13
-74.54174
23
760.35394
33
-1943.3081
0
3DFACE
8
0
10
-76.564095
20
-21.704361
30
-1522.457
11
-67.87407
21
-19.240913
31
-1518.1658
12
-75.314896
22
9.194557
32
-1466.1116
13
-75.3148
23
9.194657
33
-1466.1115
0
3DFACE
8
0
10
-75.314896
20
9.194557
30
-1466.1116
11
-84.95758
21
10.371753
31
-1463.7382
12
-76.564095
22
-21.704361
32
-1522.457
13
-76.563995
23
-21.704262
33
-1522.4569
0
3DFACE
8
0
10
-74.430374
20
792.9473
30
-1960.8303
11
-10.399283
21
811.0988
31
-1929.2109
12
-81.44991
22
819.77277
32
-1911.7233
13
-81.449814
23
819.7729
33
-1911.7231
0
3DFACE
8
0
10
-74.54184
20
760.3538
30
-1943.3082
11
-9.983313
21
778.65485
31
-1911.4283
12
-81.61919
22
787.40027
32
-1893.7968
13
-81.61909
23
787.4004
33
-1893.7966
0
3DFACE
8
0
10
-84.95758
20
10.371753
30
-1463.7382
11
-75.314896
21
9.194557
31
-1466.1116
12
-38.637283
22
32.243984
32
-1424.9161
13
-38.637184
23
32.244083
33
-1424.916
0
3DFACE
8
0
10
-38.637283
20
32.243984
30
-1424.9161
11
-43.584076
21
36.372234
31
-1417.2684
12
-84.95758
22
10.371753
32
-1463.7382
13
-84.95748
23
10.371853
33
-1463.738
0
3DFACE
8
0
10
-81.44991
20
819.77277
30
-1911.7233
11
-10.399283
21
811.0988
31
-1929.2109
12
-46.848946
22
841.51715
32
-1872.8604
13
-46.848846
23
841.5173
33
-1872.8602
0
3DFACE
8
0
10
-81.61919
20
787.40027
30
-1893.7968
11
-9.983313
21
778.65485
31
-1911.4283
12
-46.733223
22
809.3238
32
-1854.6136
13
-46.733124
23
809.3239
33
-1854.6135
0
3DFACE
8
0
10
-43.584076
20
36.372234
30
-1417.2684
11
-38.637283
21
32.243984
31
-1424.9161
12
20.67352
22
36.40532
32
-1418.7112
13
20.673618
23
36.40542
33
-1418.711
0
3DFACE
8
0
10
20.67352
20
36.40532
30
-1418.7112
11
23.320387
21
41.066353
31
-1410.269
12
-43.584076
22
36.372234
32
-1417.2684
13
-43.583977
23
36.372334
33
-1417.2683
0
3DFACE
8
0
10
-46.848946
20
841.51715
30
-1872.8604
11
-10.399283
21
811.0988
31
-1929.2109
12
9.10374
22
845.4429
32
-1867.0067
13
9.10384
23
845.443
33
-1867.0066
0
3DFACE
8
0
10
-46.733223
20
809.3238
30
-1854.6136
11
-9.983313
21
778.65485
31
-1911.4283
12
9.680359
22
813.28186
32
-1848.7118
13
9.680459
23
813.282
33
-1848.7117
0
3DFACE
8
0
10
23.320387
20
41.066353
30
-1410.269
11
20.67352
21
36.40532
31
-1418.7112
12
67.87404
22
19.240915
32
-1451.1316
13
67.87414
23
19.241014
33
-1451.1315
0
3DFACE
8
0
10
67.87404
20
19.240915
30
-1451.1316
11
76.564064
21
21.704363
31
-1446.8403
12
23.320387
22
41.066353
32
-1410.269
13
23.320486
23
41.066452
33
-1410.2689
0
3DFACE
8
0
10
9.10374
20
845.4429
30
-1867.0067
11
-10.399283
21
811.0988
31
-1929.2109
12
53.631805
22
829.2503
32
-1897.5914
13
53.631905
23
829.2504
33
-1897.5913
0
3DFACE
8
0
10
9.680359
20
813.28186
30
-1848.7118
11
-9.983313
21
778.65485
31
-1911.4283
12
54.57521
22
796.9559
32
-1879.5486
13
54.57531
23
796.956
33
-1879.5485
0
3DFACE
8
0
10
76.564064
20
21.704363
30
-1446.8403
11
67.87404
21
19.240915
31
-1451.1316
12
75.31486
22
-9.194569
32
-1503.1858
13
75.31496
23
-9.1944685
33
-1503.1857
0
3DFACE
8
0
10
75.31486
20
-9.194569
30
-1503.1858
11
84.95755
21
-10.371766
31
-1505.5592
12
76.564064
22
21.704363
32
-1446.8403
13
76.56416
23
21.704462
33
-1446.8402
0
3DFACE
8
0
10
53.631805
20
829.2503
30
-1897.5914
11
-10.399283
21
811.0988
31
-1929.2109
12
60.65133
22
802.4248
32
-1946.6985
13
60.65143
23
802.4249
33
-1946.6984
0
3DFACE
8
0
10
54.57521
20
796.9559
30
-1879.5486
11
-9.983313
21
778.65485
31
-1911.4283
12
61.652557
22
769.9094
32
-1929.06
13
61.652657
23
769.90955
33
-1929.0599
0
3DFACE
8
0
10
84.95755
20
-10.371766
30
-1505.5592
11
75.31486
21
-9.194569
31
-1503.1858
12
38.637253
22
-32.243984
32
-1544.3812
13
38.637352
23
-32.243885
33
-1544.3811
0
3DFACE
8
0
10
38.637253
20
-32.243984
30
-1544.3812
11
43.584053
21
-36.372234
31
-1552.0289
12
84.95755
22
-10.371766
32
-1505.5592
13
84.95765
23
-10.371666
33
-1505.5591
0
3DFACE
8
0
10
60.65133
20
802.4248
30
-1946.6985
11
-10.399283
21
811.0988
31
-1929.2109
12
26.050386
22
780.6805
32
-1985.5615
13
26.050486
23
780.6806
33
-1985.5614
0
3DFACE
8
0
10
61.652557
20
769.9094
30
-1929.06
11
-9.983313
21
778.65485
31
-1911.4283
12
26.7666
22
747.9859
32
-1968.2432
13
26.766699
23
747.986
33
-1968.243
0
ENDSEC
0
EOF
