0
SECTION
2
ENTITIES
0
3DFACE
8
0
10
17.359413
20
62.632637
30
-1101.0573
11
11.966705
21
65.6123
31
-1121.054
12
83.77892
22
-2.1301289
32
-1181.6237
13
83.77902
23
-2.130029
33
-1181.6235
0
3DFACE
8
0
10
83.77892
20
-2.1301289
30
-1181.6237
11
11.966705
21
65.6123
31
-1121.054
12
69.05984
22
9.943278
32
-1190.3075
13
69.05994
23
9.943378
33
-1190.3074
0
3DFACE
8
0
10
83.77892
20
-2.1301289
30
-1181.6237
11
69.05984
21
9.943278
31
-1190.3075
12
-17.35942
22
-62.632637
32
-1216.3683
13
-17.359322
23
-62.632538
33
-1216.3682
0
3DFACE
8
0
10
-17.35942
20
-62.632637
30
-1216.3683
11
69.05984
21
9.943278
31
-1190.3075
12
-17.87704
22
-42.063694
32
-1220.1735
13
-17.876942
23
-42.063595
33
-1220.1733
0
3DFACE
8
0
10
-17.35942
20
-62.632637
30
-1216.3683
11
-17.87704
21
-42.063694
31
-1220.1735
12
-83.77892
22
2.130127
32
-1135.8019
13
-83.778824
23
2.1302269
33
-1135.8018
0
3DFACE
8
0
10
-83.77892
20
2.130127
30
-1135.8019
11
-17.87704
21
-42.063694
31
-1220.1735
12
-74.97016
22
13.605325
32
-1150.9199
13
-74.97006
23
13.605425
33
-1150.9198
0
3DFACE
8
0
10
-83.77892
20
2.130127
30
-1135.8019
11
-74.97016
21
13.605325
31
-1150.9199
12
17.359413
22
62.632637
32
-1101.0573
13
17.359512
23
62.632736
33
-1101.0571
0
3DFACE
8
0
10
17.359413
20
62.632637
30
-1101.0573
11
-74.97016
21
13.605325
31
-1150.9199
12
11.966705
22
65.6123
32
-1121.054
13
11.966805
23
65.6124
33
-1121.0538
0
3DFACE
8
0
10
11.966705
20
65.6123
30
-1121.054
11
6.928454
21
69.87084
31
-1139.8734
12
69.05984
22
9.943278
32
-1190.3075
13
69.05994
23
9.943378
33
-1190.3074
0
3DFACE
8
0
10
69.05984
20
9.943278
30
-1190.3075
11
6.928454
21
69.87084
31
-1139.8734
12
56.051407
22
21.97319
32
-1199.4592
13
56.051506
23
21.97329
33
-1199.4591
0
3DFACE
8
0
10
69.05984
20
9.943278
30
-1190.3075
11
56.051407
21
21.97319
31
-1199.4592
12
-17.87704
22
-42.063694
32
-1220.1735
13
-17.876942
23
-42.063595
33
-1220.1733
0
3DFACE
8
0
10
-17.87704
20
-42.063694
30
-1220.1735
11
56.051407
21
21.97319
31
-1199.4592
12
-18.749119
22
-22.77363
32
-1225.1559
13
-18.74902
23
-22.773531
33
-1225.1558
0
3DFACE
8
0
10
-17.87704
20
-42.063694
30
-1220.1735
11
-18.749119
21
-22.77363
31
-1225.1559
12
-74.97016
22
13.605325
32
-1150.9199
13
-74.97006
23
13.605425
33
-1150.9198
0
3DFACE
8
0
10
-74.97016
20
13.605325
30
-1150.9199
11
-18.749119
21
-22.77363
31
-1225.1559
12
-67.87206
22
25.124018
32
-1165.5701
13
-67.87196
23
25.124117
33
-1165.57
0
3DFACE
8
0
10
-74.97016
20
13.605325
30
-1150.9199
11
-67.87206
21
25.124018
31
-1165.5701
12
11.966705
22
65.6123
32
-1121.054
13
11.966805
23
65.6124
33
-1121.0538
0
3DFACE
8
0
10
11.966705
20
65.6123
30
-1121.054
11
-67.87206
21
25.124018
31
-1165.5701
12
6.928454
22
69.87084
32
-1139.8734
13
6.928554
23
69.87094
33
-1139.8733
0
3DFACE
8
0
10
6.928454
20
69.87084
30
-1139.8734
11
2.3906145
21
75.93487
31
-1157.0309
12
56.051407
22
21.97319
32
-1199.4592
13
56.051506
23
21.97329
33
-1199.4591
0
3DFACE
8
0
10
56.051407
20
21.97319
30
-1199.4592
11
2.3906145
21
75.93487
31
-1157.0309
12
45.458042
22
33.9417
32
-1209.2714
13
45.45814
23
33.9418
33
-1209.2712
0
3DFACE
8
0
10
56.051407
20
21.97319
30
-1199.4592
11
45.458042
21
33.9417
31
-1209.2714
12
-18.749119
22
-22.77363
32
-1225.1559
13
-18.74902
23
-22.773531
33
-1225.1558
0
3DFACE
8
0
10
-18.749119
20
-22.77363
30
-1225.1559
11
45.458042
21
33.9417
31
-1209.2714
12
-20.121609
22
-5.289055
32
-1231.8003
13
-20.12151
23
-5.2889547
33
-1231.8002
0
3DFACE
8
0
10
-18.749119
20
-22.77363
30
-1225.1559
11
-20.121609
21
-5.289055
31
-1231.8003
12
-67.87206
22
25.124018
32
-1165.5701
13
-67.87196
23
25.124117
33
-1165.57
0
3DFACE
8
0
10
-67.87206
20
25.124018
30
-1165.5701
11
-20.121609
21
-5.289055
31
-1231.8003
12
-63.18903
22
36.704113
32
-1179.5599
13
-63.18893
23
36.704212
33
-1179.5598
0
3DFACE
8
0
10
-67.87206
20
25.124018
30
-1165.5701
11
-63.18903
21
36.704113
31
-1179.5599
12
6.928454
22
69.87084
32
-1139.8734
13
6.928554
23
69.87094
33
-1139.8733
0
3DFACE
8
0
10
6.928454
20
69.87084
30
-1139.8734
11
-63.18903
21
36.704113
31
-1179.5599
12
2.3906145
22
75.93487
32
-1157.0309
13
2.3907144
23
75.93497
33
-1157.0308
0
3DFACE
8
0
10
2.3906145
20
75.93487
30
-1157.0309
11
-1.5359144
21
84.20449
31
-1172.1581
12
45.458042
22
33.9417
32
-1209.2714
13
45.45814
23
33.9418
33
-1209.2712
0
3DFACE
8
0
10
45.458042
20
33.9417
30
-1209.2714
11
-1.5359144
21
84.20449
31
-1172.1581
12
37.81493
22
45.835194
32
-1219.8904
13
37.81503
23
45.835293
33
-1219.8903
0
3DFACE
8
0
10
45.458042
20
33.9417
30
-1209.2714
11
37.81493
21
45.835194
31
-1219.8904
12
-20.121609
22
-5.289055
32
-1231.8003
13
-20.12151
23
-5.2889547
33
-1231.8002
0
3DFACE
8
0
10
-20.121609
20
-5.289055
30
-1231.8003
11
37.81493
21
45.835194
31
-1219.8904
12
-22.105408
22
9.989929
32
-1240.4751
13
-22.105309
23
9.990029
33
-1240.475
0
3DFACE
8
0
10
-20.121609
20
-5.289055
30
-1231.8003
11
-22.105408
21
9.989929
31
-1240.4751
12
-63.18903
22
36.704113
32
-1179.5599
13
-63.18893
23
36.704212
33
-1179.5598
0
3DFACE
8
0
10
-63.18903
20
36.704113
30
-1179.5599
11
-22.105408
21
9.989929
31
-1240.4751
12
-61.45625
22
48.359222
32
-1192.7428
13
-61.45615
23
48.35932
33
-1192.7427
0
3DFACE
8
0
10
-63.18903
20
36.704113
30
-1179.5599
11
-61.45625
21
48.359222
31
-1192.7428
12
2.3906145
22
75.93487
32
-1157.0309
13
2.3907144
23
75.93497
33
-1157.0308
0
3DFACE
8
0
10
2.3906145
20
75.93487
30
-1157.0309
11
-61.45625
21
48.359222
31
-1192.7428
12
-1.5359144
22
84.20449
32
-1172.1581
13
-1.5358144
23
84.20459
33
-1172.158
0
3DFACE
8
0
10
-1.5359144
20
84.20449
30
-1172.1581
11
-4.7830744
21
94.92528
31
-1185.0288
12
37.81493
22
45.835194
32
-1219.8904
13
37.81503
23
45.835293
33
-1219.8903
0
3DFACE
8
0
10
37.81493
20
45.835194
30
-1219.8904
11
-4.7830744
21
94.92528
31
-1185.0288
12
33.45056
22
57.64533
32
-1231.4059
13
33.45066
23
57.645428
33
-1231.4058
0
3DFACE
8
0
10
37.81493
20
45.835194
30
-1219.8904
11
33.45056
21
57.64533
31
-1231.4059
12
-22.105408
22
9.989929
32
-1240.4751
13
-22.105309
23
9.990029
33
-1240.475
0
3DFACE
8
0
10
-22.105408
20
9.989929
30
-1240.4751
11
33.45056
21
57.64533
31
-1231.4059
12
-24.768578
22
22.817749
32
-1251.4062
13
-24.768478
23
22.817848
33
-1251.4061
0
3DFACE
8
0
10
-22.105408
20
9.989929
30
-1240.4751
11
-24.768578
21
22.817749
31
-1251.4062
12
-61.45625
22
48.359222
32
-1192.7428
13
-61.45615
23
48.35932
33
-1192.7427
0
3DFACE
8
0
10
-61.45625
20
48.359222
30
-1192.7428
11
-24.768578
21
22.817749
31
-1251.4062
12
-63.002205
22
60.0977
32
-1205.0292
13
-63.002106
23
60.097797
33
-1205.029
0
3DFACE
8
0
10
-61.45625
20
48.359222
30
-1192.7428
11
-63.002205
21
60.0977
31
-1205.0292
12
-1.5359144
22
84.20449
32
-1172.1581
13
-1.5358144
23
84.20459
33
-1172.158
0
3DFACE
8
0
10
-1.5359144
20
84.20449
30
-1172.1581
11
-63.002205
21
60.0977
31
-1205.0292
12
-4.7830744
22
94.92528
32
-1185.0288
13
-4.7829742
23
94.92538
33
-1185.0287
0
3DFACE
8
0
10
-4.7830744
20
94.92528
30
-1185.0288
11
-7.330405
21
108.17104
31
-1195.5752
12
33.45056
22
57.64533
32
-1231.4059
13
33.45066
23
57.645428
33
-1231.4058
0
3DFACE
8
0
10
33.45056
20
57.64533
30
-1231.4059
11
-7.330405
21
108.17104
31
-1195.5752
12
32.46366
22
69.36958
32
-1243.8452
13
32.46376
23
69.36968
33
-1243.8451
0
3DFACE
8
0
10
33.45056
20
57.64533
30
-1231.4059
11
32.46366
21
69.36958
31
-1243.8452
12
-24.768578
22
22.817749
32
-1251.4062
13
-24.768478
23
22.817848
33
-1251.4061
0
3DFACE
8
0
10
-24.768578
20
22.817749
30
-1251.4062
11
32.46366
21
69.36958
31
-1243.8452
12
-28.131578
22
33.120583
32
-1264.6617
13
-28.13148
23
33.12068
33
-1264.6616
0
3DFACE
8
0
10
-24.768578
20
22.817749
30
-1251.4062
11
-28.131578
21
33.120583
31
-1264.6617
12
-63.002205
22
60.0977
32
-1205.0292
13
-63.002106
23
60.097797
33
-1205.029
0
3DFACE
8
0
10
-63.002205
20
60.0977
30
-1205.0292
11
-28.131578
21
33.120583
31
-1264.6617
12
-67.92564
22
71.92204
32
-1216.3918
13
-67.92554
23
71.92214
33
-1216.3917
0
3DFACE
8
0
10
-63.002205
20
60.0977
30
-1205.0292
11
-67.92564
21
71.92204
31
-1216.3918
12
-4.7830744
22
94.92528
32
-1185.0288
13
-4.7829742
23
94.92538
33
-1185.0287
0
3DFACE
8
0
10
-4.7830744
20
94.92528
30
-1185.0288
11
-67.92564
21
71.92204
31
-1216.3918
12
-7.330405
22
108.17104
32
-1195.5752
13
-7.330305
23
108.17114
33
-1195.5751
0
3DFACE
8
0
10
-7.330405
20
108.17104
30
-1195.5752
11
-9.206482
21
123.83869
31
-1203.8922
12
32.46366
22
69.36958
32
-1243.8452
13
32.46376
23
69.36968
33
-1243.8451
0
3DFACE
8
0
10
32.46366
20
69.36958
30
-1243.8452
11
-9.206482
21
123.83869
31
-1203.8922
12
34.716324
22
81.01148
32
-1257.1703
13
34.716423
23
81.01158
33
-1257.1702
0
3DFACE
8
0
10
32.46366
20
69.36958
30
-1243.8452
11
34.716324
21
81.01148
31
-1257.1703
12
-28.131578
22
33.120583
32
-1264.6617
13
-28.13148
23
33.12068
33
-1264.6616
0
3DFACE
8
0
10
-28.131578
20
33.120583
30
-1264.6617
11
34.716324
21
81.01148
31
-1257.1703
12
-32.16583
22
41.00155
32
-1280.1467
13
-32.16573
23
41.001648
33
-1280.1466
0
3DFACE
8
0
10
-28.131578
20
33.120583
30
-1264.6617
11
-32.16583
21
41.00155
31
-1280.1467
12
-67.92564
22
71.92204
32
-1216.3918
13
-67.92554
23
71.92214
33
-1216.3917
0
3DFACE
8
0
10
-67.92564
20
71.92204
30
-1216.3918
11
-32.16583
21
41.00155
31
-1280.1467
12
-76.08863
22
83.82876
32
-1226.8687
13
-76.08853
23
83.82886
33
-1226.8685
0
3DFACE
8
0
10
-67.92564
20
71.92204
30
-1216.3918
11
-76.08863
21
83.82876
31
-1226.8687
12
-7.330405
22
108.17104
32
-1195.5752
13
-7.330305
23
108.17114
33
-1195.5751
0
3DFACE
8
0
10
-7.330405
20
108.17104
30
-1195.5752
11
-76.08863
21
83.82876
31
-1226.8687
12
-9.206482
22
123.83869
32
-1203.8922
13
-9.206382
23
123.83879
33
-1203.8921
0
3DFACE
8
0
10
-9.206482
20
123.83869
30
-1203.8922
11
-10.486914
21
141.65541
31
-1210.231
12
34.716324
22
81.01148
32
-1257.1703
13
34.716423
23
81.01158
33
-1257.1702
0
3DFACE
8
0
10
34.716324
20
81.01148
30
-1257.1703
11
-10.486914
21
141.65541
31
-1210.231
12
39.84365
22
92.58028
32
-1271.2815
13
39.84375
23
92.580376
33
-1271.2814
0
3DFACE
8
0
10
34.716324
20
81.01148
30
-1257.1703
11
39.84365
21
92.58028
31
-1271.2815
12
-32.16583
22
41.00155
32
-1280.1467
13
-32.16573
23
41.001648
33
-1280.1466
0
3DFACE
8
0
10
-32.16583
20
41.00155
30
-1280.1467
11
39.84365
21
92.58028
31
-1271.2815
12
-36.795727
22
46.73343
32
-1297.6099
13
-36.795628
23
46.73353
33
-1297.6097
0
3DFACE
8
0
10
-32.16583
20
41.00155
30
-1280.1467
11
-36.795727
21
46.73343
31
-1297.6099
12
-76.08863
22
83.82876
32
-1226.8687
13
-76.08853
23
83.82886
33
-1226.8685
0
3DFACE
8
0
10
-76.08863
20
83.82876
30
-1226.8687
11
-36.795727
21
46.73343
31
-1297.6099
12
-87.12628
22
95.80856
32
-1236.5593
13
-87.12618
23
95.80866
33
-1236.5592
0
3DFACE
8
0
10
-76.08863
20
83.82876
30
-1226.8687
11
-87.12628
21
95.80856
31
-1236.5593
12
-9.206482
22
123.83869
32
-1203.8922
13
-9.206382
23
123.83879
33
-1203.8921
0
3DFACE
8
0
10
-9.206482
20
123.83869
30
-1203.8922
11
-87.12628
21
95.80856
31
-1236.5593
12
-10.486914
22
141.65541
32
-1210.231
13
-10.486814
23
141.65552
33
-1210.2308
0
3DFACE
8
0
10
-10.486914
20
141.65541
30
-1210.231
11
-11.289048
21
161.19783
31
-1214.9811
12
39.84365
22
92.58028
32
-1271.2815
13
39.84375
23
92.580376
33
-1271.2814
0
3DFACE
8
0
10
39.84365
20
92.58028
30
-1271.2815
11
-11.289048
21
161.19783
31
-1214.9811
12
47.279305
22
104.090385
32
-1286.024
13
47.279404
23
104.090485
33
-1286.0239
0
3DFACE
8
0
10
39.84365
20
92.58028
30
-1271.2815
11
47.279305
21
104.090385
31
-1286.024
12
-36.795727
22
46.73343
32
-1297.6099
13
-36.795628
23
46.73353
33
-1297.6097
0
3DFACE
8
0
10
-36.795727
20
46.73343
30
-1297.6099
11
47.279305
21
104.090385
31
-1286.024
12
-41.903923
22
50.73961
32
-1316.6616
13
-41.903824
23
50.739708
33
-1316.6615
0
3DFACE
8
0
10
-36.795727
20
46.73343
30
-1297.6099
11
-41.903923
21
50.73961
31
-1316.6616
12
-87.12628
22
95.80856
32
-1236.5593
13
-87.12618
23
95.80866
33
-1236.5592
0
3DFACE
8
0
10
-87.12628
20
95.80856
30
-1236.5593
11
-41.903923
21
50.73961
31
-1316.6616
12
-100.47227
22
107.84705
32
-1245.6187
13
-100.47217
23
107.84715
33
-1245.6185
0
3DFACE
8
0
10
-87.12628
20
95.80856
30
-1236.5593
11
-100.47227
21
107.84705
31
-1245.6187
12
-10.486914
22
141.65541
32
-1210.231
13
-10.486814
23
141.65552
33
-1210.2308
0
3DFACE
8
0
10
-10.486914
20
141.65541
30
-1210.231
11
-100.47227
21
107.84705
31
-1245.6187
12
-11.289048
22
161.19783
32
-1214.9811
13
-11.288948
23
161.19794
33
-1214.981
0
3DFACE
8
0
10
-11.289048
20
161.19783
30
-1214.9811
11
-11.763742
21
181.92166
31
-1218.6437
12
47.279305
22
104.090385
32
-1286.024
13
47.279404
23
104.090485
33
-1286.0239
0
3DFACE
8
0
10
47.279305
20
104.090385
30
-1286.024
11
-11.763742
21
181.92166
31
-1218.6437
12
56.29524
22
115.56032
32
-1301.1987
13
56.295338
23
115.56042
33
-1301.1986
0
3DFACE
8
0
10
47.279305
20
104.090385
30
-1286.024
11
56.29524
21
115.56032
31
-1301.1987
12
-41.903923
22
50.73961
32
-1316.6616
13
-41.903824
23
50.739708
33
-1316.6615
0
3DFACE
8
0
10
-41.903923
20
50.73961
30
-1316.6616
11
56.29524
21
115.56032
31
-1301.1987
12
-47.33956
22
53.564392
32
-1336.801
13
-47.339462
23
53.56449
33
-1336.8009
0
3DFACE
8
0
10
-41.903923
20
50.73961
30
-1316.6616
11
-47.33956
21
53.564392
31
-1336.801
12
-100.47227
22
107.84705
32
-1245.6187
13
-100.47217
23
107.84715
33
-1245.6185
0
3DFACE
8
0
10
-100.47227
20
107.84705
30
-1245.6187
11
-47.33956
21
53.564392
31
-1336.801
12
-115.39853
22
119.925735
32
-1254.246
13
-115.39843
23
119.925835
33
-1254.2458
0
3DFACE
8
0
10
-100.47227
20
107.84705
30
-1245.6187
11
-115.39853
21
119.925735
31
-1254.246
12
-11.289048
22
161.19783
32
-1214.9811
13
-11.288948
23
161.19794
33
-1214.981
0
3DFACE
8
0
10
-11.289048
20
161.19783
30
-1214.9811
11
-115.39853
21
119.925735
31
-1254.246
12
-11.763742
22
181.92166
32
-1218.6437
13
-11.763642
23
181.92177
33
-1218.6436
0
3DFACE
8
0
10
-11.763742
20
181.92166
30
-1218.6437
11
-12.084797
21
203.19981
31
-1221.796
12
56.29524
22
115.56032
32
-1301.1987
13
56.295338
23
115.56042
33
-1301.1986
0
3DFACE
8
0
10
56.29524
20
115.56032
30
-1301.1987
11
-12.084797
21
203.19981
31
-1221.796
12
66.05265
22
127.0114
32
-1316.5762
13
66.05275
23
127.0115
33
-1316.576
0
3DFACE
8
0
10
56.29524
20
115.56032
30
-1301.1987
11
66.05265
21
127.0114
31
-1316.5762
12
-47.33956
22
53.564392
32
-1336.801
13
-47.339462
23
53.56449
33
-1336.8009
0
3DFACE
8
0
10
-47.33956
20
53.564392
30
-1336.801
11
66.05265
21
127.0114
31
-1316.5762
12
-52.92884
22
55.834854
32
-1357.4506
13
-52.92874
23
55.834953
33
-1357.4504
0
3DFACE
8
0
10
-47.33956
20
53.564392
30
-1336.801
11
-52.92884
21
55.834854
31
-1357.4506
12
-115.39853
22
119.925735
32
-1254.246
13
-115.39843
23
119.925835
33
-1254.2458
0
3DFACE
8
0
10
-115.39853
20
119.925735
30
-1254.246
11
-52.92884
21
55.834854
31
-1357.4506
12
-131.06628
22
132.02327
32
-1262.6704
13
-131.06618
23
132.02338
33
-1262.6703
0
3DFACE
8
0
10
-115.39853
20
119.925735
30
-1254.246
11
-131.06628
21
132.02327
31
-1262.6704
12
-11.763742
22
181.92166
32
-1218.6437
13
-11.763642
23
181.92177
33
-1218.6436
0
3DFACE
8
0
10
-11.763742
20
181.92166
30
-1218.6437
11
-131.06628
21
132.02327
31
-1262.6704
12
-12.084797
22
203.19981
32
-1221.796
13
-12.084697
23
203.19992
33
-1221.7959
0
3DFACE
8
0
10
-12.084797
20
203.19981
30
-1221.796
11
-12.436779
21
224.36636
31
-1225.0511
12
66.05265
22
127.0114
32
-1316.5762
13
66.05275
23
127.0115
33
-1316.576
0
3DFACE
8
0
10
66.05265
20
127.0114
30
-1316.5762
11
-12.436779
21
224.36636
31
-1225.0511
12
75.6608
22
138.46626
32
-1331.9128
13
75.6609
23
138.46637
33
-1331.9127
0
3DFACE
8
0
10
66.05265
20
127.0114
30
-1316.5762
11
75.6608
21
138.46626
31
-1331.9128
12
-52.92884
22
55.834854
32
-1357.4506
13
-52.92874
23
55.834953
33
-1357.4504
0
3DFACE
8
0
10
-52.92884
20
55.834854
30
-1357.4506
11
75.6608
21
138.46626
31
-1331.9128
12
-58.48719
22
58.21688
32
-1377.9974
13
-58.48709
23
58.21698
33
-1377.9973
0
3DFACE
8
0
10
-52.92884
20
55.834854
30
-1357.4506
11
-58.48719
21
58.21688
31
-1377.9974
12
-131.06628
22
132.02327
32
-1262.6704
13
-131.06618
23
132.02338
33
-1262.6703
0
3DFACE
8
0
10
-131.06628
20
132.02327
30
-1262.6704
11
-58.48719
21
58.21688
31
-1377.9974
12
-146.58476
22
144.11699
32
-1271.1357
13
-146.58466
23
144.1171
33
-1271.1356
0
3DFACE
8
0
10
-131.06628
20
132.02327
30
-1262.6704
11
-146.58476
21
144.11699
31
-1271.1357
12
-12.084797
22
203.19981
32
-1221.796
13
-12.084697
23
203.19992
33
-1221.7959
0
3DFACE
8
0
10
-12.084797
20
203.19981
30
-1221.796
11
-146.58476
21
144.11699
31
-1271.1357
12
-12.436779
22
224.36636
32
-1225.0511
13
-12.436679
23
224.36647
33
-1225.051
0
3DFACE
8
0
10
-12.436779
20
224.36636
30
-1225.0511
11
-13.002087
21
244.76326
31
-1229.0146
12
75.6608
22
138.46626
32
-1331.9128
13
75.6609
23
138.46637
33
-1331.9127
0
3DFACE
8
0
10
75.6608
20
138.46626
30
-1331.9128
11
-13.002087
21
244.76326
31
-1229.0146
12
84.23941
22
149.94731
32
-1346.9679
13
84.23951
23
149.94742
33
-1346.9678
0
3DFACE
8
0
10
75.6608
20
138.46626
30
-1331.9128
11
84.23941
21
149.94731
31
-1346.9679
12
-58.48719
22
58.21688
32
-1377.9974
13
-58.48709
23
58.21698
33
-1377.9973
0
3DFACE
8
0
10
-58.48719
20
58.21688
30
-1377.9974
11
84.23941
21
149.94731
31
-1346.9679
12
-63.832207
22
61.368607
32
-1397.8357
13
-63.832108
23
61.368706
33
-1397.8356
0
3DFACE
8
0
10
-58.48719
20
58.21688
30
-1377.9974
11
-63.832207
21
61.368607
31
-1397.8357
12
-146.58476
22
144.11699
32
-1271.1357
13
-146.58466
23
144.1171
33
-1271.1356
0
3DFACE
8
0
10
-146.58476
20
144.11699
30
-1271.1357
11
-63.832207
21
61.368607
31
-1397.8357
12
-161.07368
22
156.18454
32
-1279.8826
13
-161.07358
23
156.18465
33
-1279.8824
0
3DFACE
8
0
10
-146.58476
20
144.11699
30
-1271.1357
11
-161.07368
21
156.18454
31
-1279.8826
12
-12.436779
22
224.36636
32
-1225.0511
13
-12.436679
23
224.36647
33
-1225.051
0
3DFACE
8
0
10
-12.436779
20
224.36636
30
-1225.0511
11
-161.07368
21
156.18454
31
-1279.8826
12
-13.002087
22
244.76326
32
-1229.0146
13
-13.0019865
23
244.76337
33
-1229.0145
0
3DFACE
8
0
10
-13.002087
20
244.76326
30
-1229.0146
11
-13.948177
21
263.7863
31
-1234.2429
12
84.23941
22
149.94731
32
-1346.9679
13
84.23951
23
149.94742
33
-1346.9678
0
3DFACE
8
0
10
84.23941
20
149.94731
30
-1346.9679
11
-13.948177
21
263.7863
31
-1234.2429
12
90.98032
22
161.4751
32
-1361.5204
13
90.98042
23
161.4752
33
-1361.5203
0
3DFACE
8
0
10
84.23941
20
149.94731
30
-1346.9679
11
90.98032
21
161.4751
31
-1361.5204
12
-63.832207
22
61.368607
32
-1397.8357
13
-63.832108
23
61.368706
33
-1397.8356
0
3DFACE
8
0
10
-63.832207
20
61.368607
30
-1397.8357
11
90.98032
21
161.4751
31
-1361.5204
12
-68.79645
22
65.89419
32
-1416.4094
13
-68.79635
23
65.89429
33
-1416.4093
0
3DFACE
8
0
10
-63.832207
20
61.368607
30
-1397.8357
11
-68.79645
21
65.89419
31
-1416.4094
12
-161.07368
22
156.18454
32
-1279.8826
13
-161.07358
23
156.18465
33
-1279.8824
0
3DFACE
8
0
10
-161.07368
20
156.18454
30
-1279.8826
11
-68.79645
21
65.89419
31
-1416.4094
12
-173.72495
22
168.20538
32
-1289.132
13
-173.72484
23
168.20549
33
-1289.1318
0
3DFACE
8
0
10
-161.07368
20
156.18454
30
-1279.8826
11
-173.72495
21
168.20538
31
-1289.132
12
-13.002087
22
244.76326
32
-1229.0146
13
-13.0019865
23
244.76337
33
-1229.0145
0
3DFACE
8
0
10
-13.002087
20
244.76326
30
-1229.0146
11
-173.72495
21
168.20538
31
-1289.132
12
-13.948177
22
263.7863
32
-1234.2429
13
-13.948077
23
263.78638
33
-1234.2428
0
3DFACE
8
0
10
-13.948177
20
263.7863
30
-1234.2429
11
-15.415817
21
280.92755
31
-1241.2034
12
90.98032
22
161.4751
32
-1361.5204
13
90.98042
23
161.4752
33
-1361.5203
0
3DFACE
8
0
10
90.98032
20
161.4751
30
-1361.5204
11
-15.415817
21
280.92755
31
-1241.2034
12
95.20416
22
173.06686
32
-1375.3845
13
95.20426
23
173.06697
33
-1375.3844
0
3DFACE
8
0
10
90.98032
20
161.4751
30
-1361.5204
11
95.20416
21
173.06686
31
-1375.3845
12
-68.79645
22
65.89419
32
-1416.4094
13
-68.79635
23
65.89429
33
-1416.4093
0
3DFACE
8
0
10
-68.79645
20
65.89419
30
-1416.4094
11
95.20416
21
173.06686
31
-1375.3845
12
-73.239136
22
72.3015
32
-1433.2509
13
-73.23904
23
72.3016
33
-1433.2507
0
3DFACE
8
0
10
-68.79645
20
65.89419
30
-1416.4094
11
-73.239136
21
72.3015
31
-1433.2509
12
-173.72495
22
168.20538
32
-1289.132
13
-173.72484
23
168.20549
33
-1289.1318
0
3DFACE
8
0
10
-173.72495
20
168.20538
30
-1289.132
11
-73.239136
21
72.3015
31
-1433.2509
12
-183.8591
22
180.1622
32
-1299.0697
13
-183.859
23
180.16231
33
-1299.0696
0
3DFACE
8
0
10
-173.72495
20
168.20538
30
-1289.132
11
-183.8591
21
180.1622
31
-1299.0697
12
-13.948177
22
263.7863
32
-1234.2429
13
-13.948077
23
263.78638
33
-1234.2428
0
3DFACE
8
0
10
-13.948177
20
263.7863
30
-1234.2429
11
-183.8591
21
180.1622
31
-1299.0697
12
-15.415817
22
280.92755
32
-1241.2034
13
-15.415717
23
280.92764
33
-1241.2032
0
3DFACE
8
0
10
-15.415817
20
280.92755
30
-1241.2034
11
-17.509237
21
295.81104
31
-1250.2422
12
95.20416
22
173.06686
32
-1375.3845
13
95.20426
23
173.06697
33
-1375.3844
0
3DFACE
8
0
10
95.20416
20
173.06686
30
-1375.3845
11
-17.509237
21
295.81104
31
-1250.2422
12
96.40788
22
184.73543
32
-1388.4229
13
96.40798
23
184.73553
33
-1388.4227
0
3DFACE
8
0
10
95.20416
20
173.06686
30
-1375.3845
11
96.40788
21
184.73543
31
-1388.4229
12
-73.239136
22
72.3015
32
-1433.2509
13
-73.23904
23
72.3016
33
-1433.2507
0
3DFACE
8
0
10
-73.239136
20
72.3015
30
-1433.2509
11
96.40788
21
184.73543
31
-1388.4229
12
-77.056046
22
80.96664
32
-1448.0139
13
-77.05595
23
80.966736
33
-1448.0138
0
3DFACE
8
0
10
-73.239136
20
72.3015
30
-1433.2509
11
-77.056046
21
80.96664
31
-1448.0139
12
-183.8591
22
180.1622
32
-1299.0697
13
-183.859
23
180.16231
33
-1299.0696
0
3DFACE
8
0
10
-183.8591
20
180.1622
30
-1299.0697
11
-77.056046
21
80.96664
31
-1448.0139
12
-190.97316
22
192.04225
32
-1309.8333
13
-190.97305
23
192.04236
33
-1309.8331
0
3DFACE
8
0
10
-183.8591
20
180.1622
30
-1299.0697
11
-190.97316
21
192.04225
31
-1309.8333
12
-15.415817
22
280.92755
32
-1241.2034
13
-15.415717
23
280.92764
33
-1241.2032
0
3DFACE
8
0
10
-15.415817
20
280.92755
30
-1241.2034
11
-190.97316
21
192.04225
31
-1309.8333
12
-17.509237
22
295.81104
32
-1250.2422
13
-17.509138
23
295.81113
33
-1250.2421
0
3DFACE
8
0
10
-17.509237
20
295.81104
30
-1250.2422
11
-20.288816
21
308.21887
31
-1261.56
12
96.40788
22
184.73543
32
-1388.4229
13
96.40798
23
184.73553
33
-1388.4227
0
3DFACE
8
0
10
96.40788
20
184.73543
30
-1388.4229
11
-20.288816
21
308.21887
31
-1261.56
12
94.30012
22
196.48819
32
-1400.5555
13
94.30022
23
196.4883
33
-1400.5554
0
3DFACE
8
0
10
96.40788
20
184.73543
30
-1388.4229
11
94.30012
21
196.48819
31
-1400.5555
12
-77.056046
22
80.96664
32
-1448.0139
13
-77.05595
23
80.966736
33
-1448.0138
0
3DFACE
8
0
10
-77.056046
20
80.96664
30
-1448.0139
11
94.30012
21
196.48819
31
-1400.5555
12
-80.1868
22
92.10743
32
-1460.498
13
-80.1867
23
92.10753
33
-1460.4979
0
3DFACE
8
0
10
-77.056046
20
80.96664
30
-1448.0139
11
-80.1868
21
92.10743
31
-1460.498
12
-190.97316
22
192.04225
32
-1309.8333
13
-190.97305
23
192.04236
33
-1309.8331
0
3DFACE
8
0
10
-190.97316
20
192.04225
30
-1309.8333
11
-80.1868
21
92.10743
31
-1460.498
12
-194.77573
22
203.8381
32
-1321.5026
13
-194.77562
23
203.83821
33
-1321.5024
0
3DFACE
8
0
10
-190.97316
20
192.04225
30
-1309.8333
11
-194.77573
21
203.8381
31
-1321.5026
12
-17.509237
22
295.81104
32
-1250.2422
13
-17.509138
23
295.81113
33
-1250.2421
0
3DFACE
8
0
10
-17.509237
20
295.81104
30
-1250.2422
11
-194.77573
21
203.8381
31
-1321.5026
12
-20.288816
22
308.21887
32
-1261.56
13
-20.288717
23
308.21896
33
-1261.5599
0
3DFACE
8
0
10
-20.288816
20
308.21887
30
-1261.56
11
-23.766861
21
318.10663
31
-1275.1976
12
94.30012
22
196.48819
32
-1400.5555
13
94.30022
23
196.4883
33
-1400.5554
0
3DFACE
8
0
10
94.30012
20
196.48819
30
-1400.5555
11
-23.766861
21
318.10663
31
-1275.1976
12
88.82147
22
208.32664
32
-1411.7665
13
88.82157
23
208.32675
33
-1411.7664
0
3DFACE
8
0
10
94.30012
20
196.48819
30
-1400.5555
11
88.82147
21
208.32664
31
-1411.7665
12
-80.1868
22
92.10743
32
-1460.498
13
-80.1867
23
92.10753
33
-1460.4979
0
3DFACE
8
0
10
-80.1868
20
92.10743
30
-1460.498
11
88.82147
21
208.32664
31
-1411.7665
12
-82.61909
22
105.768265
32
-1470.6624
13
-82.61899
23
105.768364
33
-1470.6622
0
3DFACE
8
0
10
-80.1868
20
92.10743
30
-1460.498
11
-82.61909
21
105.768265
31
-1470.6624
12
-194.77573
22
203.8381
32
-1321.5026
13
-194.77562
23
203.83821
33
-1321.5024
0
3DFACE
8
0
10
-194.77573
20
203.8381
30
-1321.5026
11
-82.61909
21
105.768265
31
-1470.6624
12
-195.2074
22
215.54823
32
-1334.0936
13
-195.20729
23
215.54834
33
-1334.0935
0
3DFACE
8
0
10
-194.77573
20
203.8381
30
-1321.5026
11
-195.2074
21
215.54823
31
-1334.0936
12
-20.288816
22
308.21887
32
-1261.56
13
-20.288717
23
308.21896
33
-1261.5599
0
3DFACE
8
0
10
-20.288816
20
308.21887
30
-1261.56
11
-195.2074
21
215.54823
31
-1334.0936
12
-23.766861
22
318.10663
32
-1275.1976
13
-23.766762
23
318.10672
33
-1275.1975
0
3DFACE
8
0
10
-23.766861
20
318.10663
30
-1275.1976
11
-27.906729
21
325.6065
31
-1291.0333
12
88.82147
22
208.32664
32
-1411.7665
13
88.82157
23
208.32675
33
-1411.7664
0
3DFACE
8
0
10
88.82147
20
208.32664
30
-1411.7665
11
-27.906729
21
325.6065
31
-1291.0333
12
80.14877
22
220.24632
32
-1422.1038
13
80.14887
23
220.24643
33
-1422.1036
0
3DFACE
8
0
10
88.82147
20
208.32664
30
-1411.7665
11
80.14877
21
220.24632
31
-1422.1038
12
-82.61909
22
105.768265
32
-1470.6624
13
-82.61899
23
105.768364
33
-1470.6622
0
3DFACE
8
0
10
-82.61909
20
105.768265
30
-1470.6624
11
80.14877
21
220.24632
31
-1422.1038
12
-84.38955
22
121.81697
32
-1478.6287
13
-84.38945
23
121.81707
33
-1478.6285
0
3DFACE
8
0
10
-82.61909
20
105.768265
30
-1470.6624
11
-84.38955
21
121.81697
31
-1478.6287
12
-195.2074
22
215.54823
32
-1334.0936
13
-195.20729
23
215.54834
33
-1334.0935
0
3DFACE
8
0
10
-195.2074
20
215.54823
30
-1334.0936
11
-84.38955
21
121.81697
31
-1478.6287
12
-192.44504
22
227.17717
32
-1347.5581
13
-192.44493
23
227.17728
33
-1347.558
0
3DFACE
8
0
10
-195.2074
20
215.54823
30
-1334.0936
11
-192.44504
21
227.17717
31
-1347.5581
12
-23.766861
22
318.10663
32
-1275.1976
13
-23.766762
23
318.10672
33
-1275.1975
0
3DFACE
8
0
10
-23.766861
20
318.10663
30
-1275.1976
11
-192.44504
21
227.17717
31
-1347.5581
12
-27.906729
22
325.6065
32
-1291.0333
13
-27.90663
23
325.6066
33
-1291.0332
0
3DFACE
8
0
10
-27.906729
20
325.6065
30
-1291.0333
11
-32.625412
21
331.01807
31
-1308.7914
12
80.14877
22
220.24632
32
-1422.1038
13
80.14887
23
220.24643
33
-1422.1036
0
3DFACE
8
0
10
80.14877
20
220.24632
30
-1422.1038
11
-32.625412
21
331.01807
31
-1308.7914
12
68.68261
22
232.23701
32
-1431.6772
13
68.68271
23
232.23712
33
-1431.6771
0
3DFACE
8
0
10
80.14877
20
220.24632
30
-1422.1038
11
68.68261
21
232.23701
31
-1431.6772
12
-84.38955
22
121.81697
32
-1478.6287
13
-84.38945
23
121.81707
33
-1478.6285
0
3DFACE
8
0
10
-84.38955
20
121.81697
30
-1478.6287
11
68.68261
21
232.23701
31
-1431.6772
12
-85.58119
22
139.95404
32
-1484.6724
13
-85.58109
23
139.95415
33
-1484.6722
0
3DFACE
8
0
10
-84.38955
20
121.81697
30
-1478.6287
11
-85.58119
21
139.95404
31
-1484.6724
12
-192.44504
22
227.17717
32
-1347.5581
13
-192.44493
23
227.17728
33
-1347.558
0
3DFACE
8
0
10
-192.44504
20
227.17717
30
-1347.5581
11
-85.58119
21
139.95404
31
-1484.6724
12
-186.88919
22
238.73508
32
-1361.7865
13
-186.88908
23
238.73518
33
-1361.7864
0
3DFACE
8
0
10
-192.44504
20
227.17717
30
-1347.5581
11
-186.88919
21
238.73508
31
-1361.7865
12
-27.906729
22
325.6065
32
-1291.0333
13
-27.90663
23
325.6066
33
-1291.0332
0
3DFACE
8
0
10
-27.906729
20
325.6065
30
-1291.0333
11
-186.88919
21
238.73508
31
-1361.7865
12
-32.625412
22
331.01807
32
-1308.7914
13
-32.625313
23
331.01816
33
-1308.7913
0
3DFACE
8
0
10
-32.625412
20
331.01807
30
-1308.7914
11
-37.799347
21
334.78705
31
-1328.0615
12
68.68261
22
232.23701
32
-1431.6772
13
68.68271
23
232.23712
33
-1431.6771
0
3DFACE
8
0
10
68.68261
20
232.23701
30
-1431.6772
11
-37.799347
21
334.78705
31
-1328.0615
12
55.019367
22
244.28358
32
-1440.6499
13
55.019466
23
244.28369
33
-1440.6498
0
3DFACE
8
0
10
68.68261
20
232.23701
30
-1431.6772
11
55.019367
21
244.28358
31
-1440.6499
12
-85.58119
22
139.95404
32
-1484.6724
13
-85.58109
23
139.95415
33
-1484.6722
0
3DFACE
8
0
10
-85.58119
20
139.95404
30
-1484.6724
11
55.019367
21
244.28358
31
-1440.6499
12
-86.31758
22
159.73366
32
-1489.2042
13
-86.31748
23
159.73376
33
-1489.2041
0
3DFACE
8
0
10
-85.58119
20
139.95404
30
-1484.6724
11
-86.31758
21
159.73366
31
-1489.2042
12
-186.88919
22
238.73508
32
-1361.7865
13
-186.88908
23
238.73518
33
-1361.7864
0
3DFACE
8
0
10
-186.88919
20
238.73508
30
-1361.7865
11
-86.31758
21
159.73366
31
-1489.2042
12
-179.13629
22
250.23714
32
-1376.6158
13
-179.13618
23
250.23724
33
-1376.6157
0
3DFACE
8
0
10
-186.88919
20
238.73508
30
-1361.7865
11
-179.13629
21
250.23714
31
-1376.6158
12
-32.625412
22
331.01807
32
-1308.7914
13
-32.625313
23
331.01816
33
-1308.7913
0
3DFACE
8
0
10
-32.625412
20
331.01807
30
-1308.7914
11
-179.13629
21
250.23714
31
-1376.6158
12
-37.799347
22
334.78705
32
-1328.0615
13
-37.799248
23
334.78714
33
-1328.0614
0
3DFACE
8
0
10
-37.799347
20
334.78705
30
-1328.0615
11
-43.273064
21
337.47446
31
-1348.3274
12
55.019367
22
244.28358
32
-1440.6499
13
55.019466
23
244.28369
33
-1440.6498
0
3DFACE
8
0
10
55.019367
20
244.28358
30
-1440.6499
11
-43.273064
21
337.47446
31
-1348.3274
12
39.90931
22
256.36694
32
-1449.2269
13
39.90941
23
256.36703
33
-1449.2268
0
3DFACE
8
0
10
55.019367
20
244.28358
30
-1440.6499
11
39.90931
21
256.36694
31
-1449.2269
12
-86.31758
22
159.73366
32
-1489.2042
13
-86.31748
23
159.73376
33
-1489.2041
0
3DFACE
8
0
10
-86.31758
20
159.73366
30
-1489.2042
11
39.90931
21
256.36694
31
-1449.2269
12
-86.754196
22
180.59488
32
-1492.7404
13
-86.7541
23
180.59499
33
-1492.7402
0
3DFACE
8
0
10
-86.31758
20
159.73366
30
-1489.2042
11
-86.754196
21
180.59488
31
-1492.7404
12
-179.13629
22
250.23714
32
-1376.6158
13
-179.13618
23
250.23724
33
-1376.6157
0
3DFACE
8
0
10
-179.13629
20
250.23714
30
-1376.6158
11
-86.754196
21
180.59488
31
-1492.7404
12
-169.93655
22
261.7024
32
-1391.8408
13
-169.93645
23
261.70248
33
-1391.8407
0
3DFACE
8
0
10
-179.13629
20
250.23714
30
-1376.6158
11
-169.93655
21
261.7024
31
-1391.8408
12
-37.799347
22
334.78705
32
-1328.0615
13
-37.799248
23
334.78714
33
-1328.0614
0
3DFACE
8
0
10
-37.799347
20
334.78705
30
-1328.0615
11
-169.93655
21
261.7024
31
-1391.8408
12
-43.273064
22
337.47446
32
-1348.3274
13
-43.272964
23
337.47455
33
-1348.3273
0
3DFACE
8
0
10
-43.273064
20
337.47446
30
-1348.3274
11
-48.870102
21
339.7169
31
-1369.0027
12
39.90931
22
256.36694
32
-1449.2269
13
39.90941
23
256.36703
33
-1449.2268
0
3DFACE
8
0
10
39.90931
20
256.36694
30
-1449.2269
11
-48.870102
21
339.7169
31
-1369.0027
12
24.204117
22
268.46542
32
-1457.6411
13
24.204216
23
268.4655
33
-1457.641
0
3DFACE
8
0
10
39.90931
20
256.36694
30
-1449.2269
11
24.204117
21
268.46542
31
-1457.6411
12
-86.754196
22
180.59488
32
-1492.7404
13
-86.7541
23
180.59499
33
-1492.7402
0
3DFACE
8
0
10
-86.754196
20
180.59488
30
-1492.7404
11
24.204117
21
268.46542
31
-1457.6411
12
-87.06748
22
201.90103
32
-1495.867
13
-87.06738
23
201.90114
33
-1495.8668
0
3DFACE
8
0
10
-86.754196
20
180.59488
30
-1492.7404
11
-87.06748
21
201.90103
31
-1495.867
12
-169.93655
22
261.7024
32
-1391.8408
13
-169.93645
23
261.70248
33
-1391.8407
0
3DFACE
8
0
10
-169.93655
20
261.7024
30
-1391.8408
11
-87.06748
21
201.90103
31
-1495.867
12
-160.1417
22
273.1525
32
-1407.2284
13
-160.14159
23
273.1526
33
-1407.2283
0
3DFACE
8
0
10
-169.93655
20
261.7024
30
-1391.8408
11
-160.1417
21
273.1525
31
-1407.2284
12
-43.273064
22
337.47446
32
-1348.3274
13
-43.272964
23
337.47455
33
-1348.3273
0
3DFACE
8
0
10
-43.273064
20
337.47446
30
-1348.3274
11
-160.1417
21
273.1525
31
-1407.2284
12
-48.870102
22
339.7169
32
-1369.0027
13
-48.870003
23
339.71698
33
-1369.0026
0
3DFACE
8
0
10
-48.870102
20
339.7169
30
-1369.0027
11
-54.405342
21
342.18228
31
-1389.4728
12
24.204117
22
268.46542
32
-1457.6411
13
24.204216
23
268.4655
33
-1457.641
0
3DFACE
8
0
10
24.204117
20
268.46542
30
-1457.6411
11
-54.405342
21
342.18228
31
-1389.4728
12
8.797157
22
280.5563
32
-1466.137
13
8.797257
23
280.5564
33
-1466.1368
0
3DFACE
8
0
10
24.204117
20
268.46542
30
-1457.6411
11
8.797157
21
280.5563
31
-1466.137
12
-87.06748
22
201.90103
32
-1495.867
13
-87.06738
23
201.90114
33
-1495.8668
0
3DFACE
8
0
10
-87.06748
20
201.90103
30
-1495.867
11
8.797157
21
280.5563
31
-1466.137
12
-87.44258
22
222.9842
32
-1499.1987
13
-87.44248
23
222.98431
33
-1499.1986
0
3DFACE
8
0
10
-87.06748
20
201.90103
30
-1495.867
11
-87.44258
21
222.9842
31
-1499.1987
12
-160.1417
22
273.1525
32
-1407.2284
13
-160.14159
23
273.1526
33
-1407.2283
0
3DFACE
8
0
10
-160.1417
20
273.1525
30
-1407.2284
11
-87.44258
21
222.9842
31
-1499.1987
12
-150.64508
22
284.6102
32
-1422.5345
13
-150.64497
23
284.6103
33
-1422.5344
0
3DFACE
8
0
10
-160.1417
20
273.1525
30
-1407.2284
11
-150.64508
21
284.6102
31
-1422.5345
12
-48.870102
22
339.7169
32
-1369.0027
13
-48.870003
23
339.71698
33
-1369.0026
0
3DFACE
8
0
10
-48.870102
20
339.7169
30
-1369.0027
11
-150.64508
21
284.6102
31
-1422.5345
12
-54.405342
22
342.18228
32
-1389.4728
13
-54.405243
23
342.18237
33
-1389.4727
0
3DFACE
8
0
10
-54.405342
20
342.18228
30
-1389.4728
11
-59.698006
21
345.52295
31
-1409.1372
12
8.797157
22
280.5563
32
-1466.137
13
8.797257
23
280.5564
33
-1466.1368
0
3DFACE
8
0
10
8.797157
20
280.5563
30
-1466.137
11
-59.698006
21
345.52295
31
-1409.1372
12
-5.439102
22
292.61743
32
-1474.9529
13
-5.439002
23
292.61752
33
-1474.9528
0
3DFACE
8
0
10
8.797157
20
280.5563
30
-1466.137
11
-5.439102
21
292.61743
31
-1474.9529
12
-87.44258
22
222.9842
32
-1499.1987
13
-87.44248
23
222.98431
33
-1499.1986
0
3DFACE
8
0
10
-87.44258
20
222.9842
30
-1499.1987
11
-5.439102
21
292.61743
31
-1474.9529
12
-88.06024
22
243.19221
32
-1503.3362
13
-88.06014
23
243.19232
33
-1503.336
0
3DFACE
8
0
10
-87.44258
20
222.9842
30
-1499.1987
11
-88.06024
21
243.19221
31
-1503.3362
12
-150.64508
22
284.6102
32
-1422.5345
13
-150.64497
23
284.6103
33
-1422.5344
0
3DFACE
8
0
10
-150.64508
20
284.6102
30
-1422.5345
11
-88.06024
21
243.19221
31
-1503.3362
12
-142.31914
22
296.0977
32
-1437.5205
13
-142.31903
23
296.09778
33
-1437.5204
0
3DFACE
8
0
10
-150.64508
20
284.6102
30
-1422.5345
11
-142.31914
21
296.0977
31
-1437.5205
12
-54.405342
22
342.18228
32
-1389.4728
13
-54.405243
23
342.18237
33
-1389.4727
0
3DFACE
8
0
10
-54.405342
20
342.18228
30
-1389.4728
11
-142.31914
21
296.0977
31
-1437.5205
12
-59.698006
22
345.52295
32
-1409.1372
13
-59.697906
23
345.52304
33
-1409.1371
0
3DFACE
8
0
10
-59.698006
20
345.52295
30
-1409.1372
11
-64.584305
21
350.32968
31
-1427.452
12
-5.439102
22
292.61743
32
-1474.9529
13
-5.439002
23
292.61752
33
-1474.9528
0
3DFACE
8
0
10
-5.439102
20
292.61743
30
-1474.9529
11
-64.584305
21
350.32968
31
-1427.452
12
-17.714214
22
304.6287
32
-1484.3052
13
-17.714115
23
304.62878
33
-1484.305
0
3DFACE
8
0
10
-5.439102
20
292.61743
30
-1474.9529
11
-17.714214
21
304.6287
31
-1484.3052
12
-88.06024
22
243.19221
32
-1503.3362
13
-88.06014
23
243.19232
33
-1503.336
0
3DFACE
8
0
10
-88.06024
20
243.19221
30
-1503.3362
11
-17.714214
21
304.6287
31
-1484.3052
12
-89.08426
22
261.93405
32
-1508.8232
13
-89.08416
23
261.93414
33
-1508.8231
0
3DFACE
8
0
10
-88.06024
20
243.19221
30
-1503.3362
11
-89.08426
21
261.93405
31
-1508.8232
12
-142.31914
22
296.0977
32
-1437.5205
13
-142.31903
23
296.09778
33
-1437.5204
0
3DFACE
8
0
10
-142.31914
20
296.0977
30
-1437.5205
11
-89.08426
21
261.93405
31
-1508.8232
12
-135.95435
22
307.63504
32
-1451.9702
13
-135.95424
23
307.63513
33
-1451.9701
0
3DFACE
8
0
10
-142.31914
20
296.0977
30
-1437.5205
11
-135.95435
21
307.63504
31
-1451.9702
12
-59.698006
22
345.52295
32
-1409.1372
13
-59.697906
23
345.52304
33
-1409.1371
0
3DFACE
8
0
10
-59.698006
20
345.52295
30
-1409.1372
11
-135.95435
21
307.63504
31
-1451.9702
12
-64.584305
22
350.32968
32
-1427.452
13
-64.584206
23
350.32977
33
-1427.4519
0
3DFACE
8
0
10
-64.584305
20
350.32968
30
-1427.452
11
-68.92895
21
357.0908
31
-1443.9678
12
-17.714214
22
304.6287
32
-1484.3052
13
-17.714115
23
304.62878
33
-1484.305
0
3DFACE
8
0
10
-17.714214
20
304.6287
30
-1484.3052
11
-68.92895
21
357.0908
31
-1443.9678
12
-27.375156
22
316.5735
32
-1494.3723
13
-27.375057
23
316.57358
33
-1494.3722
0
3DFACE
8
0
10
-17.714214
20
304.6287
30
-1484.3052
11
-27.375156
21
316.5735
31
-1494.3723
12
-89.08426
22
261.93405
32
-1508.8232
13
-89.08416
23
261.93414
33
-1508.8231
0
3DFACE
8
0
10
-89.08426
20
261.93405
30
-1508.8232
11
-27.375156
21
316.5735
31
-1494.3723
12
-90.64996
22
278.72153
32
-1516.1094
13
-90.649864
23
278.72162
33
-1516.1093
0
3DFACE
8
0
10
-89.08426
20
261.93405
30
-1508.8232
11
-90.64996
21
278.72153
31
-1516.1094
12
-135.95435
22
307.63504
32
-1451.9702
13
-135.95424
23
307.63513
33
-1451.9701
0
3DFACE
8
0
10
-135.95435
20
307.63504
30
-1451.9702
11
-90.64996
21
278.72153
31
-1516.1094
12
-132.20375
22
319.23883
32
-1465.705
13
-132.20364
23
319.23892
33
-1465.7048
0
3DFACE
8
0
10
-135.95435
20
307.63504
30
-1451.9702
11
-132.20375
21
319.23883
31
-1465.705
12
-64.584305
22
350.32968
32
-1427.452
13
-64.584206
23
350.32977
33
-1427.4519
0
3DFACE
8
0
10
-64.584305
20
350.32968
30
-1427.452
11
-132.20375
21
319.23883
31
-1465.705
12
-68.92895
22
357.0908
32
-1443.9678
13
-68.92885
23
357.09088
33
-1443.9677
0
3DFACE
8
0
10
-68.92895
20
357.0908
30
-1443.9678
11
-72.63455
21
366.15753
31
-1458.3612
12
-27.375156
22
316.5735
32
-1494.3723
13
-27.375057
23
316.57358
33
-1494.3722
0
3DFACE
8
0
10
-27.375156
20
316.5735
30
-1494.3723
11
-72.63455
21
366.15753
31
-1458.3612
12
-33.952053
22
328.4399
32
-1505.2827
13
-33.951954
23
328.44
33
-1505.2826
0
3DFACE
8
0
10
-27.375156
20
316.5735
30
-1494.3723
11
-33.952053
21
328.4399
31
-1505.2827
12
-90.64996
22
278.72153
32
-1516.1094
13
-90.649864
23
278.72162
33
-1516.1093
0
3DFACE
8
0
10
-90.64996
20
278.72153
30
-1516.1094
11
-33.952053
21
328.4399
31
-1505.2827
12
-92.85468
22
293.20343
32
-1525.518
13
-92.85458
23
293.20352
33
-1525.5178
0
3DFACE
8
0
10
-90.64996
20
278.72153
30
-1516.1094
11
-92.85468
21
293.20343
31
-1525.518
12
-132.20375
22
319.23883
32
-1465.705
13
-132.20364
23
319.23892
33
-1465.7048
0
3DFACE
8
0
10
-132.20375
20
319.23883
30
-1465.705
11
-92.85468
21
293.20343
31
-1525.518
12
-131.53717
22
330.92105
32
-1478.5964
13
-131.53706
23
330.92114
33
-1478.5963
0
3DFACE
8
0
10
-132.20375
20
319.23883
30
-1465.705
11
-131.53717
21
330.92105
31
-1478.5964
12
-68.92895
22
357.0908
32
-1443.9678
13
-68.92885
23
357.09088
33
-1443.9677
0
3DFACE
8
0
10
-68.92895
20
357.0908
30
-1443.9678
11
-131.53717
21
330.92105
31
-1478.5964
12
-72.63455
22
366.15753
32
-1458.3612
13
-72.63445
23
366.15762
33
-1458.3611
0
3DFACE
8
0
10
-72.63455
20
366.15753
30
-1458.3612
11
-75.648544
21
377.71954
31
-1470.4575
12
-33.952053
22
328.4399
32
-1505.2827
13
-33.951954
23
328.44
33
-1505.2826
0
3DFACE
8
0
10
-33.952053
20
328.4399
30
-1505.2827
11
-75.648544
21
377.71954
31
-1470.4575
12
-37.19115
22
340.2214
32
-1517.1061
13
-37.19105
23
340.2215
33
-1517.106
0
3DFACE
8
0
10
-33.952053
20
328.4399
30
-1505.2827
11
-37.19115
21
340.2214
31
-1517.1061
12
-92.85468
22
293.20343
32
-1525.518
13
-92.85458
23
293.20352
33
-1525.5178
0
3DFACE
8
0
10
-92.85468
20
293.20343
30
-1525.518
11
-37.19115
21
340.2214
31
-1517.1061
12
-95.75101
22
305.19
32
-1537.2235
13
-95.75091
23
305.1901
33
-1537.2234
0
3DFACE
8
0
10
-92.85468
20
293.20343
30
-1525.518
11
-95.75101
21
305.19
31
-1537.2235
12
-131.53717
22
330.92105
32
-1478.5964
13
-131.53706
23
330.92114
33
-1478.5963
0
3DFACE
8
0
10
-131.53717
20
330.92105
30
-1478.5964
11
-95.75101
21
305.19
31
-1537.2235
12
-134.2084
22
342.68814
32
-1490.575
13
-134.2083
23
342.68823
33
-1490.5748
0
3DFACE
8
0
10
-131.53717
20
330.92105
30
-1478.5964
11
-134.2084
21
342.68814
31
-1490.575
12
-72.63455
22
366.15753
32
-1458.3612
13
-72.63445
23
366.15762
33
-1458.3611
0
3DFACE
8
0
10
-72.63455
20
366.15753
30
-1458.3612
11
-134.2084
21
342.68814
31
-1490.575
12
-75.648544
22
377.71954
32
-1470.4575
13
-75.648445
23
377.71964
33
-1470.4574
0
3DFACE
8
0
10
13.36329
20
48.21465
30
-1114.3295
11
7.970581
21
51.194313
31
-1134.3263
12
64.49307
22
-1.6397748
32
-1176.3496
13
64.49317
23
-1.6396748
33
-1176.3495
0
3DFACE
8
0
10
64.49307
20
-1.6397748
30
-1176.3496
11
7.970581
21
51.194313
31
-1134.3263
12
49.77399
22
10.433632
32
-1185.0334
13
49.77409
23
10.433732
33
-1185.0333
0
3DFACE
8
0
10
64.49307
20
-1.6397748
30
-1176.3496
11
49.77399
21
10.433632
31
-1185.0334
12
-13.363296
22
-48.21465
32
-1203.0961
13
-13.363195
23
-48.21455
33
-1203.096
0
3DFACE
8
0
10
-13.363296
20
-48.21465
30
-1203.0961
11
49.77399
21
10.433632
31
-1185.0334
12
-13.880916
22
-27.645706
32
-1206.9012
13
-13.8808155
23
-27.645607
33
-1206.9011
0
3DFACE
8
0
10
-13.363296
20
-48.21465
30
-1203.0961
11
-13.880916
21
-27.645706
31
-1206.9012
12
-64.49307
22
1.6397732
32
-1141.0759
13
-64.49297
23
1.6398733
33
-1141.0758
0
3DFACE
8
0
10
-64.49307
20
1.6397732
30
-1141.0759
11
-13.880916
21
-27.645706
31
-1206.9012
12
-55.684322
22
13.114971
32
-1156.194
13
-55.684223
23
13.115071
33
-1156.1938
0
3DFACE
8
0
10
-64.49307
20
1.6397732
30
-1141.0759
11
-55.684322
21
13.114971
31
-1156.194
12
13.36329
22
48.21465
32
-1114.3295
13
13.36339
23
48.21475
33
-1114.3293
0
3DFACE
8
0
10
13.36329
20
48.21465
30
-1114.3295
11
-55.684322
21
13.114971
31
-1156.194
12
7.970581
22
51.194313
32
-1134.3263
13
7.970681
23
51.194412
33
-1134.3262
0
3DFACE
8
0
10
7.970581
20
51.194313
30
-1134.3263
11
2.9323297
21
55.452854
31
-1153.1458
12
49.77399
22
10.433632
32
-1185.0334
13
49.77409
23
10.433732
33
-1185.0333
0
3DFACE
8
0
10
49.77399
20
10.433632
30
-1185.0334
11
2.9323297
21
55.452854
31
-1153.1458
12
36.765564
22
22.463545
32
-1194.1852
13
36.765663
23
22.463644
33
-1194.185
0
3DFACE
8
0
10
49.77399
20
10.433632
30
-1185.0334
11
36.765564
21
22.463545
31
-1194.1852
12
-13.880916
22
-27.645706
32
-1206.9012
13
-13.8808155
23
-27.645607
33
-1206.9011
0
3DFACE
8
0
10
-13.880916
20
-27.645706
30
-1206.9012
11
36.765564
21
22.463545
31
-1194.1852
12
-14.752993
22
-8.355644
32
-1211.8837
13
-14.7528925
23
-8.355544
33
-1211.8835
0
3DFACE
8
0
10
-13.880916
20
-27.645706
30
-1206.9012
11
-14.752993
21
-8.355644
31
-1211.8837
12
-55.684322
22
13.114971
32
-1156.194
13
-55.684223
23
13.115071
33
-1156.1938
0
3DFACE
8
0
10
-55.684322
20
13.114971
30
-1156.194
11
-14.752993
21
-8.355644
31
-1211.8837
12
-48.58622
22
24.633663
32
-1170.8442
13
-48.58612
23
24.633762
33
-1170.8441
0
3DFACE
8
0
10
-55.684322
20
13.114971
30
-1156.194
11
-48.58622
21
24.633663
31
-1170.8442
12
7.970581
22
51.194313
32
-1134.3263
13
7.970681
23
51.194412
33
-1134.3262
0
3DFACE
8
0
10
7.970581
20
51.194313
30
-1134.3263
11
-48.58622
21
24.633663
31
-1170.8442
12
2.9323297
22
55.452854
32
-1153.1458
13
2.9324296
23
55.452953
33
-1153.1456
0
3DFACE
8
0
10
2.9323297
20
55.452854
30
-1153.1458
11
-1.6055093
21
61.51688
31
-1170.3032
12
36.765564
22
22.463545
32
-1194.1852
13
36.765663
23
22.463644
33
-1194.185
0
3DFACE
8
0
10
36.765564
20
22.463545
30
-1194.1852
11
-1.6055093
21
61.51688
31
-1170.3032
12
26.172195
22
34.432053
32
-1203.9973
13
26.172295
23
34.43215
33
-1203.9972
0
3DFACE
8
0
10
36.765564
20
22.463545
30
-1194.1852
11
26.172195
21
34.432053
31
-1203.9973
12
-14.752993
22
-8.355644
32
-1211.8837
13
-14.7528925
23
-8.355544
33
-1211.8835
0
3DFACE
8
0
10
-14.752993
20
-8.355644
30
-1211.8837
11
26.172195
21
34.432053
31
-1203.9973
12
-16.125483
22
9.128933
32
-1218.5281
13
-16.125383
23
9.129033
33
-1218.528
0
3DFACE
8
0
10
-14.752993
20
-8.355644
30
-1211.8837
11
-16.125483
21
9.128933
31
-1218.5281
12
-48.58622
22
24.633663
32
-1170.8442
13
-48.58612
23
24.633762
33
-1170.8441
0
3DFACE
8
0
10
-48.58622
20
24.633663
30
-1170.8442
11
-16.125483
21
9.128933
31
-1218.5281
12
-43.903183
22
36.21376
32
-1184.834
13
-43.903084
23
36.21386
33
-1184.8339
0
3DFACE
8
0
10
-48.58622
20
24.633663
30
-1170.8442
11
-43.903183
21
36.21376
31
-1184.834
12
2.9323297
22
55.452854
32
-1153.1458
13
2.9324296
23
55.452953
33
-1153.1456
0
3DFACE
8
0
10
2.9323297
20
55.452854
30
-1153.1458
11
-43.903183
21
36.21376
31
-1184.834
12
-1.6055093
22
61.51688
32
-1170.3032
13
-1.6054093
23
61.51698
33
-1170.3031
0
3DFACE
8
0
10
-1.6055093
20
61.51688
30
-1170.3032
11
-5.5320387
21
69.78651
31
-1185.4303
12
26.172195
22
34.432053
32
-1203.9973
13
26.172295
23
34.43215
33
-1203.9972
0
3DFACE
8
0
10
26.172195
20
34.432053
30
-1203.9973
11
-5.5320387
21
69.78651
31
-1185.4303
12
18.529087
22
46.32555
32
-1214.6163
13
18.529186
23
46.32565
33
-1214.6162
0
3DFACE
8
0
10
26.172195
20
34.432053
30
-1203.9973
11
18.529087
21
46.32555
31
-1214.6163
12
-16.125483
22
9.128933
32
-1218.5281
13
-16.125383
23
9.129033
33
-1218.528
0
3DFACE
8
0
10
-16.125483
20
9.128933
30
-1218.5281
11
18.529087
21
46.32555
31
-1214.6163
12
-18.109282
22
24.407915
32
-1227.2029
13
-18.109182
23
24.408014
33
-1227.2028
0
3DFACE
8
0
10
-16.125483
20
9.128933
30
-1218.5281
11
-18.109282
21
24.407915
31
-1227.2029
12
-43.903183
22
36.21376
32
-1184.834
13
-43.903084
23
36.21386
33
-1184.8339
0
3DFACE
8
0
10
-43.903183
20
36.21376
30
-1184.834
11
-18.109282
21
24.407915
31
-1227.2029
12
-42.170406
22
47.86887
32
-1198.0168
13
-42.170307
23
47.86897
33
-1198.0167
0
3DFACE
8
0
10
-43.903183
20
36.21376
30
-1184.834
11
-42.170406
21
47.86887
31
-1198.0168
12
-1.6055093
22
61.51688
32
-1170.3032
13
-1.6054093
23
61.51698
33
-1170.3031
0
3DFACE
8
0
10
-1.6055093
20
61.51688
30
-1170.3032
11
-42.170406
21
47.86887
31
-1198.0168
12
-5.5320387
22
69.78651
32
-1185.4303
13
-5.5319386
23
69.786606
33
-1185.4302
0
3DFACE
8
0
10
-5.5320387
20
69.78651
30
-1185.4303
11
-8.779199
21
80.50729
31
-1198.301
12
18.529087
22
46.32555
32
-1214.6163
13
18.529186
23
46.32565
33
-1214.6162
0
3DFACE
8
0
10
18.529087
20
46.32555
30
-1214.6163
11
-8.779199
21
80.50729
31
-1198.301
12
14.164715
22
58.13568
32
-1226.1318
13
14.164815
23
58.13578
33
-1226.1317
0
3DFACE
8
0
10
18.529087
20
46.32555
30
-1214.6163
11
14.164715
21
58.13568
31
-1226.1318
12
-18.109282
22
24.407915
32
-1227.2029
13
-18.109182
23
24.408014
33
-1227.2028
0
3DFACE
8
0
10
-18.109282
20
24.407915
30
-1227.2029
11
14.164715
21
58.13568
31
-1226.1318
12
-20.772451
22
37.235733
32
-1238.134
13
-20.772352
23
37.235832
33
-1238.1339
0
3DFACE
8
0
10
-18.109282
20
24.407915
30
-1227.2029
11
-20.772451
21
37.235733
31
-1238.134
12
-42.170406
22
47.86887
32
-1198.0168
13
-42.170307
23
47.86897
33
-1198.0167
0
3DFACE
8
0
10
-42.170406
20
47.86887
30
-1198.0168
11
-20.772451
21
37.235733
31
-1238.134
12
-43.716362
22
59.60734
32
-1210.3032
13
-43.716263
23
59.60744
33
-1210.3031
0
3DFACE
8
0
10
-42.170406
20
47.86887
30
-1198.0168
11
-43.716362
21
59.60734
31
-1210.3032
12
-5.5320387
22
69.78651
32
-1185.4303
13
-5.5319386
23
69.786606
33
-1185.4302
0
3DFACE
8
0
10
-5.5320387
20
69.78651
30
-1185.4303
11
-43.716362
21
59.60734
31
-1210.3032
12
-8.779199
22
80.50729
32
-1198.301
13
-8.7790985
23
80.50739
33
-1198.3009
0
3DFACE
8
0
10
-8.779199
20
80.50729
30
-1198.301
11
-11.3265295
21
93.75306
31
-1208.8475
12
14.164715
22
58.13568
32
-1226.1318
13
14.164815
23
58.13578
33
-1226.1317
0
3DFACE
8
0
10
14.164715
20
58.13568
30
-1226.1318
11
-11.3265295
21
93.75306
31
-1208.8475
12
13.177816
22
69.85994
32
-1238.571
13
13.177917
23
69.86004
33
-1238.5709
0
3DFACE
8
0
10
14.164715
20
58.13568
30
-1226.1318
11
13.177816
21
69.85994
31
-1238.571
12
-20.772451
22
37.235733
32
-1238.134
13
-20.772352
23
37.235832
33
-1238.1339
0
3DFACE
8
0
10
-20.772451
20
37.235733
30
-1238.134
11
13.177816
21
69.85994
31
-1238.571
12
-24.135452
22
47.538567
32
-1251.3895
13
-24.135353
23
47.538666
33
-1251.3894
0
3DFACE
8
0
10
-20.772451
20
37.235733
30
-1238.134
11
-24.135452
21
47.538567
31
-1251.3895
12
-43.716362
22
59.60734
32
-1210.3032
13
-43.716263
23
59.60744
33
-1210.3031
0
3DFACE
8
0
10
-43.716362
20
59.60734
30
-1210.3032
11
-24.135452
21
47.538567
31
-1251.3895
12
-48.639793
22
71.43169
32
-1221.6659
13
-48.639694
23
71.431786
33
-1221.6658
0
3DFACE
8
0
10
-43.716362
20
59.60734
30
-1210.3032
11
-48.639793
21
71.43169
31
-1221.6659
12
-8.779199
22
80.50729
32
-1198.301
13
-8.7790985
23
80.50739
33
-1198.3009
0
3DFACE
8
0
10
-8.779199
20
80.50729
30
-1198.301
11
-48.639793
21
71.43169
31
-1221.6659
12
-11.3265295
22
93.75306
32
-1208.8475
13
-11.326429
23
93.75316
33
-1208.8474
0
3DFACE
8
0
10
-11.3265295
20
93.75306
30
-1208.8475
11
-13.202605
21
109.42071
31
-1217.1646
12
13.177816
22
69.85994
32
-1238.571
13
13.177917
23
69.86004
33
-1238.5709
0
3DFACE
8
0
10
13.177816
20
69.85994
30
-1238.571
11
-13.202605
21
109.42071
31
-1217.1646
12
15.430481
22
81.50183
32
-1251.8962
13
15.430581
23
81.50193
33
-1251.8961
0
3DFACE
8
0
10
13.177816
20
69.85994
30
-1238.571
11
15.430481
21
81.50183
31
-1251.8962
12
-24.135452
22
47.538567
32
-1251.3895
13
-24.135353
23
47.538666
33
-1251.3894
0
3DFACE
8
0
10
-24.135452
20
47.538567
30
-1251.3895
11
15.430481
21
81.50183
31
-1251.8962
12
-28.169704
22
55.419533
32
-1266.8744
13
-28.169605
23
55.419632
33
-1266.8743
0
3DFACE
8
0
10
-24.135452
20
47.538567
30
-1251.3895
11
-28.169704
21
55.419533
31
-1266.8744
12
-48.639793
22
71.43169
32
-1221.6659
13
-48.639694
23
71.431786
33
-1221.6658
0
3DFACE
8
0
10
-48.639793
20
71.43169
30
-1221.6659
11
-28.169704
21
55.419533
31
-1266.8744
12
-56.802788
22
83.33841
32
-1232.1427
13
-56.80269
23
83.33851
33
-1232.1426
0
3DFACE
8
0
10
-48.639793
20
71.43169
30
-1221.6659
11
-56.802788
21
83.33841
31
-1232.1427
12
-11.3265295
22
93.75306
32
-1208.8475
13
-11.326429
23
93.75316
33
-1208.8474
0
3DFACE
8
0
10
-11.3265295
20
93.75306
30
-1208.8475
11
-56.802788
21
83.33841
31
-1232.1427
12
-13.202605
22
109.42071
32
-1217.1646
13
-13.202505
23
109.42081
33
-1217.1644
0
3DFACE
8
0
10
-13.202605
20
109.42071
30
-1217.1646
11
-14.483037
21
127.23743
31
-1223.5032
12
15.430481
22
81.50183
32
-1251.8962
13
15.430581
23
81.50193
33
-1251.8961
0
3DFACE
8
0
10
15.430481
20
81.50183
30
-1251.8962
11
-14.483037
21
127.23743
31
-1223.5032
12
20.557802
22
93.07063
32
-1266.0074
13
20.557901
23
93.07073
33
-1266.0073
0
3DFACE
8
0
10
15.430481
20
81.50183
30
-1251.8962
11
20.557802
21
93.07063
31
-1266.0074
12
-28.169704
22
55.419533
32
-1266.8744
13
-28.169605
23
55.419632
33
-1266.8743
0
3DFACE
8
0
10
-28.169704
20
55.419533
30
-1266.8744
11
20.557802
21
93.07063
31
-1266.0074
12
-32.799603
22
61.151413
32
-1284.3376
13
-32.799503
23
61.151512
33
-1284.3375
0
3DFACE
8
0
10
-28.169704
20
55.419533
30
-1266.8744
11
-32.799603
21
61.151413
31
-1284.3376
12
-56.802788
22
83.33841
32
-1232.1427
13
-56.80269
23
83.33851
33
-1232.1426
0
3DFACE
8
0
10
-56.802788
20
83.33841
30
-1232.1427
11
-32.799603
21
61.151413
31
-1284.3376
12
-67.84044
22
95.31821
32
-1241.8334
13
-67.84034
23
95.318306
33
-1241.8333
0
3DFACE
8
0
10
-56.802788
20
83.33841
30
-1232.1427
11
-67.84044
21
95.31821
31
-1241.8334
12
-13.202605
22
109.42071
32
-1217.1646
13
-13.202505
23
109.42081
33
-1217.1644
0
3DFACE
8
0
10
-13.202605
20
109.42071
30
-1217.1646
11
-67.84044
21
95.31821
31
-1241.8334
12
-14.483037
22
127.23743
32
-1223.5032
13
-14.482937
23
127.237526
33
-1223.503
0
3DFACE
8
0
10
-14.483037
20
127.23743
30
-1223.5032
11
-15.285172
21
146.77985
31
-1228.2533
12
20.557802
22
93.07063
32
-1266.0074
13
20.557901
23
93.07073
33
-1266.0073
0
3DFACE
8
0
10
20.557802
20
93.07063
30
-1266.0074
11
-15.285172
21
146.77985
31
-1228.2533
12
27.99346
22
104.580734
32
-1280.75
13
27.993559
23
104.58083
33
-1280.7499
0
3DFACE
8
0
10
20.557802
20
93.07063
30
-1266.0074
11
27.99346
21
104.580734
31
-1280.75
12
-32.799603
22
61.151413
32
-1284.3376
13
-32.799503
23
61.151512
33
-1284.3375
0
3DFACE
8
0
10
-32.799603
20
61.151413
30
-1284.3376
11
27.99346
21
104.580734
31
-1280.75
12
-37.9078
22
65.15759
32
-1303.3894
13
-37.9077
23
65.15769
33
-1303.3893
0
3DFACE
8
0
10
-32.799603
20
61.151413
30
-1284.3376
11
-37.9078
21
65.15759
31
-1303.3894
12
-67.84044
22
95.31821
32
-1241.8334
13
-67.84034
23
95.318306
33
-1241.8333
0
3DFACE
8
0
10
-67.84044
20
95.31821
30
-1241.8334
11
-37.9078
21
65.15759
31
-1303.3894
12
-81.186424
22
107.3567
32
-1250.8928
13
-81.186325
23
107.3568
33
-1250.8927
0
3DFACE
8
0
10
-67.84044
20
95.31821
30
-1241.8334
11
-81.186424
21
107.3567
31
-1250.8928
12
-14.483037
22
127.23743
32
-1223.5032
13
-14.482937
23
127.237526
33
-1223.503
0
3DFACE
8
0
10
-14.483037
20
127.23743
30
-1223.5032
11
-81.186424
21
107.3567
31
-1250.8928
12
-15.285172
22
146.77985
32
-1228.2533
13
-15.285072
23
146.77995
33
-1228.2532
0
3DFACE
8
0
10
-15.285172
20
146.77985
30
-1228.2533
11
-15.759866
21
167.50368
31
-1231.916
12
27.99346
22
104.580734
32
-1280.75
13
27.993559
23
104.58083
33
-1280.7499
0
3DFACE
8
0
10
27.99346
20
104.580734
30
-1280.75
11
-15.759866
21
167.50368
31
-1231.916
12
37.009388
22
116.050674
32
-1295.9247
13
37.009487
23
116.05077
33
-1295.9246
0
3DFACE
8
0
10
27.99346
20
104.580734
30
-1280.75
11
37.009388
21
116.050674
31
-1295.9247
12
-37.9078
22
65.15759
32
-1303.3894
13
-37.9077
23
65.15769
33
-1303.3893
0
3DFACE
8
0
10
-37.9078
20
65.15759
30
-1303.3894
11
37.009388
21
116.050674
31
-1295.9247
12
-43.343433
22
67.982376
32
-1323.5287
13
-43.343334
23
67.982475
33
-1323.5286
0
3DFACE
8
0
10
-37.9078
20
65.15759
30
-1303.3894
11
-43.343433
21
67.982376
31
-1323.5287
12
-81.186424
22
107.3567
32
-1250.8928
13
-81.186325
23
107.3568
33
-1250.8927
0
3DFACE
8
0
10
-81.186424
20
107.3567
30
-1250.8928
11
-43.343433
21
67.982376
31
-1323.5287
12
-96.112686
22
119.43538
32
-1259.52
13
-96.11259
23
119.43548
33
-1259.5199
0
3DFACE
8
0
10
-81.186424
20
107.3567
30
-1250.8928
11
-96.112686
21
119.43538
31
-1259.52
12
-15.285172
22
146.77985
32
-1228.2533
13
-15.285072
23
146.77995
33
-1228.2532
0
3DFACE
8
0
10
-15.285172
20
146.77985
30
-1228.2533
11
-96.112686
21
119.43538
31
-1259.52
12
-15.759866
22
167.50368
32
-1231.916
13
-15.759766
23
167.50378
33
-1231.9159
0
3DFACE
8
0
10
-15.759866
20
167.50368
30
-1231.916
11
-16.080921
21
188.78183
31
-1235.0684
12
37.009388
22
116.050674
32
-1295.9247
13
37.009487
23
116.05077
33
-1295.9246
0
3DFACE
8
0
10
37.009388
20
116.050674
30
-1295.9247
11
-16.080921
21
188.78183
31
-1235.0684
12
46.766808
22
127.501755
32
-1311.3021
13
46.766907
23
127.501854
33
-1311.302
0
3DFACE
8
0
10
37.009388
20
116.050674
30
-1295.9247
11
46.766808
21
127.501755
31
-1311.3021
12
-43.343433
22
67.982376
32
-1323.5287
13
-43.343334
23
67.982475
33
-1323.5286
0
3DFACE
8
0
10
-43.343433
20
67.982376
30
-1323.5287
11
46.766808
21
127.501755
31
-1311.3021
12
-48.932713
22
70.25284
32
-1344.1783
13
-48.932613
23
70.25294
33
-1344.1782
0
3DFACE
8
0
10
-43.343433
20
67.982376
30
-1323.5287
11
-48.932713
21
70.25284
31
-1344.1783
12
-96.112686
22
119.43538
32
-1259.52
13
-96.11259
23
119.43548
33
-1259.5199
0
3DFACE
8
0
10
-96.112686
20
119.43538
30
-1259.52
11
-48.932713
21
70.25284
31
-1344.1783
12
-111.78043
22
131.53291
32
-1267.9445
13
-111.780334
23
131.53302
33
-1267.9443
0
3DFACE
8
0
10
-96.112686
20
119.43538
30
-1259.52
11
-111.78043
21
131.53291
31
-1267.9445
12
-15.759866
22
167.50368
32
-1231.916
13
-15.759766
23
167.50378
33
-1231.9159
0
3DFACE
8
0
10
-15.759866
20
167.50368
30
-1231.916
11
-111.78043
21
131.53291
31
-1267.9445
12
-16.080921
22
188.78183
32
-1235.0684
13
-16.080822
23
188.78194
33
-1235.0682
0
3DFACE
8
0
10
-16.080921
20
188.78183
30
-1235.0684
11
-16.432903
21
209.9484
31
-1238.3234
12
46.766808
22
127.501755
32
-1311.3021
13
46.766907
23
127.501854
33
-1311.302
0
3DFACE
8
0
10
46.766808
20
127.501755
30
-1311.3021
11
-16.432903
21
209.9484
31
-1238.3234
12
56.374958
22
138.95662
32
-1326.6387
13
56.375057
23
138.95673
33
-1326.6385
0
3DFACE
8
0
10
46.766808
20
127.501755
30
-1311.3021
11
56.374958
21
138.95662
31
-1326.6387
12
-48.932713
22
70.25284
32
-1344.1783
13
-48.932613
23
70.25294
33
-1344.1782
0
3DFACE
8
0
10
-48.932713
20
70.25284
30
-1344.1783
11
56.374958
21
138.95662
31
-1326.6387
12
-54.491062
22
72.634865
32
-1364.7252
13
-54.490963
23
72.634964
33
-1364.7251
0
3DFACE
8
0
10
-48.932713
20
70.25284
30
-1344.1783
11
-54.491062
21
72.634865
31
-1364.7252
12
-111.78043
22
131.53291
32
-1267.9445
13
-111.780334
23
131.53302
33
-1267.9443
0
3DFACE
8
0
10
-111.78043
20
131.53291
30
-1267.9445
11
-54.491062
21
72.634865
31
-1364.7252
12
-127.29892
22
143.62663
32
-1276.4098
13
-127.29882
23
143.62674
33
-1276.4097
0
3DFACE
8
0
10
-111.78043
20
131.53291
30
-1267.9445
11
-127.29892
21
143.62663
31
-1276.4098
12
-16.080921
22
188.78183
32
-1235.0684
13
-16.080822
23
188.78194
33
-1235.0682
0
3DFACE
8
0
10
-16.080921
20
188.78183
30
-1235.0684
11
-127.29892
21
143.62663
31
-1276.4098
12
-16.432903
22
209.9484
32
-1238.3234
13
-16.432804
23
209.9485
33
-1238.3232
0
3DFACE
8
0
10
-16.432903
20
209.9484
30
-1238.3234
11
-16.99821
21
230.34528
31
-1242.2869
12
56.374958
22
138.95662
32
-1326.6387
13
56.375057
23
138.95673
33
-1326.6385
0
3DFACE
8
0
10
56.374958
20
138.95662
30
-1326.6387
11
-16.99821
21
230.34528
31
-1242.2869
12
64.95357
22
150.43767
32
-1341.6938
13
64.95367
23
150.43777
33
-1341.6937
0
3DFACE
8
0
10
56.374958
20
138.95662
30
-1326.6387
11
64.95357
21
150.43767
31
-1341.6938
12
-54.491062
22
72.634865
32
-1364.7252
13
-54.490963
23
72.634964
33
-1364.7251
0
3DFACE
8
0
10
-54.491062
20
72.634865
30
-1364.7252
11
64.95357
21
150.43767
31
-1341.6938
12
-59.836082
22
75.78659
32
-1384.5635
13
-59.835983
23
75.78669
33
-1384.5634
0
3DFACE
8
0
10
-54.491062
20
72.634865
30
-1364.7252
11
-59.836082
21
75.78659
31
-1384.5635
12
-127.29892
22
143.62663
32
-1276.4098
13
-127.29882
23
143.62674
33
-1276.4097
0
3DFACE
8
0
10
-127.29892
20
143.62663
30
-1276.4098
11
-59.836082
21
75.78659
31
-1384.5635
12
-141.78784
22
155.6942
32
-1285.1566
13
-141.78773
23
155.6943
33
-1285.1565
0
3DFACE
8
0
10
-127.29892
20
143.62663
30
-1276.4098
11
-141.78784
21
155.6942
31
-1285.1566
12
-16.432903
22
209.9484
32
-1238.3234
13
-16.432804
23
209.9485
33
-1238.3232
0
3DFACE
8
0
10
-16.432903
20
209.9484
30
-1238.3234
11
-141.78784
21
155.6942
31
-1285.1566
12
-16.99821
22
230.34528
32
-1242.2869
13
-16.998112
23
230.34538
33
-1242.2867
0
3DFACE
8
0
10
-16.99821
20
230.34528
30
-1242.2869
11
-17.944302
21
249.36832
31
-1247.5151
12
64.95357
22
150.43767
32
-1341.6938
13
64.95367
23
150.43777
33
-1341.6937
0
3DFACE
8
0
10
64.95357
20
150.43767
30
-1341.6938
11
-17.944302
21
249.36832
31
-1247.5151
12
71.69447
22
161.96545
32
-1356.2463
13
71.69457
23
161.96556
33
-1356.2462
0
3DFACE
8
0
10
64.95357
20
150.43767
30
-1341.6938
11
71.69447
21
161.96545
31
-1356.2463
12
-59.836082
22
75.78659
32
-1384.5635
13
-59.835983
23
75.78669
33
-1384.5634
0
3DFACE
8
0
10
-59.836082
20
75.78659
30
-1384.5635
11
71.69447
21
161.96545
31
-1356.2463
12
-64.80032
22
80.31217
32
-1403.1372
13
-64.800224
23
80.31227
33
-1403.1371
0
3DFACE
8
0
10
-59.836082
20
75.78659
30
-1384.5635
11
-64.80032
21
80.31217
31
-1403.1372
12
-141.78784
22
155.6942
32
-1285.1566
13
-141.78773
23
155.6943
33
-1285.1565
0
3DFACE
8
0
10
-141.78784
20
155.6942
30
-1285.1566
11
-64.80032
21
80.31217
31
-1403.1372
12
-154.43909
22
167.71503
32
-1294.406
13
-154.43898
23
167.71513
33
-1294.4059
0
3DFACE
8
0
10
-141.78784
20
155.6942
30
-1285.1566
11
-154.43909
21
167.71503
31
-1294.406
12
-16.99821
22
230.34528
32
-1242.2869
13
-16.998112
23
230.34538
33
-1242.2867
0
3DFACE
8
0
10
-16.99821
20
230.34528
30
-1242.2869
11
-154.43909
21
167.71503
31
-1294.406
12
-17.944302
22
249.36832
32
-1247.5151
13
-17.944202
23
249.36842
33
-1247.515
0
3DFACE
8
0
10
-17.944302
20
249.36832
30
-1247.5151
11
-19.411942
21
266.50958
31
-1254.4756
12
71.69447
22
161.96545
32
-1356.2463
13
71.69457
23
161.96556
33
-1356.2462
0
3DFACE
8
0
10
71.69447
20
161.96545
30
-1356.2463
11
-19.411942
21
266.50958
31
-1254.4756
12
75.918304
22
173.5572
32
-1370.1105
13
75.9184
23
173.55731
33
-1370.1104
0
3DFACE
8
0
10
71.69447
20
161.96545
30
-1356.2463
11
75.918304
21
173.5572
31
-1370.1105
12
-64.80032
22
80.31217
32
-1403.1372
13
-64.800224
23
80.31227
33
-1403.1371
0
3DFACE
8
0
10
-64.80032
20
80.31217
30
-1403.1372
11
75.918304
21
173.5572
31
-1370.1105
12
-69.24301
22
86.71948
32
-1419.9786
13
-69.24291
23
86.71958
33
-1419.9785
0
3DFACE
8
0
10
-64.80032
20
80.31217
30
-1403.1372
11
-69.24301
21
86.71948
31
-1419.9786
12
-154.43909
22
167.71503
32
-1294.406
13
-154.43898
23
167.71513
33
-1294.4059
0
3DFACE
8
0
10
-154.43909
20
167.71503
30
-1294.406
11
-69.24301
21
86.71948
31
-1419.9786
12
-164.57326
22
179.67184
32
-1304.3438
13
-164.57315
23
179.67195
33
-1304.3436
0
3DFACE
8
0
10
-154.43909
20
167.71503
30
-1294.406
11
-164.57326
21
179.67184
31
-1304.3438
12
-17.944302
22
249.36832
32
-1247.5151
13
-17.944202
23
249.36842
33
-1247.515
0
3DFACE
8
0
10
-17.944302
20
249.36832
30
-1247.5151
11
-164.57326
21
179.67184
31
-1304.3438
12
-19.411942
22
266.50958
32
-1254.4756
13
-19.411842
23
266.50967
33
-1254.4755
0
3DFACE
8
0
10
-19.411942
20
266.50958
30
-1254.4756
11
-21.505362
21
281.39307
31
-1263.5145
12
75.918304
22
173.5572
32
-1370.1105
13
75.9184
23
173.55731
33
-1370.1104
0
3DFACE
8
0
10
75.918304
20
173.5572
30
-1370.1105
11
-21.505362
21
281.39307
31
-1263.5145
12
77.12204
22
185.22578
32
-1383.1488
13
77.12214
23
185.22589
33
-1383.1487
0
3DFACE
8
0
10
75.918304
20
173.5572
30
-1370.1105
11
77.12204
21
185.22578
31
-1383.1488
12
-69.24301
22
86.71948
32
-1419.9786
13
-69.24291
23
86.71958
33
-1419.9785
0
3DFACE
8
0
10
-69.24301
20
86.71948
30
-1419.9786
11
77.12204
21
185.22578
31
-1383.1488
12
-73.05992
22
95.38463
32
-1434.7417
13
-73.05982
23
95.38473
33
-1434.7416
0
3DFACE
8
0
10
-69.24301
20
86.71948
30
-1419.9786
11
-73.05992
21
95.38463
31
-1434.7417
12
-164.57326
22
179.67184
32
-1304.3438
13
-164.57315
23
179.67195
33
-1304.3436
0
3DFACE
8
0
10
-164.57326
20
179.67184
30
-1304.3438
11
-73.05992
21
95.38463
31
-1434.7417
12
-171.6873
22
191.5519
32
-1315.1074
13
-171.6872
23
191.552
33
-1315.1073
0
3DFACE
8
0
10
-164.57326
20
179.67184
30
-1304.3438
11
-171.6873
21
191.5519
31
-1315.1074
12
-19.411942
22
266.50958
32
-1254.4756
13
-19.411842
23
266.50967
33
-1254.4755
0
3DFACE
8
0
10
-19.411942
20
266.50958
30
-1254.4756
11
-171.6873
21
191.5519
31
-1315.1074
12
-21.505362
22
281.39307
32
-1263.5145
13
-21.505262
23
281.39316
33
-1263.5144
0
3DFACE
8
0
10
-21.505362
20
281.39307
30
-1263.5145
11
-24.28494
21
293.80087
31
-1274.8323
12
77.12204
22
185.22578
32
-1383.1488
13
77.12214
23
185.22589
33
-1383.1487
0
3DFACE
8
0
10
77.12204
20
185.22578
30
-1383.1488
11
-24.28494
21
293.80087
31
-1274.8323
12
75.014275
22
196.97853
32
-1395.2815
13
75.01437
23
196.97864
33
-1395.2814
0
3DFACE
8
0
10
77.12204
20
185.22578
30
-1383.1488
11
75.014275
21
196.97853
31
-1395.2815
12
-73.05992
22
95.38463
32
-1434.7417
13
-73.05982
23
95.38473
33
-1434.7416
0
3DFACE
8
0
10
-73.05992
20
95.38463
30
-1434.7417
11
75.014275
21
196.97853
31
-1395.2815
12
-76.190674
22
106.52542
32
-1447.2258
13
-76.190575
23
106.52552
33
-1447.2257
0
3DFACE
8
0
10
-73.05992
20
95.38463
30
-1434.7417
11
-76.190674
21
106.52542
31
-1447.2258
12
-171.6873
22
191.5519
32
-1315.1074
13
-171.6872
23
191.552
33
-1315.1073
0
3DFACE
8
0
10
-171.6873
20
191.5519
30
-1315.1074
11
-76.190674
21
106.52542
31
-1447.2258
12
-175.48987
22
203.34775
32
-1326.7766
13
-175.48976
23
203.34785
33
-1326.7765
0
3DFACE
8
0
10
-171.6873
20
191.5519
30
-1315.1074
11
-175.48987
21
203.34775
31
-1326.7766
12
-21.505362
22
281.39307
32
-1263.5145
13
-21.505262
23
281.39316
33
-1263.5144
0
3DFACE
8
0
10
-21.505362
20
281.39307
30
-1263.5145
11
-175.48987
21
203.34775
31
-1326.7766
12
-24.28494
22
293.80087
32
-1274.8323
13
-24.284842
23
293.80096
33
-1274.8322
0
3DFACE
8
0
10
-24.28494
20
293.80087
30
-1274.8323
11
-27.762985
21
303.68863
31
-1288.4698
12
75.014275
22
196.97853
32
-1395.2815
13
75.01437
23
196.97864
33
-1395.2814
0
3DFACE
8
0
10
75.014275
20
196.97853
30
-1395.2815
11
-27.762985
21
303.68863
31
-1288.4698
12
69.53563
22
208.81699
32
-1406.4924
13
69.53573
23
208.8171
33
-1406.4923
0
3DFACE
8
0
10
75.014275
20
196.97853
30
-1395.2815
11
69.53563
21
208.81699
31
-1406.4924
12
-76.190674
22
106.52542
32
-1447.2258
13
-76.190575
23
106.52552
33
-1447.2257
0
3DFACE
8
0
10
-76.190674
20
106.52542
30
-1447.2258
11
69.53563
21
208.81699
31
-1406.4924
12
-78.622955
22
120.18625
32
-1457.3901
13
-78.622856
23
120.18635
33
-1457.39
0
3DFACE
8
0
10
-76.190674
20
106.52542
30
-1447.2258
11
-78.622955
21
120.18625
31
-1457.3901
12
-175.48987
22
203.34775
32
-1326.7766
13
-175.48976
23
203.34785
33
-1326.7765
0
3DFACE
8
0
10
-175.48987
20
203.34775
30
-1326.7766
11
-78.622955
21
120.18625
31
-1457.3901
12
-175.92155
22
215.05788
32
-1339.3677
13
-175.92145
23
215.05798
33
-1339.3676
0
3DFACE
8
0
10
-175.48987
20
203.34775
30
-1326.7766
11
-175.92155
21
215.05788
31
-1339.3677
12
-24.28494
22
293.80087
32
-1274.8323
13
-24.284842
23
293.80096
33
-1274.8322
0
3DFACE
8
0
10
-24.28494
20
293.80087
30
-1274.8323
11
-175.92155
21
215.05788
31
-1339.3677
12
-27.762985
22
303.68863
32
-1288.4698
13
-27.762886
23
303.68872
33
-1288.4697
0
3DFACE
8
0
10
-27.762985
20
303.68863
30
-1288.4698
11
-31.902853
21
311.18854
31
-1304.3055
12
69.53563
22
208.81699
32
-1406.4924
13
69.53573
23
208.8171
33
-1406.4923
0
3DFACE
8
0
10
69.53563
20
208.81699
30
-1406.4924
11
-31.902853
21
311.18854
31
-1304.3055
12
60.862923
22
220.73666
32
-1416.8298
13
60.86302
23
220.73677
33
-1416.8297
0
3DFACE
8
0
10
69.53563
20
208.81699
30
-1406.4924
11
60.862923
21
220.73666
31
-1416.8298
12
-78.622955
22
120.18625
32
-1457.3901
13
-78.622856
23
120.18635
33
-1457.39
0
3DFACE
8
0
10
-78.622955
20
120.18625
30
-1457.3901
11
60.862923
21
220.73666
31
-1416.8298
12
-80.39342
22
136.23495
32
-1465.3563
13
-80.39332
23
136.23506
33
-1465.3562
0
3DFACE
8
0
10
-78.622955
20
120.18625
30
-1457.3901
11
-80.39342
21
136.23495
31
-1465.3563
12
-175.92155
22
215.05788
32
-1339.3677
13
-175.92145
23
215.05798
33
-1339.3676
0
3DFACE
8
0
10
-175.92155
20
215.05788
30
-1339.3677
11
-80.39342
21
136.23495
31
-1465.3563
12
-173.15918
22
226.68681
32
-1352.8322
13
-173.15907
23
226.68692
33
-1352.832
0
3DFACE
8
0
10
-175.92155
20
215.05788
30
-1339.3677
11
-173.15918
21
226.68681
31
-1352.8322
12
-27.762985
22
303.68863
32
-1288.4698
13
-27.762886
23
303.68872
33
-1288.4697
0
3DFACE
8
0
10
-27.762985
20
303.68863
30
-1288.4698
11
-173.15918
21
226.68681
31
-1352.8322
12
-31.902853
22
311.18854
32
-1304.3055
13
-31.902754
23
311.18863
33
-1304.3054
0
3DFACE
8
0
10
-31.902853
20
311.18854
30
-1304.3055
11
-36.621536
21
316.60007
31
-1322.0637
12
60.862923
22
220.73666
32
-1416.8298
13
60.86302
23
220.73677
33
-1416.8297
0
3DFACE
8
0
10
60.862923
20
220.73666
30
-1416.8298
11
-36.621536
21
316.60007
31
-1322.0637
12
49.396767
22
232.72737
32
-1426.4032
13
49.396866
23
232.72748
33
-1426.4031
0
3DFACE
8
0
10
60.862923
20
220.73666
30
-1416.8298
11
49.396767
21
232.72737
31
-1426.4032
12
-80.39342
22
136.23495
32
-1465.3563
13
-80.39332
23
136.23506
33
-1465.3562
0
3DFACE
8
0
10
-80.39342
20
136.23495
30
-1465.3563
11
49.396767
21
232.72737
31
-1426.4032
12
-81.58506
22
154.37204
32
-1471.4001
13
-81.58496
23
154.37215
33
-1471.4
0
3DFACE
8
0
10
-80.39342
20
136.23495
30
-1465.3563
11
-81.58506
21
154.37204
31
-1471.4001
12
-173.15918
22
226.68681
32
-1352.8322
13
-173.15907
23
226.68692
33
-1352.832
0
3DFACE
8
0
10
-173.15918
20
226.68681
30
-1352.8322
11
-81.58506
21
154.37204
31
-1471.4001
12
-167.60336
22
238.24474
32
-1367.0605
13
-167.60326
23
238.24484
33
-1367.0604
0
3DFACE
8
0
10
-173.15918
20
226.68681
30
-1352.8322
11
-167.60336
21
238.24474
31
-1367.0605
12
-31.902853
22
311.18854
32
-1304.3055
13
-31.902754
23
311.18863
33
-1304.3054
0
3DFACE
8
0
10
-31.902853
20
311.18854
30
-1304.3055
11
-167.60336
21
238.24474
31
-1367.0605
12
-36.621536
22
316.60007
32
-1322.0637
13
-36.621437
23
316.60016
33
-1322.0636
0
3DFACE
8
0
10
-36.621536
20
316.60007
30
-1322.0637
11
-41.79547
21
320.36908
31
-1341.3337
12
49.396767
22
232.72737
32
-1426.4032
13
49.396866
23
232.72748
33
-1426.4031
0
3DFACE
8
0
10
49.396767
20
232.72737
30
-1426.4032
11
-41.79547
21
320.36908
31
-1341.3337
12
35.733524
22
244.77394
32
-1435.3759
13
35.733624
23
244.77405
33
-1435.3757
0
3DFACE
8
0
10
49.396767
20
232.72737
30
-1426.4032
11
35.733524
21
244.77394
31
-1435.3759
12
-81.58506
22
154.37204
32
-1471.4001
13
-81.58496
23
154.37215
33
-1471.4
0
3DFACE
8
0
10
-81.58506
20
154.37204
30
-1471.4001
11
35.733524
21
244.77394
31
-1435.3759
12
-82.32146
22
174.15164
32
-1475.932
13
-82.32136
23
174.15175
33
-1475.9319
0
3DFACE
8
0
10
-81.58506
20
154.37204
30
-1471.4001
11
-82.32146
21
174.15164
31
-1475.932
12
-167.60336
22
238.24474
32
-1367.0605
13
-167.60326
23
238.24484
33
-1367.0604
0
3DFACE
8
0
10
-167.60336
20
238.24474
30
-1367.0605
11
-82.32146
21
174.15164
31
-1475.932
12
-159.85045
22
249.74678
32
-1381.8899
13
-159.85034
23
249.74689
33
-1381.8898
0
3DFACE
8
0
10
-167.60336
20
238.24474
30
-1367.0605
11
-159.85045
21
249.74678
31
-1381.8899
12
-36.621536
22
316.60007
32
-1322.0637
13
-36.621437
23
316.60016
33
-1322.0636
0
3DFACE
8
0
10
-36.621536
20
316.60007
30
-1322.0637
11
-159.85045
21
249.74678
31
-1381.8899
12
-41.79547
22
320.36908
32
-1341.3337
13
-41.795372
23
320.36917
33
-1341.3336
0
3DFACE
8
0
10
-41.79547
20
320.36908
30
-1341.3337
11
-47.269188
21
323.05646
31
-1361.5996
12
35.733524
22
244.77394
32
-1435.3759
13
35.733624
23
244.77405
33
-1435.3757
0
3DFACE
8
0
10
35.733524
20
244.77394
30
-1435.3759
11
-47.269188
21
323.05646
31
-1361.5996
12
20.623466
22
256.8573
32
-1443.9529
13
20.623566
23
256.8574
33
-1443.9528
0
3DFACE
8
0
10
35.733524
20
244.77394
30
-1435.3759
11
20.623466
21
256.8573
31
-1443.9529
12
-82.32146
22
174.15164
32
-1475.932
13
-82.32136
23
174.15175
33
-1475.9319
0
3DFACE
8
0
10
-82.32146
20
174.15164
30
-1475.932
11
20.623466
21
256.8573
31
-1443.9529
12
-82.75807
22
195.01288
32
-1479.4681
13
-82.75797
23
195.01299
33
-1479.468
0
3DFACE
8
0
10
-82.32146
20
174.15164
30
-1475.932
11
-82.75807
21
195.01288
31
-1479.4681
12
-159.85045
22
249.74678
32
-1381.8899
13
-159.85034
23
249.74689
33
-1381.8898
0
3DFACE
8
0
10
-159.85045
20
249.74678
30
-1381.8899
11
-82.75807
21
195.01288
31
-1479.4681
12
-150.65073
22
261.21204
32
-1397.1149
13
-150.65062
23
261.21213
33
-1397.1147
0
3DFACE
8
0
10
-159.85045
20
249.74678
30
-1381.8899
11
-150.65073
21
261.21204
31
-1397.1149
12
-41.79547
22
320.36908
32
-1341.3337
13
-41.795372
23
320.36917
33
-1341.3336
0
3DFACE
8
0
10
-41.79547
20
320.36908
30
-1341.3337
11
-150.65073
21
261.21204
31
-1397.1149
12
-47.269188
22
323.05646
32
-1361.5996
13
-47.26909
23
323.05655
33
-1361.5995
0
3DFACE
8
0
10
-47.269188
20
323.05646
30
-1361.5996
11
-52.866222
21
325.2989
31
-1382.2749
12
20.623466
22
256.8573
32
-1443.9529
13
20.623566
23
256.8574
33
-1443.9528
0
3DFACE
8
0
10
20.623466
20
256.8573
30
-1443.9529
11
-52.866222
21
325.2989
31
-1382.2749
12
4.9182663
22
268.95575
32
-1452.3671
13
4.9183664
23
268.95584
33
-1452.367
0
3DFACE
8
0
10
20.623466
20
256.8573
30
-1443.9529
11
4.9182663
21
268.95575
31
-1452.3671
12
-82.75807
22
195.01288
32
-1479.4681
13
-82.75797
23
195.01299
33
-1479.468
0
3DFACE
8
0
10
-82.75807
20
195.01288
30
-1479.4681
11
4.9182663
21
268.95575
31
-1452.3671
12
-83.07136
22
216.31902
32
-1482.5947
13
-83.07126
23
216.31912
33
-1482.5946
0
3DFACE
8
0
10
-82.75807
20
195.01288
30
-1479.4681
11
-83.07136
21
216.31902
31
-1482.5947
12
-150.65073
22
261.21204
32
-1397.1149
13
-150.65062
23
261.21213
33
-1397.1147
0
3DFACE
8
0
10
-150.65073
20
261.21204
30
-1397.1149
11
-83.07136
21
216.31902
31
-1482.5947
12
-140.85583
22
272.66214
32
-1412.5024
13
-140.85573
23
272.66223
33
-1412.5023
0
3DFACE
8
0
10
-150.65073
20
261.21204
30
-1397.1149
11
-140.85583
21
272.66214
31
-1412.5024
12
-47.269188
22
323.05646
32
-1361.5996
13
-47.26909
23
323.05655
33
-1361.5995
0
3DFACE
8
0
10
-47.269188
20
323.05646
30
-1361.5996
11
-140.85583
21
272.66214
31
-1412.5024
12
-52.866222
22
325.2989
32
-1382.2749
13
-52.866123
23
325.29898
33
-1382.2748
0
3DFACE
8
0
10
-52.866222
20
325.2989
30
-1382.2749
11
-58.401466
21
327.7643
31
-1402.745
12
4.9182663
22
268.95575
32
-1452.3671
13
4.9183664
23
268.95584
33
-1452.367
0
3DFACE
8
0
10
4.9182663
20
268.95575
30
-1452.3671
11
-58.401466
21
327.7643
31
-1402.745
12
-10.488689
22
281.04666
32
-1460.8629
13
-10.488589
23
281.04675
33
-1460.8628
0
3DFACE
8
0
10
4.9182663
20
268.95575
30
-1452.3671
11
-10.488689
21
281.04666
31
-1460.8629
12
-83.07136
22
216.31902
32
-1482.5947
13
-83.07126
23
216.31912
33
-1482.5946
0
3DFACE
8
0
10
-83.07136
20
216.31902
30
-1482.5947
11
-10.488689
21
281.04666
31
-1460.8629
12
-83.44646
22
237.40219
32
-1485.9265
13
-83.44636
23
237.4023
33
-1485.9264
0
3DFACE
8
0
10
-83.07136
20
216.31902
30
-1482.5947
11
-83.44646
21
237.40219
31
-1485.9265
12
-140.85583
22
272.66214
32
-1412.5024
13
-140.85573
23
272.66223
33
-1412.5023
0
3DFACE
8
0
10
-140.85583
20
272.66214
30
-1412.5024
11
-83.44646
21
237.40219
31
-1485.9265
12
-131.35922
22
284.11984
32
-1427.8086
13
-131.35912
23
284.11993
33
-1427.8085
0
3DFACE
8
0
10
-140.85583
20
272.66214
30
-1412.5024
11
-131.35922
21
284.11984
31
-1427.8086
12
-52.866222
22
325.2989
32
-1382.2749
13
-52.866123
23
325.29898
33
-1382.2748
0
3DFACE
8
0
10
-52.866222
20
325.2989
30
-1382.2749
11
-131.35922
21
284.11984
31
-1427.8086
12
-58.401466
22
327.7643
32
-1402.745
13
-58.401367
23
327.7644
33
-1402.7449
0
3DFACE
8
0
10
-58.401466
20
327.7643
30
-1402.745
11
-63.69413
21
331.10495
31
-1422.4094
12
-10.488689
22
281.04666
32
-1460.8629
13
-10.488589
23
281.04675
33
-1460.8628
0
3DFACE
8
0
10
-10.488689
20
281.04666
30
-1460.8629
11
-63.69413
21
331.10495
31
-1422.4094
12
-24.724949
22
293.1078
32
-1469.6788
13
-24.72485
23
293.10788
33
-1469.6787
0
3DFACE
8
0
10
-10.488689
20
281.04666
30
-1460.8629
11
-24.724949
21
293.1078
31
-1469.6788
12
-83.44646
22
237.40219
32
-1485.9265
13
-83.44636
23
237.4023
33
-1485.9264
0
3DFACE
8
0
10
-83.44646
20
237.40219
30
-1485.9265
11
-24.724949
21
293.1078
31
-1469.6788
12
-84.06412
22
257.6102
32
-1490.064
13
-84.06402
23
257.6103
33
-1490.0638
0
3DFACE
8
0
10
-83.44646
20
237.40219
30
-1485.9265
11
-84.06412
21
257.6102
31
-1490.064
12
-131.35922
22
284.11984
32
-1427.8086
13
-131.35912
23
284.11993
33
-1427.8085
0
3DFACE
8
0
10
-131.35922
20
284.11984
30
-1427.8086
11
-84.06412
21
257.6102
31
-1490.064
12
-123.033295
22
295.60736
32
-1442.7946
13
-123.033195
23
295.60745
33
-1442.7944
0
3DFACE
8
0
10
-131.35922
20
284.11984
30
-1427.8086
11
-123.033295
21
295.60736
31
-1442.7946
12
-58.401466
22
327.7643
32
-1402.745
13
-58.401367
23
327.7644
33
-1402.7449
0
3DFACE
8
0
10
-58.401466
20
327.7643
30
-1402.745
11
-123.033295
21
295.60736
31
-1442.7946
12
-63.69413
22
331.10495
32
-1422.4094
13
-63.69403
23
331.10504
33
-1422.4093
0
3DFACE
8
0
10
-63.69413
20
331.10495
30
-1422.4094
11
-68.58043
21
335.9117
31
-1440.7244
12
-24.724949
22
293.1078
32
-1469.6788
13
-24.72485
23
293.10788
33
-1469.6787
0
3DFACE
8
0
10
-24.724949
20
293.1078
30
-1469.6788
11
-68.58043
21
335.9117
31
-1440.7244
12
-37.00006
22
305.11905
32
-1479.031
13
-36.99996
23
305.11914
33
-1479.0309
0
3DFACE
8
0
10
-24.724949
20
293.1078
30
-1469.6788
11
-37.00006
21
305.11905
31
-1479.031
12
-84.06412
22
257.6102
32
-1490.064
13
-84.06402
23
257.6103
33
-1490.0638
0
3DFACE
8
0
10
-84.06412
20
257.6102
30
-1490.064
11
-37.00006
21
305.11905
31
-1479.031
12
-85.088135
22
276.35202
32
-1495.551
13
-85.088036
23
276.3521
33
-1495.5509
0
3DFACE
8
0
10
-84.06412
20
257.6102
30
-1490.064
11
-85.088135
21
276.35202
31
-1495.551
12
-123.033295
22
295.60736
32
-1442.7946
13
-123.033195
23
295.60745
33
-1442.7944
0
3DFACE
8
0
10
-123.033295
20
295.60736
30
-1442.7946
11
-85.088135
21
276.35202
31
-1495.551
12
-116.6685
22
307.14468
32
-1457.2443
13
-116.6684
23
307.14478
33
-1457.2441
0
3DFACE
8
0
10
-123.033295
20
295.60736
30
-1442.7946
11
-116.6685
21
307.14468
31
-1457.2443
12
-63.69413
22
331.10495
32
-1422.4094
13
-63.69403
23
331.10504
33
-1422.4093
0
3DFACE
8
0
10
-63.69413
20
331.10495
30
-1422.4094
11
-116.6685
21
307.14468
31
-1457.2443
12
-68.58043
22
335.9117
32
-1440.7244
13
-68.58033
23
335.9118
33
-1440.7242
0
3DFACE
8
0
10
-68.58043
20
335.9117
30
-1440.7244
11
-72.92507
21
342.6728
31
-1457.24
12
-37.00006
22
305.11905
32
-1479.031
13
-36.99996
23
305.11914
33
-1479.0309
0
3DFACE
8
0
10
-37.00006
20
305.11905
30
-1479.031
11
-72.92507
21
342.6728
31
-1457.24
12
-46.661003
22
317.06384
32
-1489.0981
13
-46.660904
23
317.06393
33
-1489.098
0
3DFACE
8
0
10
-37.00006
20
305.11905
30
-1479.031
11
-46.661003
21
317.06384
31
-1489.0981
12
-85.088135
22
276.35202
32
-1495.551
13
-85.088036
23
276.3521
33
-1495.5509
0
3DFACE
8
0
10
-85.088135
20
276.35202
30
-1495.551
11
-46.661003
21
317.06384
31
-1489.0981
12
-86.65384
22
293.13953
32
-1502.8372
13
-86.65374
23
293.13962
33
-1502.837
0
3DFACE
8
0
10
-85.088135
20
276.35202
30
-1495.551
11
-86.65384
21
293.13953
31
-1502.8372
12
-116.6685
22
307.14468
32
-1457.2443
13
-116.6684
23
307.14478
33
-1457.2441
0
3DFACE
8
0
10
-116.6685
20
307.14468
30
-1457.2443
11
-86.65384
21
293.13953
31
-1502.8372
12
-112.9179
22
318.74847
32
-1470.979
13
-112.9178
23
318.74857
33
-1470.9789
0
3DFACE
8
0
10
-116.6685
20
307.14468
30
-1457.2443
11
-112.9179
21
318.74847
31
-1470.979
12
-68.58043
22
335.9117
32
-1440.7244
13
-68.58033
23
335.9118
33
-1440.7242
0
3DFACE
8
0
10
-68.58043
20
335.9117
30
-1440.7244
11
-112.9179
21
318.74847
31
-1470.979
12
-72.92507
22
342.6728
32
-1457.24
13
-72.92497
23
342.67288
33
-1457.2399
0
3DFACE
8
0
10
-72.92507
20
342.6728
30
-1457.24
11
-76.63068
21
351.73953
31
-1471.6334
12
-46.661003
22
317.06384
32
-1489.0981
13
-46.660904
23
317.06393
33
-1489.098
0
3DFACE
8
0
10
-46.661003
20
317.06384
30
-1489.0981
11
-76.63068
21
351.73953
31
-1471.6334
12
-53.2379
22
328.93027
32
-1500.0088
13
-53.2378
23
328.93036
33
-1500.0087
0
3DFACE
8
0
10
-46.661003
20
317.06384
30
-1489.0981
11
-53.2379
21
328.93027
31
-1500.0088
12
-86.65384
22
293.13953
32
-1502.8372
13
-86.65374
23
293.13962
33
-1502.837
0
3DFACE
8
0
10
-86.65384
20
293.13953
30
-1502.8372
11
-53.2379
21
328.93027
31
-1500.0088
12
-88.85856
22
307.62143
32
-1512.2457
13
-88.85846
23
307.62152
33
-1512.2456
0
3DFACE
8
0
10
-86.65384
20
293.13953
30
-1502.8372
11
-88.85856
21
307.62143
31
-1512.2457
12
-112.9179
22
318.74847
32
-1470.979
13
-112.9178
23
318.74857
33
-1470.9789
0
3DFACE
8
0
10
-112.9179
20
318.74847
30
-1470.979
11
-88.85856
21
307.62143
31
-1512.2457
12
-112.25133
22
330.4307
32
-1483.8704
13
-112.25123
23
330.4308
33
-1483.8702
0
3DFACE
8
0
10
-112.9179
20
318.74847
30
-1470.979
11
-112.25133
21
330.4307
31
-1483.8704
12
-72.92507
22
342.6728
32
-1457.24
13
-72.92497
23
342.67288
33
-1457.2399
0
3DFACE
8
0
10
-72.92507
20
342.6728
30
-1457.24
11
-112.25133
21
330.4307
31
-1483.8704
12
-76.63068
22
351.73953
32
-1471.6334
13
-76.63058
23
351.73962
33
-1471.6333
0
3DFACE
8
0
10
17.359413
20
62.632637
30
-1101.0573
11
13.36329
21
48.21465
31
-1114.3295
12
64.49307
22
-1.6397748
32
-1176.3496
13
64.49317
23
-1.6396748
33
-1176.3495
0
3DFACE
8
0
10
64.49307
20
-1.6397748
30
-1176.3496
11
83.77892
21
-2.1301289
31
-1181.6237
12
17.359413
22
62.632637
32
-1101.0573
13
17.359512
23
62.632736
33
-1101.0571
0
3DFACE
8
0
10
-75.648544
20
377.71954
30
-1470.4575
11
-85.699776
21
341.45477
31
-1503.8406
12
-37.19115
22
340.2214
32
-1517.1061
13
-37.19105
23
340.2215
33
-1517.106
0
3DFACE
8
0
10
-76.63068
20
351.73953
30
-1471.6334
11
-82.74461
21
329.68048
31
-1491.9396
12
-53.2379
22
328.93027
32
-1500.0088
13
-53.2378
23
328.93036
33
-1500.0087
0
3DFACE
8
0
10
83.77892
20
-2.1301289
30
-1181.6237
11
64.49307
21
-1.6397748
31
-1176.3496
12
-13.363296
22
-48.21465
32
-1203.0961
13
-13.363195
23
-48.21455
33
-1203.096
0
3DFACE
8
0
10
-13.363296
20
-48.21465
30
-1203.0961
11
-17.35942
21
-62.632637
31
-1216.3683
12
83.77892
22
-2.1301289
32
-1181.6237
13
83.77902
23
-2.130029
33
-1181.6235
0
3DFACE
8
0
10
-37.19115
20
340.2214
30
-1517.1061
11
-85.699776
21
341.45477
31
-1503.8406
12
-95.75101
22
305.19
32
-1537.2235
13
-95.75091
23
305.1901
33
-1537.2234
0
3DFACE
8
0
10
-53.2379
20
328.93027
30
-1500.0088
11
-82.74461
21
329.68048
31
-1491.9396
12
-88.85856
22
307.62143
32
-1512.2457
13
-88.85846
23
307.62152
33
-1512.2456
0
3DFACE
8
0
10
-17.35942
20
-62.632637
30
-1216.3683
11
-13.363296
21
-48.21465
31
-1203.0961
12
-64.49307
22
1.6397732
32
-1141.0759
13
-64.49297
23
1.6398733
33
-1141.0758
0
3DFACE
8
0
10
-64.49307
20
1.6397732
30
-1141.0759
11
-83.77892
21
2.130127
31
-1135.8019
12
-17.35942
22
-62.632637
32
-1216.3683
13
-17.359322
23
-62.632538
33
-1216.3682
0
3DFACE
8
0
10
-95.75101
20
305.19
30
-1537.2235
11
-85.699776
21
341.45477
31
-1503.8406
12
-134.2084
22
342.68814
32
-1490.575
13
-134.2083
23
342.68823
33
-1490.5748
0
3DFACE
8
0
10
-88.85856
20
307.62143
30
-1512.2457
11
-82.74461
21
329.68048
31
-1491.9396
12
-112.25133
22
330.4307
32
-1483.8704
13
-112.25123
23
330.4308
33
-1483.8702
0
3DFACE
8
0
10
-83.77892
20
2.130127
30
-1135.8019
11
-64.49307
21
1.6397732
31
-1141.0759
12
13.36329
22
48.21465
32
-1114.3295
13
13.36339
23
48.21475
33
-1114.3293
0
3DFACE
8
0
10
13.36329
20
48.21465
30
-1114.3295
11
17.359413
21
62.632637
31
-1101.0573
12
-83.77892
22
2.130127
32
-1135.8019
13
-83.778824
23
2.1302269
33
-1135.8018
0
3DFACE
8
0
10
-134.2084
20
342.68814
30
-1490.575
11
-85.699776
21
341.45477
31
-1503.8406
12
-75.648544
22
377.71954
32
-1470.4575
13
-75.648445
23
377.71964
33
-1470.4574
0
3DFACE
8
0
10
-112.25133
20
330.4307
30
-1483.8704
11
-82.74461
21
329.68048
31
-1491.9396
12
-76.63068
22
351.73953
32
-1471.6334
13
-76.63058
23
351.73962
33
-1471.6333
0
ENDSEC
0
EOF
